<svg xmlns="http://www.w3.org/2000/svg" viewBox="0 0 32 32"><path fill="#D32F2F" transform="translate(-.359 .063)" d="m32 15.216-2.784 2.784-5.248-5.248-5.247 5.248-2.784-2.784 5.248-5.248-5.248-5.247 2.784-2.784 5.248 5.248 5.248-5.248 2.783 2.784-5.247 5.248zm-14.818 10.506c0 2.247-2.78 4.228-8.257 4.228s-8.2-1.9-8.2-4.228c0-3.916 5.837-5.065 5.837-6.91 0-1.729-3.17-1.894-3.17-7.212a5.49 5.49 0 0 1 5.469-5.588 5.587 5.587 0 0 1 5.587 5.588c0 5.372-3.276 5.478-3.276 7.207 0 1.787 6.01 2.824 6.01 6.915z"/></svg>
