<svg xmlns="http://www.w3.org/2000/svg" viewBox="0 0 512 512"><g transform="matrix(1.28 0 0 1.28 -71.682 -71.698)" fill="#D32F2F"><path d="m142.4 284.35c-23.029-14.045-38.403-39.402-38.403-68.349 0-44.183 35.817-80 80-80s80 35.817 80 80c0 28.947-15.374 54.303-38.403 68.349 74.568 17.1 86.403 80.129 86.403 107.65 0 32-48 64-128 64s-128-32-128-64c0-27.522 11.835-90.551 86.403-107.65z"/><path transform="rotate(45,368,144)" d="m384 128h56c8.8366 0 16 7.1634 16 16s-7.1634 16-16 16h-56v56c0 8.8366-7.1634 16-16 16s-16-7.1634-16-16v-56h-56c-8.8366 0-16-7.1634-16-16s7.1634-16 16-16h56v-56c0-8.8366 7.1634-16 16-16s16 7.1634 16 16z"/></g></svg>
