<?xml version="1.0" encoding="UTF-8" standalone="no"?>
<!-- Created with Inkscape (http://www.inkscape.org/) -->

<svg
   width="1024"
   height="1024"
   viewBox="0 0 270.93333 270.93333"
   version="1.1"
   id="svg1"
   xml:space="preserve"
   inkscape:version="1.3.2 (091e20e, 2023-11-25, custom)"
   sodipodi:docname="icon.svg"
   xmlns:inkscape="http://www.inkscape.org/namespaces/inkscape"
   xmlns:sodipodi="http://sodipodi.sourceforge.net/DTD/sodipodi-0.dtd"
   xmlns="http://www.w3.org/2000/svg"
   xmlns:svg="http://www.w3.org/2000/svg"><sodipodi:namedview
     id="namedview1"
     pagecolor="#505050"
     bordercolor="#ffffff"
     borderopacity="1"
     inkscape:showpageshadow="0"
     inkscape:pageopacity="0"
     inkscape:pagecheckerboard="1"
     inkscape:deskcolor="#d1d1d1"
     inkscape:document-units="mm"
     showguides="false"
     inkscape:zoom="0.44391777"
     inkscape:cx="25.905699"
     inkscape:cy="309.74205"
     inkscape:window-width="1920"
     inkscape:window-height="1001"
     inkscape:window-x="-9"
     inkscape:window-y="-9"
     inkscape:window-maximized="1"
     inkscape:current-layer="layer1" /><defs
     id="defs1"><filter
       style="color-interpolation-filters:sRGB"
       inkscape:label="Colorize"
       id="filter334"
       x="0"
       y="0"
       width="1"
       height="1"><feComposite
         in2="SourceGraphic"
         operator="arithmetic"
         k1="2.77556e-17"
         k2="0.9"
         result="composite1"
         id="feComposite333"
         k3="0"
         k4="0" /><feColorMatrix
         in="composite1"
         values="1"
         type="saturate"
         result="colormatrix1"
         id="feColorMatrix333" /><feFlood
         flood-opacity="1"
         flood-color="rgb(155,89,255)"
         result="flood1"
         id="feFlood333" /><feBlend
         in="flood1"
         in2="colormatrix1"
         mode="screen"
         result="blend1"
         id="feBlend333" /><feBlend
         in2="blend1"
         mode="lighten"
         result="blend2"
         id="feBlend334" /><feColorMatrix
         in="blend2"
         values="1"
         type="saturate"
         result="colormatrix2"
         id="feColorMatrix334" /><feComposite
         in="colormatrix2"
         in2="SourceGraphic"
         operator="in"
         result="composite2"
         id="feComposite334" /></filter></defs><g
     inkscape:label="Layer 1"
     inkscape:groupmode="layer"
     id="layer1"><g
       id="g244"
       style="filter:url(#filter334)"
       transform="matrix(1.8247132,0,0,1.8247132,-56.269698,-135.21835)"><path
         style="fill:#f9f9f9;fill-opacity:1;stroke:none"
         d="m 31.017681,74.416664 v 21.872223 c 0,6.320183 0.01001,13.060493 3.49838,18.667823 3.637323,5.84677 8.82745,9.65717 13.513349,14.3561 1.425738,1.4297 5.557764,3.2655 6.154014,5.08588 0.542546,1.6564 -0.59834,5.85255 -0.774153,7.75131 -0.570143,6.15751 -0.812398,12.62372 0.607562,18.69722 1.289087,5.51373 5.816322,10.38879 9.485804,14.46389 1.160844,1.28916 3.462571,2.62609 4.086343,4.24313 0.920842,2.38715 0.336199,5.26348 0.480169,7.75132 0.223121,3.85552 1.261497,8.53534 0.617361,12.34722 -0.408588,2.41795 -2.256756,4.54707 -2.175462,7.05556 0.128661,3.97017 2.746602,4.02474 4.468518,6.79097 0.540147,0.86773 0.334898,2.42563 0.607561,3.43958 -1.716807,0 -3.591251,3.17341 -4.586111,4.58611 1.517578,-0.28202 2.223376,-1.46484 2.822222,-2.82222 h 0.352778 l -1.763889,3.88056 H 179.18435 c 0,-3.62317 -2.43693,-6.08901 -3.97854,-9.17223 -2.55748,-5.11495 -5.84363,-11.24019 -9.42701,-15.875 -2.50275,-3.23708 -6.42791,-6.2592 -8.27069,-9.87778 -2.14717,-4.21629 -1.36121,-11.15738 -2.03827,-15.875 -0.90135,-6.28051 -4.95325,-11.90357 -5.74243,-17.99166 -0.27454,-2.11789 1.36628,-4.09145 1.97947,-5.99723 0.53957,-1.67694 0.47507,-4.24267 0.28418,-5.99722 -0.32354,-2.97372 -2.37082,-5.37292 -3.34158,-8.11389 -2.83682,-8.00984 -7.06102,-13.60527 -13.56235,-19.1284 -2.09771,-1.78208 -4.38833,-4.01998 -7.05556,-4.86049 4.22241,-6.83628 11.01852,-13.303696 13.97392,-20.813886 0.48189,-1.224538 -0.0143,-2.322501 0.30379,-3.527778 0.8812,-3.339267 3.33213,-6.224976 2.9398,-9.867982 -0.20749,-1.926745 -6.87233,-1.06813 -8.39806,-1.06813 h -21.16667 c -2.12532,0 -6.58932,-0.851175 -8.42747,0.254786 -1.58663,0.954626 -0.96613,3.526336 -1.17593,5.036881 -0.52708,3.794988 -0.97107,7.810129 -0.97993,11.641667 -0.003,1.368801 0.23335,4.124899 -0.82315,5.174081 -0.91633,0.909969 -2.64653,0.151186 -3.76296,0.117586 -4.070223,-0.122484 -7.823773,-1.645216 -11.994449,-0.921143 -6.053022,1.050862 -11.648988,4.205998 -16.580556,7.790508 -2.431788,1.76755 -4.27879,4.59392 -7.055556,5.83064 L 60.73921,100.875 50.841832,83.588887 45.314981,74.67145 41.248237,74.416664 H 31.017681 m 64.205558,25.047223 v 0.352778 h -2.822222 v -0.705556 l 2.822222,0.352778 m -3.175,0 v 0.352778 l -2.116667,0.705555 2.116667,-1.058333 m -2.469445,1.058333 -0.352778,0.35278 0.352778,-0.35278 m -1.058333,4.58611 -0.352778,0.35278 0.352778,-0.35278 m -15.875001,5.64445 -0.352777,0.35277 0.352777,-0.35277 m -1.058333,0.70555 -0.705556,0.70556 0.705556,-0.70556 m -1.411111,1.41111 -3.527778,4.58611 H 66.29546 c 0.584202,-1.82271 2.214524,-3.65724 3.880556,-4.58611 m 16.580556,2.46945 2.116667,0.70555 v 0.35278 l -5.644445,2.82222 -2.116667,-0.35277 -0.352778,1.41111 -1.058333,-0.35278 -0.352778,1.05833 -2.469444,0.35278 c -0.27311,1.37854 -1.131722,1.67396 -2.469445,1.76389 0.0063,1.07618 -0.672141,0.82178 -1.058333,0 l 1.763889,-2.82222 h -0.705556 l 0.352778,-1.41111 1.058333,0.35277 c 1.334017,-2.51702 8.419044,-4.14267 10.583334,-2.46944 l 0.352778,-1.41111 m 33.161108,0 -0.35277,0.35278 0.35277,-0.35278 M 85.345461,116.75 85.698239,117.10278 85.345461,116.75 m -5.291667,1.05833 0.352778,0.35278 -0.352778,-0.35278 m -4.11574,1.6463 0.117591,0.23519 -0.117591,-0.23519 m -3.292594,0.11759 -0.352777,0.35278 0.352777,-0.35278 m 7.643521,0.1176 0.235182,0.11758 -0.235182,-0.11758 m -5.174076,0.23518 0.352778,0.35278 -0.352778,-0.35278 m -5.644445,0.82315 c 0.272828,0 0.05651,0.17561 -0.117593,0.11759 l 0.117593,-0.11759 m 2.469445,-0.1176 -0.352778,0.35278 0.352778,-0.35278 m 58.796295,1.29352 -0.11759,0.23519 0.11759,-0.23519 m -9.05463,0.1176 1.05834,2.11666 -1.05834,-2.11666 m -35.983331,0.35277 c 1.13216,4.64783 -3.356697,7.42691 -7.055556,9.525 v -1.41111 h -0.352778 c 0.09083,1.96536 -0.07888,3.13565 -2.116667,3.88056 l -2.116667,3.175 -2.822222,-1.41111 v 2.46944 h -0.352778 l -0.705555,-2.11666 v -0.35278 -1.41111 -2.11667 l 1.058333,0.35278 -0.352778,-1.76389 1.411112,0.35278 c 0.155306,-1.32322 0.357059,-2.19074 1.763888,-2.46945 l 2.792826,-2.62624 8.848842,-4.07654 M 70.881571,123.1 l 0.705556,0.70555 0.705556,1.76389 -1.411112,0.35278 0.352778,-1.41111 -1.763889,1.05833 -0.352778,-2.11666 1.763889,-0.35278 m 1.411112,0.35278 -0.352778,0.35277 0.352778,-0.35277 m 11.288889,0 0.352778,0.35277 -0.352778,-0.35277 m -10.583334,0.35277 0.352778,0.70556 -0.352778,-0.70556 m 11.994445,0.35278 0.352778,0.35278 -0.352778,-0.35278 m -15.169445,0.70556 0.352778,0.35278 -0.352778,-0.35278 m -2.822222,0.35278 -1.058334,1.05833 0.352778,-1.05833 h 0.705556 m 1.058333,0 -0.352778,0.35277 0.352778,-0.35277 m 0.94074,0.58796 -0.117591,0.23519 0.117591,-0.23519 m -3.057407,0.82315 v 1.05833 h -0.352777 l 0.352777,-1.05833 m 4.233334,0.35277 -0.352778,0.35278 0.352778,-0.35278 m -2.822223,0.70556 -0.352777,0.35278 0.352777,-0.35278 m 9.054632,5.76204 0.235182,0.11759 -0.235182,-0.11759 m -4.703705,1.5287 0.117591,0.23518 -0.117591,-0.23518 m -3.292593,0.11759 -0.705556,0.70556 0.705556,-0.70556 m 2.116667,0 -1.411112,1.05834 0.705556,1.76389 c -1.775086,-0.78793 -0.700081,-2.29737 0.705556,-2.82223 m 3.175,0.35278 0.352777,0.35278 -0.352777,-0.35278 M 72.292683,135.8 v 0.35278 l 1.411111,0.35278 v -0.35278 L 72.292683,135.8 m 0.705555,1.76389 -1.058333,1.05833 0.352778,-1.05833 h 0.705555 m -2.469444,3.175 -0.352778,0.35278 0.352778,-0.35278 m 85.019446,61.03056 0.35278,0.70555 h -0.70556 l 0.35278,-0.70555 m 1.05833,1.41111 v 1.05833 h -0.35277 l -0.35278,-1.05833 h 0.70555 m 0.70556,1.41111 v 1.41111 l 0.70556,-0.70556 h 0.35277 l -0.35277,1.41112 1.05833,2.82222 h 0.70555 V 212 c -1.42291,-0.56765 -1.49963,-1.77739 -1.76388,-3.175 l 0.70555,0.35278 -1.41111,-1.05833 -1.05833,-2.11667 1.05833,-1.41111 m 0.35278,2.46944 0.35278,0.35278 -0.35278,-0.35278 m -86.430561,10.23056 -0.705555,1.41111 h -0.352778 z"
         id="path4" /><path
         id="path3"
         style="fill:#999999;fill-opacity:1"
         d="m 30.970719,74.416646 0.08527,3.704167 c 0.04678,2.03729 0.192025,3.704167 0.32246,3.704167 0.130436,0 0.420739,0.357187 0.645439,0.79375 0.404758,0.786392 0.406847,0.785914 0.22841,-0.08785 l -0.179834,-0.882117 0.436149,0.882117 c 0.240106,0.485069 0.617085,1.070216 0.837158,1.300696 0.220074,0.230479 0.381225,0.779107 0.358635,1.219047 -0.02259,0.439939 0.316363,1.156764 0.752925,1.593184 0.436562,0.43642 0.79375,1.092222 0.79375,1.456759 0,0.364536 0.106957,0.769447 0.237712,0.900203 0.130755,0.130755 0.285011,0.593719 0.343131,1.028878 0.05812,0.435158 0.172135,1.286635 0.253215,1.891874 0.08108,0.605239 0.403431,1.490955 0.716235,1.968355 0.312816,0.477401 0.449026,0.995331 0.302824,1.150834 -0.146201,0.155505 0.08279,0.07026 0.508496,-0.189135 0.665525,-0.405519 0.866992,-0.387138 1.438672,0.130224 0.36568,0.330937 0.798743,0.601514 0.962215,0.601514 0.163472,0 0.587235,0.262831 0.942062,0.583944 0.606538,0.548913 0.645438,0.537436 0.645438,-0.196888 0,-0.429578 -0.132349,-0.699376 -0.294039,-0.599446 -0.161688,0.09993 -0.294039,-0.04977 -0.294039,-0.33228 0,-0.282506 0.06108,-0.513663 0.135393,-0.513663 0.07431,0 0.593455,0.237264 1.153934,0.527099 0.65494,0.338683 1.000093,0.779686 0.965833,1.23455 -0.02932,0.389262 -0.257711,0.707967 -0.507463,0.707967 -0.24975,0 -0.454235,0.158924 -0.454235,0.35295 0,0.194028 0.12693,0.352434 0.282153,0.352434 0.155222,0 0.466343,-0.18419 0.691431,-0.409278 0.310482,-0.310481 0.581595,-0.203714 1.122412,0.441317 0.485045,0.578517 0.651473,1.150603 0.521415,1.790588 -0.137115,0.674703 -0.01028,1.045473 0.448035,1.312063 0.595011,0.34616 0.596664,0.37241 0.0217,0.38241 -0.339549,0.006 -0.617534,0.16978 -0.617534,0.3638 0,0.19403 0.238125,0.35243 0.529167,0.35243 0.291041,0 0.529167,0.0907 0.529167,0.20154 0,0.11087 -0.238126,0.44018 -0.529167,0.73122 -0.291042,0.29104 -0.529167,0.75583 -0.529167,1.03301 0,0.27718 0.161943,0.50385 0.359668,0.50385 0.212709,0 0.263322,0.38187 0.12454,0.93483 -0.131315,0.52319 -0.09528,0.84832 0.08165,0.73897 0.173818,-0.10742 0.31626,0.51676 0.31626,1.38699 0,1.09975 0.187918,1.7197 0.617017,2.03347 0.339547,0.24828 0.617533,0.53844 0.617533,0.64441 0,0.1058 -0.317328,0.10923 -0.705383,0.008 -0.421672,-0.11027 -0.7059,-0.011 -0.7059,0.24701 0,0.23694 0.232971,0.34236 0.517797,0.23306 0.284828,-0.1093 0.605828,-0.0563 0.713135,0.11731 0.107308,0.17319 0.523244,0.25248 0.924492,0.17518 0.61395,-0.11824 0.66001,-0.0568 0.289904,0.38913 -0.333106,0.40137 -0.340846,0.62912 -0.03152,0.93844 0.22461,0.22461 0.40876,0.54491 0.40876,0.71158 0,0.1667 -0.157011,0.20588 -0.348816,0.0873 -0.199975,-0.12359 -0.259481,0.0178 -0.139009,0.33176 0.11555,0.30112 0.440703,0.54777 0.722436,0.54777 0.281735,0 0.414471,0.15841 0.294556,0.35243 -0.119916,0.19403 0.06913,0.35832 0.420129,0.36432 0.350999,0.006 0.9319,0.23344 1.290878,0.5054 0.358978,0.27196 0.558773,0.64592 0.444417,0.83095 -0.114355,0.18503 0.05187,0.31496 0.36897,0.28836 0.362322,-0.0304 0.625817,0.27929 0.709517,0.83354 0.07325,0.48507 0.140228,1.14876 0.148828,1.47536 0.0086,0.32661 0.260438,0.797 0.559139,1.0449 0.298702,0.2479 0.870694,0.6154 1.27124,0.817 0.400547,0.20161 0.800869,0.58726 0.889869,0.8568 0.10641,0.32227 0.01002,0.39606 -0.282154,0.21549 -0.292489,-0.18077 -0.388266,-0.10713 -0.280086,0.21549 0.09038,0.26954 0.38867,0.51134 0.663009,0.53744 0.274337,0.0261 0.642445,0.066 0.818038,0.0884 0.175592,0.0224 0.02291,0.36801 -0.338998,0.76791 -0.563138,0.62226 -0.583493,0.77379 -0.142627,1.05265 0.404218,0.25564 0.344302,0.32725 -0.278536,0.33125 -0.436561,0.003 -0.79375,0.0719 -0.79375,0.15296 0,0.0811 0.09617,0.39899 0.213941,0.7059 0.117773,0.30691 0.355898,0.55759 0.529166,0.55759 v 5.2e-4 c 0.173269,0 0.315227,-0.23812 0.315227,-0.52917 0,-0.29104 0.158923,-0.52917 0.35295,-0.52917 0.194027,0 0.352433,-0.17886 0.352433,-0.39739 0,-0.21854 0.48765,-1.35722 1.083655,-2.53008 0.596003,-1.17286 1.095893,-2.56832 1.111043,-3.1011 0.01515,-0.53279 -0.33158,-1.89441 -0.771012,-3.02617 -0.439434,-1.13176 -1.098247,-2.73077 -1.463994,-3.55327 -0.365746,-0.82251 -0.665075,-1.7507 -0.665075,-2.06241 0,-0.31171 -0.312726,-1.00614 -0.695048,-1.54306 -0.382321,-0.53693 -0.594392,-1.07734 -0.470773,-1.20096 0.12362,-0.12362 0.03981,-0.22479 -0.186552,-0.22479 -0.226365,0 -0.411344,0.12355 -0.411344,0.2744 0,0.15086 0.213963,0.58725 0.47594,0.96997 0.261977,0.38272 0.572735,1.33125 0.690397,2.10736 0.173004,1.14114 0.140308,1.27597 -0.171566,0.70539 -0.212108,-0.38805 -0.663267,-1.02323 -1.002522,-1.41129 -0.339257,-0.38805 -0.735813,-1.10243 -0.881084,-1.5875 -0.145271,-0.48507 -0.703299,-1.83409 -1.240234,-2.99826 -0.536935,-1.16417 -1.082016,-2.47385 -1.211296,-2.91042 -0.129279,-0.43656 -0.383353,-0.79375 -0.564306,-0.79375 -0.180953,0 -0.328662,-0.23813 -0.328662,-0.52917 0,-0.29104 -0.185496,-0.52916 -0.411862,-0.52916 -0.226367,0 -0.311178,-0.10069 -0.188618,-0.22325 0.122559,-0.12256 -0.183865,-0.916134 -0.680579,-1.763712 -0.496714,-0.847579 -0.783727,-1.540992 -0.638204,-1.540992 0.145523,0 0.02324,-0.277985 -0.271818,-0.617533 -0.295054,-0.339549 -0.640108,-1.053924 -0.766878,-1.5875 -0.12677,-0.533575 -0.460818,-0.969967 -0.742074,-0.969967 -0.281253,0 -0.434407,-0.200345 -0.340548,-0.444934 0.09386,-0.244588 -0.307952,-0.968693 -0.892968,-1.609204 -0.585016,-0.640511 -1.064018,-1.479803 -1.064018,-1.865519 0,-0.385716 -0.266085,-1.209426 -0.591178,-1.830379 -0.325093,-0.620955 -0.632206,-1.492024 -0.682646,-1.935283 -0.05044,-0.443257 -0.574155,-1.589946 -1.163753,-2.548165 -0.589598,-0.958218 -1.172473,-2.143138 -1.295529,-2.633431 -0.123055,-0.490292 -0.365474,-0.891418 -0.538468,-0.891418 -0.172993,0 -0.314193,-0.378336 -0.314193,-0.840776 0,-0.538755 -0.248844,-0.905633 -0.692464,-1.021643 -0.482077,-0.126066 -0.64854,-0.4095 -0.54777,-0.932759 0.08002,-0.415512 -0.0048,-0.658924 -0.189653,-0.54467 -0.183884,0.113647 -0.345511,-0.0805 -0.359151,-0.431498 -0.02351,-0.604986 -0.03805,-0.604235 -0.28112,0.01344 -0.229377,0.582891 -0.304265,0.59352 -0.711067,0.103353 -0.250099,-0.301353 -0.35738,-0.705862 -0.238229,-0.898653 0.119152,-0.192792 -0.09469,-0.517124 -0.475423,-0.720887 C 34.90342,74.583658 33.777202,74.4169 32.781464,74.4169 Z m 14.189315,0 c -0.176861,0 -0.287046,0.234548 -0.244946,0.521416 0.0421,0.286868 0.464656,0.947597 0.938961,1.468127 0.474299,0.520529 0.663696,0.832216 0.421163,0.692464 -0.242535,-0.13975 -0.4408,-0.176579 -0.4408,-0.08165 0,0.09493 0.458299,1.175711 1.018542,2.401921 0.560243,1.22621 1.135546,2.626369 1.278475,3.111438 0.142929,0.485069 0.552147,1.161296 0.909505,1.502234 0.357358,0.340937 0.56663,0.836093 0.465088,1.100708 -0.101542,0.264616 0.04011,0.567452 0.31471,0.672827 0.274603,0.105376 0.597866,0.684047 0.718302,1.286226 0.120436,0.60218 0.7901,2.322729 1.488281,3.823023 0.698183,1.500293 1.892394,4.021679 2.653585,5.603275 0.761192,1.581597 1.383895,3.067909 1.383895,3.303158 0,0.235247 0.290133,1.004977 0.644922,1.710487 0.354788,0.70552 0.990456,1.9975 1.412317,2.87063 0.42186,0.87312 0.766383,1.77566 0.765844,2.00556 -5.39e-4,0.22991 0.189225,0.86457 0.421163,1.41077 0.231939,0.54621 0.441205,1.15214 0.465605,1.34617 0.0244,0.19402 0.321576,0.9876 0.659908,1.76372 0.338333,0.77611 0.70673,1.86037 0.818555,2.40967 0.194996,0.95784 0.227302,0.97246 0.792199,0.35295 0.323952,-0.35526 1.769834,-1.90814 3.213241,-3.45095 1.443381,-1.54283 2.096552,-2.37626 1.451074,-1.85209 -0.645476,0.52418 -1.297983,0.95292 -1.449524,0.95292 -0.151541,0 -1.278337,-1.94487 -2.50424,-4.3217 -1.225902,-2.37684 -3.212212,-6.067785 -4.4142,-8.202088 -1.201989,-2.134304 -3.079117,-5.354887 -4.171322,-7.157186 -1.092206,-1.802298 -1.985925,-3.357847 -1.985925,-3.456636 0,-0.09879 -0.543873,-1.029813 -1.208712,-2.069125 -0.66484,-1.039313 -1.874495,-3.135363 -2.687691,-4.657597 -0.813197,-1.522233 -1.777279,-3.09535 -2.142505,-3.49591 -0.365227,-0.400561 -0.664042,-0.916671 -0.664042,-1.1467 0,-0.230029 -0.144569,-0.418063 -0.321428,-0.418062 z m 67.088416,0 0.0387,2.910417 c 0.0212,1.600727 -0.0948,5.76792 -0.25786,9.260417 -0.16306,3.492496 -0.26871,8.13594 -0.23461,10.31875 0.0411,2.630563 -0.0652,3.96875 -0.31626,3.96875 -0.20831,0 -0.37879,0.44659 -0.37879,0.99219 0,0.67478 0.31212,1.22277 0.97668,1.7141 0.53733,0.39726 1.31467,0.82963 1.72755,0.96067 0.5308,0.16846 0.69765,0.44155 0.56947,0.93173 -0.0997,0.3813 -0.34578,0.69298 -0.54725,0.69298 -0.20147,0 -0.12275,0.27798 0.17518,0.61753 0.36224,0.41283 0.44694,0.85111 0.2558,1.32292 -0.15721,0.3881 -0.29698,0.52901 -0.31058,0.31316 -0.0136,-0.21582 -0.42114,-0.34921 -0.90537,-0.29611 -0.48424,0.0532 -0.98458,-0.0717 -1.11207,-0.27802 -0.1275,-0.20629 0.0584,-0.58789 0.41341,-0.84749 0.35499,-0.25961 0.54199,-0.57526 0.41548,-0.70177 -0.1265,-0.1265 -0.52261,0.13154 -0.88057,0.57361 l -0.65112,0.80408 -0.73381,-0.93379 -0.73432,-0.93327 0.12195,1.31671 c 0.0673,0.72432 0.36917,1.49771 0.67076,1.71824 0.3016,0.22053 0.54881,0.58913 0.54881,0.81907 0,0.28672 -0.38825,0.3449 -1.23507,0.18604 -1.16513,-0.21858 -1.23455,-0.17728 -1.23455,0.7276 0,0.70749 0.13878,0.90532 0.52917,0.75551 0.32234,-0.12369 0.52917,-3.6e-4 0.52917,0.31523 0,0.28495 0.15252,0.51831 0.33899,0.51831 0.18647,0 0.66272,0.34741 1.05834,0.77205 0.39561,0.42434 0.71933,0.61504 0.71933,0.42323 0,-0.19181 -0.18794,-0.53676 -0.41754,-0.76636 -0.22958,-0.2296 -0.32757,-0.50701 -0.21808,-0.6165 0.10948,-0.10949 0.46484,0.0669 0.79013,0.39222 0.32525,0.3253 0.50826,0.80936 0.40618,1.07539 -0.1021,0.26602 -0.12171,0.48369 -0.0434,0.48369 0.0783,0 0.54927,-0.15494 1.04697,-0.34417 0.78118,-0.297 0.90537,-0.2489 0.90537,0.34985 0,0.60993 0.18065,0.6708 1.49913,0.50747 0.82461,-0.10215 1.93604,-0.37738 2.46962,-0.61185 0.53358,-0.23448 0.96997,-0.53709 0.96997,-0.67231 0,-0.13521 -0.14805,-0.33692 -0.32867,-0.44855 -0.18062,-0.11163 -0.42796,-0.0417 -0.54983,0.15554 -0.12187,0.19719 -0.67899,0.35864 -1.23817,0.35864 -0.55918,0 -1.12603,-0.17651 -1.25936,-0.39223 -0.13332,-0.21572 -0.0717,-0.49788 0.13695,-0.62683 0.24399,-0.15079 0.26208,-0.42012 0.0506,-0.75448 -0.27616,-0.43667 -0.32883,-0.42089 -0.33383,0.0977 -0.003,0.33955 -0.16461,0.61753 -0.35863,0.61753 -0.19402,0 -0.35244,-0.13422 -0.35244,-0.29817 0,-0.16396 0.31734,-0.58571 0.70539,-0.93689 0.49794,-0.45064 0.7059,-0.50115 0.7059,-0.17209 0,0.25642 0.10435,0.36177 0.23202,0.2341 0.12767,-0.12767 0.445,-0.0554 0.70539,0.16071 0.3504,0.29077 0.61087,0.27906 1.00252,-0.046 0.29105,-0.24154 0.52917,-0.58826 0.52917,-0.76998 0,-0.18177 -0.15893,-0.23206 -0.35295,-0.11214 -0.19402,0.11992 -0.35244,0.0592 -0.35244,-0.13487 0,-0.19403 0.15842,-0.45059 0.35244,-0.57051 0.19402,-0.11991 0.35295,-0.0392 0.35295,0.17932 0,0.24308 0.28765,0.30599 0.74052,0.16226 0.62959,-0.19983 0.70514,-0.12437 0.50591,0.50333 -0.18529,0.58378 -0.1144,0.69178 0.339,0.5178 0.39087,-0.14999 0.63365,0.0113 0.76326,0.50694 0.1247,0.47679 0.39094,0.66479 0.77308,0.54622 0.50779,-0.15758 0.50299,-0.11523 -0.0351,0.32815 -0.33955,0.27977 -0.61702,0.61019 -0.61702,0.73432 0,0.12413 0.23813,0.22583 0.52917,0.22583 0.29104,0 0.52917,0.20751 0.52917,0.46147 0,0.25396 -0.20942,0.74795 -0.46509,1.0976 -0.43558,0.59568 -0.50221,0.598 -1.05834,0.0419 -0.32642,-0.32641 -0.59324,-0.83956 -0.59324,-1.1405 0,-0.44402 -0.0987,-0.4651 -0.524,-0.11213 -0.45882,0.38079 -0.43702,0.54589 0.17622,1.3255 0.38527,0.48979 0.70021,1.17242 0.70021,1.5167 0,0.58769 -0.0881,0.58294 -1.44435,-0.0724 -1.31655,-0.63609 -1.49873,-0.64868 -2.05621,-0.14417 -0.33642,0.30445 -0.77977,0.55345 -0.98547,0.55345 -0.2057,0 -0.35194,0.25673 -0.32504,0.57051 0.032,0.3731 -0.27959,0.60844 -0.90021,0.67954 -0.71407,0.0818 -0.8997,-0.0195 -0.75034,-0.40876 0.10918,-0.28449 0.0598,-0.48473 -0.10955,-0.44493 -0.16933,0.0398 -0.74956,-0.0517 -1.28933,-0.20309 -0.9107,-0.2555 -0.93577,-0.30988 -0.35243,-0.75241 0.57758,-0.43819 0.55047,-0.47752 -0.33073,-0.48782 -0.7517,-0.009 -0.91037,0.11555 -0.73381,0.57567 0.15147,0.39476 0.0899,0.50327 -0.18758,0.33176 -0.25809,-0.15951 -0.40798,-0.0156 -0.39998,0.38344 0.007,0.351 0.20515,0.97409 0.4408,1.38493 0.23566,0.41084 0.93958,1.324 1.56425,2.02882 0.62466,0.70482 1.3113,1.28106 1.52548,1.28106 0.21416,0 0.33762,0.26324 0.27492,0.58446 -0.0627,0.32122 -0.39167,0.62467 -0.73122,0.67437 -0.33955,0.0497 -0.61753,-0.10151 -0.61753,-0.33589 0,-0.23601 -0.43269,-0.41489 -0.96997,-0.40049 -0.53358,0.0143 -1.06394,-0.10561 -1.17874,-0.26666 -0.11479,-0.16105 -0.7101,-0.35596 -1.32291,-0.43356 -0.61281,-0.0776 -1.11415,0.01 -1.11415,0.19482 0,0.18481 0.39653,0.3359 0.8816,0.3359 0.48507,0 0.88212,0.14729 0.88212,0.32711 0,0.17981 0.50069,0.57635 1.11259,0.8816 0.61189,0.30525 1.38852,0.555 1.72599,0.555 0.33749,0 0.69044,0.19932 0.78394,0.44287 0.0935,0.24356 -0.0375,0.63659 -0.29094,0.87333 -0.36649,0.34235 -0.49364,0.30585 -0.62064,-0.17828 -0.10458,-0.39871 -0.17203,-0.30436 -0.19533,0.27337 -0.0195,0.48507 0.0812,1.05821 0.22376,1.27382 0.14255,0.2156 0.97378,0.5011 1.84691,0.63407 0.87312,0.13296 1.8812,0.4616 2.24018,0.7307 0.35898,0.26911 0.56249,0.63539 0.45216,0.81391 -0.11772,0.19047 -0.97061,0.20629 -2.06395,0.0382 -1.02476,-0.15751 -4.53875,-0.34428 -7.80883,-0.41548 -5.89518,-0.12831 -5.93241,-0.1247 -4.40955,0.46819 0.84473,0.32889 2.64674,0.71457 4.00493,0.85679 1.35819,0.14222 2.78695,0.43492 3.175,0.65061 0.38805,0.21568 0.82496,0.41797 0.97048,0.44907 0.14552,0.0311 0.44263,0.076 0.66042,0.10025 0.28916,0.0322 0.28699,0.17589 -0.009,0.53227 -0.33131,0.39921 -0.10923,0.53186 1.2237,0.73174 0.89577,0.13433 1.54241,0.33034 1.43712,0.43563 -0.1053,0.10528 -1.74708,0.16758 -3.64836,0.13798 -2.4797,-0.0386 -4.75318,0.20342 -8.04292,0.85731 -2.52236,0.50136 -5.459063,1.16209 -6.526215,1.46812 -1.067152,0.30604 -3.528124,1.18258 -5.4684,1.94769 -1.940276,0.76512 -5.194311,2.27601 -7.2316,3.35742 -2.03729,1.08141 -4.101214,2.26905 -4.586283,2.63963 -0.485069,0.37058 -2.072157,1.46035 -3.526917,2.42156 -1.454759,0.9612 -2.690622,1.61022 -2.746602,1.44229 -0.05598,-0.16793 0.975139,-1.72841 2.29185,-3.46749 1.316709,-1.73909 3.544613,-4.59625 4.950602,-6.34949 1.405987,-1.75323 3.866444,-4.31447 5.467883,-5.69164 1.601441,-1.37717 3.467421,-2.96 4.146517,-3.51761 0.679096,-0.55761 1.948926,-1.48565 2.82205,-2.06241 0.873124,-0.57677 2.743193,-1.49277 4.155302,-2.03553 1.41211,-0.54277 2.798325,-1.21806 3.080432,-1.50017 0.371611,-0.37162 1.510691,-0.53209 4.135151,-0.58239 2.40071,-0.046 3.78508,-0.22372 4.10517,-0.5271 0.26559,-0.25178 0.3632,-0.56911 0.21653,-0.70539 -0.14668,-0.13628 -0.33767,-0.0493 -0.42427,0.19327 -0.0866,0.24253 -0.56334,0.4408 -1.05936,0.4408 -0.49601,0 -1.07804,-0.22206 -1.29346,-0.49351 -0.21541,-0.27145 -0.78718,-0.61195 -1.27073,-0.75654 -0.76766,-0.22955 -0.82132,-0.19328 -0.42374,0.28577 0.27326,0.32926 0.32019,0.63219 0.1173,0.75758 -0.18594,0.11495 -0.56954,0.12032 -0.85214,0.0119 -0.28261,-0.10845 -1.52711,0.13446 -2.76573,0.54002 -1.238619,0.40555 -2.5699,0.87633 -2.957955,1.04593 -0.388056,0.16961 -1.760882,0.78329 -3.050976,1.36374 -1.290095,0.58044 -3.580541,1.98416 -5.090129,3.11919 -1.509589,1.13502 -3.311593,2.53823 -4.004407,3.11816 -0.692814,0.57994 -2.182078,2.00869 -3.309359,3.175 -1.127279,1.16632 -2.312694,2.5572 -2.633947,3.09077 -0.321254,0.53358 -0.748079,0.97158 -0.94878,0.97358 -0.2007,0.002 -1.031791,0.91462 -1.846915,2.0283 -0.815125,1.11368 -1.962526,2.54654 -2.549715,3.1843 -0.58719,0.63777 -1.547251,1.857 -2.13372,2.7094 -0.58647,0.8524 -1.066602,1.6226 -1.066602,1.711 0,0.0884 -0.637929,1.11645 -1.418001,2.28462 -0.780073,1.16817 -1.718926,2.97231 -2.086178,4.00906 -0.36725,1.03676 -1.077697,2.99606 -1.578715,4.35425 -0.501018,1.3582 -0.965348,2.62854 -1.031978,2.82257 -0.06663,0.19402 -0.378918,-0.14332 -0.693498,-0.74931 -0.314579,-0.60599 -0.494969,-1.17879 -0.401009,-1.27279 0.09396,-0.094 -0.07117,-0.37159 -0.366903,-0.61702 -0.295729,-0.24503 -0.537435,-0.35513 -0.537435,-0.24391 0,0.11123 0.171784,1.00365 0.381889,1.98334 0.210105,0.97969 0.531229,1.78129 0.713652,1.78129 0.182423,0 0.06306,0.41046 -0.265617,0.91209 -0.433203,0.66115 -0.485669,0.98132 -0.189653,1.16427 0.224593,0.13881 0.467749,0.79248 0.540019,1.45262 0.07227,0.66013 0.313304,1.26112 0.535885,1.33532 0.222576,0.0742 0.314829,0.2804 0.205155,0.45786 -0.109674,0.17745 -0.03081,0.32246 0.174667,0.32246 0.205478,0 0.373103,0.13321 0.373103,0.2961 0,0.16288 -0.393637,0.47578 -0.874882,0.69505 -0.635299,0.28947 -0.8099,0.57023 -0.63717,1.02629 0.130839,0.34545 0.444179,0.83703 0.696082,1.09193 0.251902,0.25486 0.621849,0.36204 0.822172,0.23823 0.200325,-0.12381 0.326633,-0.0943 0.280603,0.0656 -0.04603,0.15994 0.115383,0.65008 0.358634,1.08883 0.243247,0.43876 0.397228,0.99421 0.342098,1.23455 -0.05513,0.24033 0.08244,1.07184 0.305925,1.84795 0.223486,0.77611 0.604009,2.28244 0.845426,3.34708 0.241416,1.06464 0.557135,3.20776 0.701766,4.7625 0.217513,2.33817 0.243658,2.0338 0.150378,-1.75958 -0.06203,-2.52236 -0.22293,-5.22094 -0.357601,-5.99705 -0.244538,-1.40929 -0.243863,-1.41003 0.456303,-0.70539 0.38559,0.38806 0.617395,0.84873 0.515214,1.02423 -0.102181,0.1755 -0.01371,0.21283 0.196888,0.0827 0.210599,-0.13016 0.482742,-0.0752 0.604614,0.12196 0.121871,0.19719 0.381574,0.35812 0.577226,0.35812 0.195645,0 0.254938,-0.31733 0.131774,-0.70539 -0.123163,-0.38805 -0.07603,-0.70538 0.104387,-0.70538 0.180418,0 0.284824,-0.3898 0.232544,-0.8661 -0.05228,-0.47629 0.128533,-1.0514 0.401526,-1.27796 0.272991,-0.22657 0.496093,-0.55113 0.496093,-0.7214 0,-0.17027 -0.236759,-0.30954 -0.526582,-0.30954 -0.34362,0 -0.485991,-0.27013 -0.408761,-0.77618 0.06514,-0.42683 -0.08433,-1.44988 -0.332279,-2.27376 -0.247951,-0.82388 -0.620354,-1.81466 -0.82734,-2.20142 -0.206985,-0.38676 -0.250726,-0.7808 -0.09767,-0.8754 0.153058,-0.0946 0.695337,0.72943 1.205612,1.8309 0.510274,1.10146 1.636463,3.66934 2.502172,5.70663 0.865711,2.03728 2.184731,5.25872 2.931604,7.15822 1.142819,2.90647 1.470826,3.43721 2.068608,3.35121 0.390673,-0.0562 0.931146,-0.56499 1.201477,-1.13068 0.433565,-0.90727 0.423697,-1.07825 -0.08475,-1.45004 -0.317021,-0.23181 -0.576193,-0.76098 -0.576193,-1.17615 0,-0.41517 0.154941,-0.755 0.344166,-0.755 0.218702,0 0.22504,-0.31266 0.01757,-0.85834 -0.220865,-0.58094 -0.200864,-0.90077 0.06253,-0.98857 0.256527,-0.0855 0.193411,-0.42886 -0.185518,-1.00718 -0.316209,-0.4826 -0.538981,-1.38693 -0.495061,-2.00969 0.05634,-0.79894 0.256308,-1.13225 0.679545,-1.13275 0.329908,-3.8e-4 0.726955,0.20947 0.882117,0.46664 0.155162,0.25716 0.559621,0.56973 0.89917,0.69453 0.339549,0.1248 0.617533,0.38579 0.617533,0.57981 0,0.19402 -0.238125,0.26155 -0.529166,0.14986 -0.291041,-0.11168 -0.529167,-0.0447 -0.529167,0.14935 0,0.19403 0.21818,0.43669 0.484725,0.53898 0.286362,0.10988 0.683081,-0.19942 0.969967,-0.75603 0.26703,-0.51809 0.684023,-1.15178 0.926558,-1.40818 0.242535,-0.25636 0.4408,-0.36623 0.4408,-0.24391 0,0.12232 0.175932,0.11412 0.390674,-0.0186 0.27229,-0.16828 0.245424,-0.33492 -0.08837,-0.54984 -0.298728,-0.1924 -0.06636,-0.22916 0.617534,-0.0982 0.835893,0.16007 1.15058,0.0666 1.32705,-0.39325 0.181801,-0.47377 0.337398,-0.51454 0.727605,-0.19069 0.390158,0.3238 0.572831,0.2765 0.851627,-0.22169 0.195138,-0.34872 0.46582,-0.52276 0.602031,-0.38654 0.136211,0.13621 0.802899,0.0162 1.481046,-0.26717 0.678147,-0.28334 1.689537,-0.51521 2.247925,-0.51521 0.582998,0 1.010473,-0.18809 1.004073,-0.44132 -0.0062,-0.24253 -0.234625,-0.73536 -0.507463,-1.09554 -0.395307,-0.52185 -0.948383,-0.65027 -2.722831,-0.63097 -1.224706,0.0133 -2.861394,0.0854 -3.637504,0.1602 -0.77611,0.0748 -2.046456,0.26053 -2.822567,0.41237 -0.77611,0.15186 -1.577632,0.40719 -1.781286,0.56741 -0.203655,0.16022 -1.023522,0.39578 -1.822111,0.52348 -1.324937,0.21186 -1.462242,0.16123 -1.56993,-0.57464 -0.07786,-0.53202 -0.478478,-0.92368 -1.176673,-1.15135 -0.582082,-0.18981 -1.13754,-0.45239 -1.23455,-0.58343 -0.09701,-0.13104 -0.677305,-0.52962 -1.289843,-0.88573 -0.612539,-0.35611 -1.038386,-0.84392 -0.946196,-1.08417 0.09219,-0.24024 -0.002,-0.54164 -0.209289,-0.66973 -0.207255,-0.12809 -0.376722,-0.54117 -0.376722,-0.91777 0,-0.37661 -0.169618,-0.68471 -0.376721,-0.68471 -0.216005,0 -0.280906,-0.30064 -0.152445,-0.70539 0.174642,-0.55024 0.06339,-0.70538 -0.505396,-0.70538 -0.40113,0 -0.729671,-0.14585 -0.729671,-0.32401 0,-0.17816 -0.09617,-0.57521 -0.21394,-0.88212 -0.153506,-0.40003 -0.0037,-0.5581 0.529166,-0.5581 0.408814,0 0.743107,-0.15283 0.743107,-0.34003 0,-0.1872 -0.317327,-0.51063 -0.705383,-0.71831 -0.388054,-0.20769 -0.705383,-0.5398 -0.705383,-0.73845 0,-0.19866 0.158405,-0.26306 0.352433,-0.14315 0.194027,0.11992 0.35295,0.0592 0.35295,-0.13487 0,-0.19403 -0.134386,-0.4359 -0.29869,-0.53744 -0.164303,-0.10155 -0.312419,-0.66691 -0.329179,-1.25625 -0.01676,-0.58934 -0.131039,-1.42826 -0.253731,-1.86449 -0.140522,-0.49961 -0.108547,-0.6302 0.08578,-0.35243 0.242617,0.34674 0.454698,0.32794 0.993221,-0.0889 0.570846,-0.44185 0.581845,-0.49447 0.06718,-0.31523 -0.339548,0.11828 -0.616708,0.0789 -0.615983,-0.0873 7.26e-4,-0.16628 0.292856,-0.78017 0.649056,-1.36426 0.356202,-0.5841 1.98291,-2.25639 3.614767,-3.71657 1.631856,-1.46018 3.522196,-3.0532 4.201294,-3.53984 0.679096,-0.48665 2.374064,-1.55227 3.766178,-2.36833 1.392116,-0.81607 2.611719,-1.48414 2.710429,-1.48414 0.09871,0 0.943914,-0.46954 1.878438,-1.04335 0.934523,-0.57382 3.207593,-1.58 5.050855,-2.23604 1.843262,-0.65605 4.462641,-1.45058 5.820833,-1.76578 1.358194,-0.31519 3.78998,-0.8329 5.40432,-1.15032 1.61432,-0.31742 4.60917,-0.65203 6.65489,-0.74363 2.06036,-0.0923 4.80325,0.0164 6.14898,0.2434 1.33615,0.22537 2.44816,0.59356 2.47116,0.81856 0.0227,0.22501 0.0185,0.54027 -0.009,0.70021 -0.0278,0.1599 0.11478,0.1884 0.31678,0.0636 0.20201,-0.12485 0.25473,-0.41424 0.1173,-0.64337 -0.15384,-0.25647 -0.0285,-0.23726 0.32608,0.0501 0.31674,0.25672 0.49558,0.67708 0.39688,0.93431 -0.0987,0.25723 -0.0104,0.57264 0.19688,0.70073 0.20726,0.12809 0.37724,-0.005 0.37724,-0.29611 0,-0.29105 0.11907,-0.60286 0.26459,-0.69246 0.14551,-0.0896 0.30294,0.36245 0.34984,1.00407 0.0761,1.04038 -5.7e-4,1.14826 -0.7059,0.99943 -0.6975,-0.14718 -0.71758,-0.1201 -0.17311,0.22789 0.33955,0.21702 0.62962,0.82327 0.64492,1.3472 0.0153,0.52394 0.10777,0.75413 0.20567,0.5116 0.0979,-0.24254 0.40313,-0.4408 0.678,-0.4408 0.27487,0 0.49971,0.15365 0.49971,0.34158 0,0.18794 0.2221,0.2566 0.49351,0.15245 0.27142,-0.10415 0.60937,-0.002 0.75086,0.22686 0.1415,0.22895 0.093,0.51762 -0.10801,0.64182 -0.23537,0.14547 -0.095,0.81932 0.39533,1.89342 0.41864,0.9171 0.95997,1.67083 1.20251,1.67483 0.24253,0.004 0.4408,0.1313 0.4408,0.28216 0,0.15085 -0.24075,0.61778 -0.53485,1.03766 -0.48468,0.69198 -0.47627,0.80001 0.0884,1.15704 0.44488,0.28132 0.49684,0.44694 0.18191,0.57929 -0.24254,0.10192 -0.4408,0.50653 -0.4408,0.89917 0,0.47115 -0.17029,0.64854 -0.50023,0.52193 -0.27514,-0.10558 -0.60081,0.0719 -0.72451,0.39429 -0.13356,0.34805 0.009,0.75683 0.3514,1.00718 0.46017,0.33649 0.49683,0.56897 0.18294,1.15548 -0.21619,0.40396 -0.56297,0.73484 -0.7705,0.73484 -0.20753,0 -1.16861,0.39736 -2.13578,0.88315 -0.96717,0.48578 -1.9028,0.79389 -2.07946,0.68471 -0.17666,-0.10918 -0.32143,-0.0333 -0.32143,0.16847 0,0.20178 -0.39653,0.46633 -0.8816,0.58808 -0.48507,0.12174 -0.88212,0.36289 -0.88212,0.53588 0,0.173 -0.20954,0.31471 -0.4656,0.31471 -0.25605,0 -0.81072,0.39653 -1.23249,0.8816 -0.42176,0.48507 -0.95103,0.88212 -1.17615,0.88212 -0.22511,0 -1.01999,0.66127 -1.7663,1.46967 -0.90899,0.98461 -1.35651,1.79997 -1.35651,2.46962 0,0.59496 0.18932,0.99942 0.46767,0.99942 0.25722,0 0.84035,-0.39653 1.29605,-0.8816 0.4557,-0.48507 1.19774,-0.88211 1.64899,-0.88211 0.45125,0 0.82063,-0.16291 0.82063,-0.36174 0,-0.19883 0.35719,-0.49703 0.79375,-0.66301 0.43656,-0.16599 0.93807,-0.30664 1.11466,-0.31264 0.17658,-0.006 0.46249,-0.2626 0.6351,-0.57102 0.20116,-0.35946 0.7958,-0.56121 1.65726,-0.56121 1.06553,0 1.67608,-0.29196 2.94711,-1.41077 0.88171,-0.77611 1.74187,-1.41128 1.91151,-1.41128 0.16964,0 0.55914,-0.27798 0.86558,-0.61753 0.30644,-0.33955 0.89924,-0.895 1.31723,-1.23455 0.418,-0.33955 0.93413,-0.61754 1.1467,-0.61754 0.21257,0 0.30124,0.22263 0.19689,0.49455 -0.11335,0.29537 0.0883,0.56741 0.50126,0.67541 0.3802,0.0994 0.66774,0.31319 0.63924,0.47542 -0.0288,0.16223 -0.0305,0.45399 -0.005,0.64802 0.026,0.19403 0.20104,0.11431 0.38912,-0.17673 0.28788,-0.4454 0.34227,-0.42454 0.34727,0.12971 0.004,0.51407 0.20208,0.62055 0.90175,0.48679 0.72468,-0.13853 1.12114,0.10708 2.07326,1.28209 0.6476,0.79921 1.28956,1.81756 1.42627,2.26343 0.15141,0.49383 0.0677,1.02893 -0.21446,1.36891 -0.41074,0.49491 -0.33409,0.53298 0.67645,0.33589 0.62678,-0.12224 1.61571,-0.31441 2.1978,-0.42684 0.58207,-0.11243 1.05833,-0.41047 1.05833,-0.66249 0,-0.25201 -0.68937,-1.70762 -1.53169,-3.23495 -0.84231,-1.52733 -3.07245,-5.79351 -4.95577,-9.48004 -1.97512,-3.86621 -3.03516,-6.25456 -2.50527,-5.6441 0.50527,0.58208 1.29058,1.77271 1.74511,2.64583 0.45454,0.87313 1.31234,2.19679 1.90634,2.94143 0.594,0.74462 1.17102,1.64012 1.28209,1.99005 0.11677,0.36793 0.64322,0.70082 1.24851,0.78962 0.5806,0.0852 1.04644,-0.007 1.04644,-0.20826 0,-0.20708 0.18778,-0.17498 0.43822,0.0755 0.34837,0.34885 0.34776,0.49371 -0.003,0.71055 -0.32502,0.20087 -0.23142,0.45147 0.35605,0.9555 0.45899,0.3938 1.1847,0.63759 1.71359,0.57619 0.66063,-0.0767 1.07951,0.14076 1.49552,0.77567 0.32143,0.4906 0.47447,1.15035 0.3452,1.48724 -0.15766,0.41084 -0.0997,0.52344 0.18035,0.35037 0.227,-0.14029 0.41289,-0.0964 0.41289,0.0977 0,0.19403 -0.18058,0.46425 -0.40101,0.60048 -0.26632,0.1646 -0.11804,0.47762 0.44132,0.93327 0.46295,0.37718 0.60368,0.56676 0.31264,0.42117 -0.29104,-0.14558 -0.0646,0.17693 0.50385,0.71675 l 1.03353,0.98134 3.02358,-0.60565 c 1.66292,-0.33311 3.30158,-0.68001 3.64112,-0.77101 0.33955,-0.091 0.61702,-0.0151 0.61702,0.16846 0,0.18356 -0.4364,0.49869 -0.96997,0.70073 -0.53357,0.20205 -1.88187,0.63985 -2.99619,0.97255 -1.11432,0.33271 -2.29285,0.79972 -2.61897,1.03818 -0.53799,0.39339 -0.48933,0.53498 0.52659,1.52807 0.61582,0.60198 1.11982,1.24549 1.11982,1.42989 0,0.18439 0.16749,0.39121 0.37208,0.45941 0.2046,0.0682 0.43017,0.43867 0.50177,0.8232 0.0716,0.38453 0.14282,0.81825 0.15762,0.96377 0.0148,0.14549 0.22514,0.22471 0.46767,0.17621 0.24855,-0.0497 0.49015,0.33762 0.55345,0.8878 0.0617,0.53687 0.22612,0.90569 0.36536,0.81959 0.13925,-0.0861 0.27477,0.10982 0.30127,0.43512 0.0265,0.3253 0.12479,0.98822 0.21859,1.47329 0.0938,0.48507 0.34576,1.74411 0.55966,2.79776 0.2139,1.05367 0.60808,2.16509 0.87591,2.46962 0.26783,0.30453 0.59352,1.05632 0.72399,1.6707 0.13046,0.61438 0.46305,1.2036 0.73897,1.30948 0.28028,0.10754 0.40982,0.43228 0.29352,0.73536 -0.11451,0.29838 -0.0324,0.54208 0.18242,0.54208 0.21479,0 0.39067,0.155 0.39067,0.34417 0,0.18917 0.47625,1.38372 1.05834,2.65462 0.58208,1.2709 1.05833,2.87752 1.05833,3.57032 0,0.69281 0.22043,1.68124 0.48989,2.19625 0.26947,0.51501 0.906,2.20621 1.4149,3.75843 0.50892,1.55221 0.9234,3.31159 0.9214,3.90984 -0.002,0.59824 0.11492,1.20721 0.26044,1.35288 0.14552,0.14567 0.39777,-0.29797 0.56069,-0.98547 l 0.001,5.2e-4 c 0.17472,-0.73737 0.14902,-1.94141 -0.0631,-2.93574 -0.19774,-0.92709 -0.30493,-1.74042 -0.23823,-1.80712 0.0667,-0.0667 0.45213,0.0563 0.8568,0.27285 0.40467,0.21659 0.73587,0.24892 0.73587,0.0718 0,-0.1771 -0.24978,-0.52958 -0.555,-0.7829 -0.30522,-0.25331 -0.84081,-1.02668 -1.19011,-1.71876 -0.46042,-0.91225 -0.70307,-2.52054 -0.88315,-5.84822 -0.13662,-2.5245 -0.3796,-5.14387 -0.5395,-5.82083 -0.1885,-0.79823 -0.22099,-0.25016 -0.0925,1.55908 0.14687,2.068 0.0925,2.72428 -0.21084,2.53679 -0.22509,-0.13912 -0.40928,-0.69367 -0.40928,-1.23196 0,-0.5383 -0.10632,-1.08507 -0.23616,-1.21492 -0.12985,-0.12985 -0.29631,-0.8238 -0.37001,-1.54254 -0.0737,-0.71874 -0.27501,-1.47639 -0.447,-1.68362 -0.17199,-0.20723 -0.36825,-0.79186 -0.43615,-1.29914 -0.0679,-0.50728 -0.33009,-1.17136 -0.58239,-1.47536 -0.25227,-0.304 -0.34528,-0.73593 -0.20671,-0.96015 0.13858,-0.22422 0.0406,-0.53805 -0.21755,-0.69763 -0.2582,-0.15957 -0.49595,-0.73732 -0.52865,-1.28365 -0.0327,-0.54634 -0.0799,-1.18898 -0.10491,-1.42782 -0.025,-0.23884 -0.42876,-0.52996 -0.8971,-0.6475 -0.76617,-0.19229 -0.84092,-0.37509 -0.74362,-1.8185 0.0595,-0.88235 -0.11787,-2.1455 -0.39429,-2.80706 -0.27601,-0.66156 -0.40153,-1.36594 -0.27802,-1.56579 0.12352,-0.19985 -0.1371,-0.74887 -0.5793,-1.21957 -0.44217,-0.47071 -0.66758,-0.85576 -0.50074,-0.85576 0.16683,0 0.67077,0.345 1.11983,0.76688 0.44907,0.42188 0.81649,1.05705 0.81649,1.41128 0,0.35423 0.16194,0.64389 0.35966,0.64389 0.21315,0 0.26506,-0.39469 0.12764,-0.96997 -0.12747,-0.53357 -0.39821,-1.18082 -0.60151,-1.43815 -0.26176,-0.33132 -0.24647,-0.54354 0.0522,-0.72812 0.31642,-0.19556 0.24085,-0.78349 -0.30282,-2.35438 -0.60697,-1.75377 -0.6639,-2.33803 -0.35037,-3.59668 0.20586,-0.82644 0.73797,-2.33439 1.18236,-3.35122 0.65297,-1.4941 0.80385,-2.45808 0.78755,-5.02398 -0.0191,-3.00639 -0.10148,-3.34361 -1.55546,-6.35 -0.84454,-1.74625 -1.7716,-3.95535 -2.05982,-4.90926 -0.38315,-1.26812 -0.60902,-1.59988 -0.84026,-1.23455 -0.26378,0.41675 -0.31743,0.40687 -0.32143,-0.0594 -0.003,-0.30748 -0.48722,-0.98805 -1.0759,-1.51257 -0.58868,-0.52451 -1.22733,-0.85675 -1.41956,-0.73794 -0.19224,0.1188 -0.327,0.085 -0.2992,-0.0749 0.028,-0.15994 0.0318,-0.49842 0.009,-0.75241 -0.023,-0.25395 -0.1773,-0.37792 -0.34313,-0.27543 -0.16582,0.10248 -0.65753,-0.19281 -1.09295,-0.65629 -0.43542,-0.46349 -1.25249,-1.03342 -1.8154,-1.26659 -0.56292,-0.23317 -1.02319,-0.63776 -1.02319,-0.89917 0,-0.29943 -0.21867,-0.39183 -0.59066,-0.24908 -0.44195,0.16959 -0.53495,0.0828 -0.37052,-0.34572 0.14759,-0.38455 0.0662,-0.51396 -0.24702,-0.39377 -0.33645,0.12909 -0.41733,-0.0748 -0.29145,-0.73329 0.0959,-0.50192 0.50602,-1.14531 0.91157,-1.42937 l 0.73742,-0.51625 -0.81545,-0.62012 c -0.44845,-0.34094 -1.40068,-1.17557 -2.11667,-1.85466 -0.71599,-0.6791 -1.49634,-1.68277 -1.73374,-2.23088 -0.2374,-0.54811 -0.35648,-1.11836 -0.26458,-1.2671 0.0919,-0.14874 -0.36842,-0.79008 -1.0232,-1.42472 -0.65478,-0.63464 -1.32488,-1.07055 -1.48931,-0.96893 -0.16443,0.10162 -0.61506,-0.0608 -1.00098,-0.36071 -0.56841,-0.44177 -0.58436,-0.50464 -0.0842,-0.33227 0.33954,0.117 0.61754,0.15106 0.61754,0.076 0,-0.0751 -0.59532,-0.50502 -1.32292,-0.9555 -0.7276,-0.45047 -1.50945,-0.77672 -1.73736,-0.72502 -0.2279,0.0517 -0.53017,-0.0933 -0.6718,-0.32246 -0.17244,-0.27903 -0.10514,-0.3224 0.20413,-0.13126 0.29384,0.18162 0.37632,0.14728 0.22685,-0.0946 -0.12922,-0.20908 -0.70946,-0.4845 -1.28932,-0.61185 -0.57986,-0.12736 -1.0542,-0.38794 -1.0542,-0.5793 0,-0.19137 0.1645,-0.65513 0.36535,-1.03042 0.29542,-0.552 0.24488,-0.6938 -0.26458,-0.7426 -0.34638,-0.0332 -0.86807,-0.0958 -1.1591,-0.139 -0.29104,-0.0432 -0.72744,-0.0957 -0.96997,-0.11628 -0.24253,-0.0206 -0.4408,-0.18452 -0.4408,-0.36432 0,-0.1798 0.27747,-0.39964 0.61702,-0.48834 0.36501,-0.0954 0.20524,-0.17785 -0.39068,-0.20205 -0.74212,-0.0301 -0.95413,-0.18034 -0.8046,-0.56999 0.1116,-0.29104 0.11815,-0.52917 0.0145,-0.52917 -0.10368,0 -0.50877,0.17137 -0.9002,0.38086 -0.55797,0.2986 -0.8579,0.24877 -1.38803,-0.231 -0.37192,-0.33657 -0.67593,-0.75268 -0.67593,-0.92449 0,-0.17182 0.33434,-0.76486 0.74311,-1.31775 0.49405,-0.66824 0.76015,-1.59046 0.79375,-2.751252 0.04,-1.382469 0.16338,-1.717093 0.59272,-1.60507 0.40983,0.106931 0.5506,-0.169522 0.5762,-1.132231 0.0187,-0.700672 0.14062,-1.380339 0.27078,-1.510502 0.13017,-0.130163 0.36893,-0.02251 0.53072,0.239262 0.16178,0.261769 0.46404,0.370964 0.67127,0.242879 0.20728,-0.128086 0.29349,-0.45 0.19172,-0.715202 -0.10176,-0.265201 -0.008,-0.591623 0.20878,-0.725537 0.28499,-0.176154 0.27274,-0.389751 -0.045,-0.772562 -0.36718,-0.442415 -0.32707,-0.509755 0.24701,-0.409795 0.54525,0.09494 0.68383,-0.08016 0.67283,-0.850594 -0.008,-0.533576 0.11434,-0.969966 0.2713,-0.969966 0.15695,0 0.21628,-0.38099 0.13178,-0.846977 -0.0978,-0.5392 0.11911,-1.139873 0.59582,-1.651579 0.50064,-0.537369 0.60766,-0.851305 0.32298,-0.946195 -0.23428,-0.07809 -0.42581,-0.287229 -0.42581,-0.465088 0,-0.177859 0.23255,-0.323495 0.51676,-0.323495 0.28422,0 0.69951,-0.341651 0.92294,-0.759126 0.343,-0.640911 0.31984,-0.725984 -0.14727,-0.546737 -0.47839,0.183562 -0.4693,0.06271 0.0646,-0.892969 0.3396,-0.607875 0.80801,-1.168675 1.04128,-1.246435 0.271,-0.09034 0.34987,0.09204 0.21859,0.505395 -0.18824,0.592729 -0.15834,0.589781 0.35295,-0.03772 0.30688,-0.376632 0.55759,-0.824235 0.55759,-0.994254 0,-0.170022 -0.35719,-0.199465 -0.79375,-0.06563 -0.43655,0.133836 -0.99103,0.40115 -1.23248,0.594279 -0.31176,0.249375 -0.64066,0.108999 -1.13482,-0.484209 -0.3827,-0.45941 -0.70144,-0.954153 -0.70744,-1.099674 -0.006,-0.145521 0.22147,-0.264583 0.50642,-0.264583 0.33586,0 0.4394,-0.204242 0.29508,-0.580327 -0.1363,-0.355212 0.0311,-0.765586 0.43149,-1.058333 0.36791,-0.269025 0.46104,-0.478007 0.21291,-0.478007 -0.24284,0 -0.35333,-0.142047 -0.24598,-0.315743 0.10735,-0.173697 -0.0325,-0.40334 -0.31057,-0.510046 -0.37613,-0.144328 -0.48137,-0.731829 -0.41187,-2.293917 l 0.093,-2.099614 -1.26142,-0.208772 c -0.69379,-0.11478 -4.05853,-0.210291 -7.47758,-0.212391 z m -5.02657,0.35295 c -0.15496,0 -0.39145,0.277468 -0.52555,0.617017 -0.13409,0.339549 -0.38661,2.046285 -0.56172,3.792533 -0.17511,1.746249 -0.55742,6.349833 -0.84956,10.230384 -0.29214,3.880552 -0.53334,7.174962 -0.53434,7.320483 -0.001,0.145521 -0.26794,0.264583 -0.59221,0.264583 -0.32427,0 -0.8735,0.256906 -1.2206,0.571025 -0.6033,0.54598 -0.59141,0.622812 0.26304,1.743046 0.5133,0.672978 1.29534,1.233203 1.83761,1.316203 0.51933,0.0794 1.15066,0.1683 1.40301,0.1974 0.3473,0.04 0.45299,-0.69733 0.43409,-3.033924 -0.0137,-1.697741 0.0598,-6.023856 0.16329,-9.613366 0.10348,-3.589511 0.2505,-8.074031 0.3266,-9.9658 0.0761,-1.891769 0.0113,-3.439584 -0.14366,-3.439584 z M 54.601318,112.64119 c 0.127946,-0.0435 0.262111,-0.0366 0.371554,0.031 0.218876,0.13528 0.313667,0.38263 0.210323,0.54984 -0.103344,0.16721 -0.04325,0.39388 0.133842,0.50333 0.177098,0.10945 0.655867,0.83959 1.064018,1.62264 0.40815,0.78305 0.742073,1.57773 0.742073,1.76578 0,0.18805 -0.232412,0.34158 -0.516764,0.34158 -0.284352,0 -0.998728,-0.47091 -1.5875,-1.04644 -0.690415,-0.6749 -1.068551,-1.39495 -1.065051,-2.0283 0.003,-0.54012 0.143795,-1.20074 0.313159,-1.46813 0.08468,-0.13371 0.206401,-0.22777 0.334346,-0.2713 z m 66.291562,7.63674 c 0.14822,0 0.65546,0.62464 1.12758,1.38855 0.47213,0.7639 0.94643,1.33495 1.05368,1.26865 0.10727,-0.0663 0.18005,0.37205 0.16175,0.9741 -0.0183,0.60205 -0.20502,1.15183 -0.41445,1.22163 -0.20942,0.0698 -0.78948,-0.57129 -1.28932,-1.4242 -0.49984,-0.85291 -0.90899,-1.97324 -0.90899,-2.48977 0,-0.51653 0.12152,-0.93896 0.26975,-0.93896 z m 10.04331,0.76378 c 0.0605,3.2e-4 0.11314,0.0196 0.15348,0.0599 0.16138,0.16138 0.29352,1.06034 0.29352,1.99781 0,1.17466 -0.11817,1.60681 -0.3793,1.3901 -0.25827,-0.21439 -0.37023,0.0767 -0.35243,0.91467 0.0162,0.76413 0.17751,1.17132 0.42684,1.07642 0.24634,-0.0938 0.33285,0.10892 0.22376,0.52607 -0.0977,0.37354 -0.21915,0.67954 -0.26975,0.67954 -0.0506,0 -0.2917,-0.24021 -0.53537,-0.53381 -0.24367,-0.29361 -0.61999,-0.49727 -0.83664,-0.45217 -0.21665,0.0451 -0.81396,-0.19806 -1.32705,-0.54054 -0.62172,-0.415 -0.87566,-0.8418 -0.76119,-1.27951 0.0945,-0.36123 0.51465,-0.76789 0.93327,-0.90382 0.41863,-0.13591 0.88026,-0.22977 1.02578,-0.20877 0.14552,0.021 0.26458,-0.32872 0.26458,-0.7767 0,-0.44799 0.22505,-1.12229 0.50023,-1.49861 0.20638,-0.28224 0.45883,-0.4516 0.64027,-0.45062 z m 7.15409,7.16907 c 0.0175,-0.0298 0.0358,-0.0216 0.0543,0.0305 0.074,0.20821 0.57657,0.31381 1.11621,0.23461 0.66279,-0.0973 1.54715,0.20514 2.72542,0.93276 0.95933,0.59242 2.29953,1.38522 2.97862,1.76165 0.67909,0.37644 1.65347,1.13589 2.16525,1.68723 0.51177,0.55135 1.0488,1.39157 1.19321,1.86759 0.24732,0.81525 0.22755,0.8306 -0.33848,0.26458 -0.3305,-0.3305 -0.90687,-0.60099 -1.28106,-0.60099 -0.3742,0 -0.68058,-0.13651 -0.68058,-0.30386 0,-0.16732 -0.38991,-0.26159 -0.86662,-0.20929 -0.47671,0.0523 -1.51433,-0.096 -2.3058,-0.3297 -0.79148,-0.2337 -1.3275,-0.53646 -1.19114,-0.67282 0.13635,-0.13635 -0.003,-0.24805 -0.31058,-0.24805 -0.3072,0 -0.61424,-0.16797 -0.68264,-0.3731 -0.0684,-0.2051 -0.40611,-0.2649 -0.75034,-0.13281 -0.58083,0.22287 -0.58454,0.28631 -0.0491,0.87798 0.31736,0.35068 0.87148,0.61518 1.23145,0.58808 0.35998,-0.0271 1.57584,0.36929 2.70165,0.88056 1.12581,0.51126 2.32489,1.01562 2.66443,1.12087 0.33955,0.10525 0.61702,0.33083 0.61702,0.50126 0,0.17043 -0.31733,0.67601 -0.70538,1.12344 -0.38806,0.44739 -0.70539,0.63246 -0.70539,0.41135 0,-0.22111 -0.57218,-0.6412 -1.27124,-0.93328 -0.69904,-0.29209 -1.73076,-0.56595 -2.29288,-0.60875 -0.56213,-0.0428 -1.02216,-0.19173 -1.02216,-0.33073 0,-0.139 -0.87049,-0.43338 -1.93425,-0.65422 -1.06377,-0.22084 -2.02548,-0.54973 -2.13733,-0.7307 -0.11185,-0.18097 -0.58908,-0.32867 -1.0604,-0.32867 -0.67563,0 -0.83938,0.16556 -0.77308,0.78393 0.0462,0.43138 -0.0747,0.79144 -0.26872,0.79944 -0.19403,0.008 -0.55122,0.14055 -0.79375,0.29455 -0.28394,0.18029 -0.4408,0.0844 -0.4408,-0.26975 0,-0.30249 -0.27799,-0.54767 -0.61754,-0.54467 -0.52759,0.005 -0.54006,0.055 -0.0879,0.34727 0.35479,0.2293 0.38335,0.34378 0.0868,0.34778 -0.24324,0.003 -1.03452,-0.31215 -1.75855,-0.70021 l -1.31671,-0.7059 1.75855,-0.0269 c 0.96726,-0.0148 2.03694,-0.0802 2.3766,-0.14521 0.33965,-0.065 1.13323,-0.54856 1.76371,-1.07487 0.63047,-0.52631 1.27318,-1.17533 1.42834,-1.44229 0.15516,-0.26694 0.63141,-0.50408 1.05833,-0.52658 0.56155,-0.0296 0.6118,-0.0843 0.18139,-0.19792 -0.4446,-0.11734 -0.58779,-0.53022 -0.56689,-1.63452 0.0115,-0.60957 0.0555,-1.04029 0.108,-1.12965 z m 0.70642,7.75973 c 0.11177,-0.0195 0.26585,-0.0145 0.43563,0.0196 0.33955,0.0682 1.45098,0.30722 2.46961,0.53123 1.15857,0.25478 1.85209,0.59223 1.85209,0.90124 0,0.27169 0.35718,0.52334 0.79375,0.55914 0.43656,0.0358 1.19028,0.0835 1.67535,0.10594 0.60114,0.0277 0.94129,-0.18122 1.06815,-0.6563 0.10237,-0.38333 0.367,-0.75725 0.58808,-0.83095 0.29204,-0.0973 0.36017,1.10127 0.24908,4.38319 -0.0841,2.48465 -0.15998,4.79554 -0.16898,5.13509 -0.009,0.33955 -0.17036,0.61753 -0.35915,0.61753 -0.21109,0 -0.19807,0.27158 0.0341,0.70539 0.20771,0.38805 0.29974,0.70538 0.20464,0.70538 -0.0951,0 -1.41036,-1.21923 -2.92282,-2.70991 -1.51246,-1.49069 -2.71035,-2.84024 -2.66185,-2.99879 0.0485,-0.15856 -0.0609,-0.28835 -0.2434,-0.28835 -0.18252,0 -0.12524,-0.39775 0.12713,-0.88418 0.2524,-0.48644 0.38582,-1.26619 0.29662,-1.73271 -0.0991,-0.51815 -0.83474,-1.3068 -1.89032,-2.02624 -0.95043,-0.64776 -1.72821,-1.28185 -1.72858,-1.40921 -1.9e-4,-0.0637 0.0691,-0.10764 0.18087,-0.12713 z m -0.33435,25.00623 c -0.50676,0.0344 -1.38959,0.39094 -2.81016,1.12189 -2.09639,1.07867 -2.53774,1.43182 -2.02469,1.62161 0.36085,0.13349 0.75467,0.50032 0.8754,0.81494 0.13083,0.34094 0.008,0.65342 -0.30386,0.77308 -0.28777,0.11043 -0.52296,0.31718 -0.52296,0.45992 0,0.14318 1.69274,0.20616 3.76153,0.14056 2.06879,-0.0657 3.83934,-0.19771 3.93464,-0.29301 0.0953,-0.0953 -0.31704,-1.08785 -0.91622,-2.20607 -0.59918,-1.11822 -1.32183,-2.18135 -1.60611,-2.36213 -0.0913,-0.0581 -0.21865,-0.0823 -0.38757,-0.0708 z m 3.85661,5.44876 -2.00556,0.20154 c -1.10321,0.11104 -2.93758,0.46115 -4.07624,0.77773 -1.73815,0.48325 -2.14765,0.75348 -2.55126,1.68362 -0.2644,0.60933 -1.15154,1.98072 -1.97146,3.04787 -0.81992,1.06715 -1.59639,2.2944 -1.72599,2.72697 -0.1296,0.43256 -0.70251,1.06201 -1.27279,1.39888 -0.57027,0.33688 -1.03663,0.89556 -1.03663,1.24178 0,0.34622 -0.23813,0.62994 -0.52917,0.62994 -0.29104,0 -0.52917,0.21243 -0.52917,0.47232 0,0.2599 -0.39414,0.652 -0.87539,0.87127 -0.57101,0.26018 -0.80287,0.58609 -0.66766,0.93844 0.12452,0.32449 0.0125,0.54002 -0.28112,0.54002 -0.26868,0 -0.73605,0.27798 -1.0387,0.61753 -0.30264,0.33955 -0.93339,0.93871 -1.40146,1.3317 -0.46808,0.393 -1.3816,0.93407 -2.02985,1.20252 -0.64825,0.26844 -1.28368,0.77261 -1.41232,1.12034 -0.12864,0.34774 -1.07764,1.26196 -2.10892,2.0314 -1.10808,0.82674 -2.62304,1.57418 -3.70313,1.8278 -1.00522,0.23604 -2.10092,0.71427 -2.43499,1.06246 -0.5337,0.55625 -1.2664,0.63167 -6.03994,0.62167 -3.25497,-0.007 -5.71973,0.14262 -6.148467,0.37207 -0.568419,0.30421 -0.759724,0.26726 -0.930692,-0.17828 -0.156226,-0.40715 -0.552794,-0.52136 -1.446423,-0.41703 -0.677129,0.079 -1.230933,0.0171 -1.230933,-0.13798 0,-0.15507 -0.168142,-0.28215 -0.373621,-0.28215 -0.205478,0 -0.275461,0.15892 -0.155546,0.35295 0.119916,0.19402 -0.03901,0.35295 -0.35295,0.35295 -0.362758,0 -0.474289,-0.16107 -0.305924,-0.44132 0.21159,-0.35246 0.155456,-0.35287 -0.278019,-0.002 -0.316008,0.25572 -1.158483,0.37984 -2.016932,0.29714 -0.810913,-0.0781 -2.838405,-0.8174 -4.505668,-1.64332 l -3.031339,-1.50171 -1.567346,0.85163 c -0.862009,0.46841 -1.78013,1.08975 -2.040186,1.38079 -0.399448,0.44704 -0.286749,1.07524 0.727087,4.0473 0.660049,1.93493 1.200444,4.03819 1.200444,4.67413 0,0.69573 0.175463,1.15215 0.4408,1.14515 0.242535,-0.006 0.73428,-0.41357 1.092956,-0.90589 0.358676,-0.49232 0.680879,-1.08288 0.715719,-1.31206 0.03484,-0.22919 0.191994,-0.62292 0.349333,-0.87488 0.219323,-0.35119 0.401398,-0.36254 0.780314,-0.0481 0.393406,0.3265 0.553913,0.24865 0.787549,-0.38293 0.280723,-0.75886 0.319567,-0.73938 0.885734,0.45372 0.325577,0.6861 0.591695,1.38955 0.591695,1.56322 0,0.17367 0.952501,1.55848 2.116667,3.07681 l 2.116666,2.76056 0.0016,4.80745 c 7.87e-4,2.64431 0.104823,6.83204 0.230993,9.3059 l 0.229444,4.49791 h 7.374743 v 5.2e-4 c 4.646852,0 7.296432,-0.1261 7.163902,-0.34055 -0.11569,-0.18718 -0.4266,-1.06048 -0.69143,-1.94045 -0.26482,-0.87997 -0.35862,-1.5999 -0.20825,-1.5999 0.15037,0 1.33875,0.8733 2.64066,1.94045 l 2.36678,1.94045 h 11.8675 11.86749 l 1.31723,-1.49965 1.31723,-1.49913 -0.30954,1.13481 c -0.1702,0.62427 -0.41103,1.2993 -0.53485,1.49965 -0.1527,0.24707 2.84459,0.36432 9.31623,0.36432 h 9.54153 l -0.66094,-1.49965 c -0.36346,-0.82462 -1.30961,-3.48334 -2.1022,-5.90868 -0.79259,-2.42535 -1.85184,-6.12122 -2.35386,-8.21294 l -0.9126,-3.80338 1.12396,-2.01745 c 0.61812,-1.10973 1.49227,-2.7539 1.94252,-3.65353 0.47137,-0.94183 0.99096,-2.93261 1.22524,-4.69325 0.22384,-1.68175 0.29902,-3.63412 0.16692,-4.33824 -0.13209,-0.70412 -0.78118,-2.35417 -1.44229,-3.66696 -0.66111,-1.31277 -1.88233,-3.54591 -2.71405,-4.96248 -0.83171,-1.41656 -2.8579,-5.01145 -4.50256,-7.98866 z m -33.39021,4.50257 c -0.16755,-0.0169 -0.27092,0.12228 -0.41289,0.38395 -0.19325,0.3562 -0.80255,1.16926 -1.35393,1.80661 -0.55139,0.63734 -1.00252,1.55791 -1.00252,2.04587 0,0.48795 0.23498,1.34109 0.52193,1.89601 0.28696,0.55492 0.72336,1.09039 0.96997,1.18959 0.24662,0.0992 0.92481,0.18084 1.50688,0.18139 0.58208,5.6e-4 1.60105,-0.19531 2.26447,-0.43512 0.66343,-0.2398 1.43497,-0.7803 1.71462,-1.20148 0.46975,-0.70747 0.44079,-0.79182 -0.37982,-1.10381 -0.60239,-0.22902 -0.97039,-0.71343 -1.1436,-1.50533 -0.14047,-0.64223 -0.81611,-1.69732 -1.5012,-2.34456 -0.64708,-0.61134 -0.96849,-0.89136 -1.18391,-0.91312 z m -8.51369,4.86017 c -0.435052,-0.005 -0.706564,0.17886 -1.174606,0.61856 -0.463275,0.43523 -0.842326,1.12994 -0.842326,1.5441 0,0.41416 0.233444,1.06152 0.518315,1.43815 0.284871,0.37664 0.522967,0.95478 0.529167,1.28468 0.0062,0.32991 0.28884,0.76134 0.62838,0.95911 0.33955,0.19776 0.8404,0.36452 1.11312,0.37052 0.27273,0.006 1.02695,-0.3944 1.67586,-0.88935 0.79309,-0.60492 1.17977,-1.19434 1.17977,-1.79782 0,-0.49377 -0.27476,-1.36211 -0.61029,-1.93012 -0.4056,-0.68663 -1.069,-1.15674 -1.97973,-1.40198 -0.4567,-0.12297 -0.77663,-0.19316 -1.03766,-0.19585 z m 4.13515,0.22841 c -0.43477,0 -0.45845,0.1388 -0.12868,0.75499 0.22215,0.4151 0.54013,1.22885 0.70642,1.80867 0.19068,0.66481 0.16117,1.3175 -0.0796,1.76734 -0.20997,0.39233 -1.02388,1.32466 -1.80919,2.07171 -0.78532,0.74705 -1.56096,1.35857 -1.72341,1.35857 -0.16245,0 -0.29508,0.17561 -0.29508,0.39067 0,0.24097 0.33819,0.30641 0.8816,0.17002 0.50858,-0.12765 0.88212,-0.0693 0.88212,0.13798 0,0.19772 0.12355,0.35966 0.2744,0.35966 0.15086,0 0.65509,-0.26699 1.12087,-0.59324 0.46576,-0.32624 2.10331,-1.20088 3.63905,-1.94355 1.53573,-0.74266 3.49697,-1.52769 4.35839,-1.7446 0.89448,-0.22523 1.72397,-0.6886 1.93373,-1.08055 0.3446,-0.64389 0.27306,-0.67279 -1.15807,-0.46302 -0.83895,0.12297 -2.436,0.25382 -3.54913,0.29042 -1.23936,0.0407 -2.09015,0.23742 -2.19419,0.50746 -0.0934,0.24253 -0.4129,0.4408 -0.71003,0.4408 -0.29713,0 -0.54002,-0.16368 -0.54002,-0.3638 0,-0.20012 0.26052,-0.46388 0.57878,-0.58601 0.50622,-0.19426 0.51307,-0.27003 0.0543,-0.60617 -0.28844,-0.21133 -0.79141,-0.90006 -1.11725,-1.53065 -0.32584,-0.63059 -0.83211,-1.1467 -1.12499,-1.1467 z m 7.11791,7.05538 c -1.26077,0 -1.65396,0.16332 -2.12494,0.88212 -0.31783,0.48507 -0.82,0.88211 -1.11621,0.88211 -0.2962,0 -1.00731,0.24192 -1.57975,0.53795 -0.57244,0.29602 -1.04076,0.7408 -1.04076,0.98806 0,0.24725 0.19039,0.63998 0.42323,0.87281 0.23283,0.23283 1.06628,0.42217 1.85208,0.42117 0.78581,-0.001 2.04191,-0.17182 2.79105,-0.37983 0.74914,-0.20801 1.90287,-0.91895 2.56367,-1.57974 l 1.20147,-1.20148 -0.71158,-0.71159 c -0.49707,-0.49707 -1.17744,-0.71158 -2.25826,-0.71158 z m -31.970659,1.12603 c -0.157957,-1.3e-4 -0.328651,0.0282 -0.5271,0.078 -0.859341,0.21568 -0.945988,0.3681 -0.778247,1.37149 0.103801,0.62092 0.361531,1.57567 0.572575,2.12184 l 0.383439,0.99322 1.403532,-0.99322 c 0.771982,-0.54617 1.407184,-1.12088 1.411284,-1.27693 0.0041,-0.15604 -0.450046,-0.77315 -1.009241,-1.37149 -0.626048,-0.66984 -0.982373,-0.92256 -1.456242,-0.92294 z" /><path
         id="path65"
         style="fill:#1a1a1a;fill-opacity:1"
         d="m 142.64917,86.832943 c -0.0889,0.0035 -0.15348,0.215315 -0.15348,0.540018 0,0.399635 -0.24955,0.822144 -0.55397,0.938961 -0.34312,0.131639 -0.47631,0.454899 -0.35088,0.850078 0.1113,0.350681 -0.0447,0.94659 -0.34675,1.324466 -0.5299,0.663043 -0.54076,0.657024 -0.31109,-0.168465 0.20177,-0.725199 0.0596,-0.651935 -0.93431,0.480074 -0.64478,0.734368 -1.20262,1.773029 -1.23972,2.308387 -0.0371,0.535358 -0.36232,1.424685 -0.72295,1.976106 -0.36063,0.551423 -0.45934,0.881334 -0.21911,0.733289 0.24023,-0.148045 0.86534,-1.014894 1.38906,-1.926497 0.52372,-0.911604 1.4053,-2.186416 1.95906,-2.832902 0.70586,-0.823989 0.93862,-1.3907 0.77824,-1.896009 -0.14941,-0.470735 -0.0969,-0.639738 0.15142,-0.486275 0.21987,0.13589 0.47678,-0.149637 0.60926,-0.677478 0.12596,-0.502041 0.13065,-1.011398 0.0103,-1.131714 -0.0226,-0.02256 -0.0446,-0.03284 -0.0651,-0.03204 z m -37.34294,6.671427 c -0.005,3.42e-4 -0.0109,0.0031 -0.0165,0.0088 -0.0903,0.09033 -0.24182,0.788247 -0.33642,1.55081 -0.0946,0.762563 -0.44929,1.589522 -0.78858,1.837614 -0.41462,0.303174 -1.17221,0.377268 -2.30994,0.226343 -1.06393,-0.141137 -1.6924,-0.09066 -1.6924,0.135909 0,0.198264 0.25554,0.458708 0.56844,0.578776 0.43454,0.166749 0.47522,0.331343 0.17208,0.696598 -0.29744,0.358417 -0.28029,0.574884 0.0687,0.864547 0.25611,0.21255 1.09181,0.612153 1.85674,0.887793 0.76493,0.27565 1.45516,0.51949 1.53376,0.54209 0.0786,0.0226 -0.12021,-0.24875 -0.44132,-0.60357 -0.32111,-0.354834 -0.58343,-0.926259 -0.58343,-1.269697 0,-0.343439 0.47626,-1.069591 1.05833,-1.613338 0.856,-0.79962 1.05834,-1.276317 1.05834,-2.493388 0,-0.775891 -0.0653,-1.354397 -0.1478,-1.349272 z m -6.580473,10.89856 c -0.762251,0 -1.385962,0.0638 -1.385962,0.14159 0,0.0778 0.575813,0.48088 1.279508,0.89607 0.703695,0.41519 1.457927,0.6941 1.675867,0.6196 0.21793,-0.0745 1.03101,0.26213 1.80712,0.74776 0.77611,0.48563 2.01921,1.57051 2.76211,2.41122 1.03442,1.17058 1.48843,1.45745 1.93993,1.22473 0.32425,-0.16713 1.17936,-0.41046 1.90015,-0.54053 0.7208,-0.13007 1.38821,-0.36173 1.48311,-0.51521 0.0948,-0.15348 -0.67866,-1.11946 -1.71876,-2.14664 l -1.89084,-1.86759 -2.76676,-0.0408 c -1.6917,-0.025 -2.94837,-0.21387 -3.23339,-0.48576 -0.25639,-0.24459 -1.089832,-0.44442 -1.852083,-0.44442 z m -12.820406,1.91668 c -1.113202,-0.006 -1.630823,0.15674 -2.507341,0.55604 -0.847829,0.38623 -1.843377,0.70228 -2.212268,0.70228 -0.368889,0 -1.181337,0.25419 -1.805058,0.56534 -0.62372,0.31115 -2.297951,0.74805 -3.720703,0.97048 -2.396577,0.37466 -2.725593,0.53544 -4.476212,2.18902 -1.039273,0.98167 -3.04984,3.12176 -4.467945,4.75578 -1.418105,1.63403 -3.049546,3.76801 -3.625101,4.74183 -0.575556,0.97383 -1.299892,2.12762 -1.609721,2.56418 -0.362676,0.51103 -0.418143,0.79375 -0.155546,0.79375 0.224334,0 1.394843,-1.07167 2.600875,-2.38125 1.206031,-1.30958 2.986726,-3.14499 3.956864,-4.07882 1.393882,-1.34173 1.963167,-1.66953 2.71508,-1.56321 0.523328,0.074 0.877995,0.0153 0.788065,-0.13022 -0.08993,-0.14552 -0.01588,-0.35526 0.164331,-0.46664 0.180213,-0.11137 0.28359,0.1972 0.229961,0.68574 -0.06605,0.60168 -1.364737,2.10993 -4.025595,4.67569 -2.160494,2.08329 -4.484198,4.58104 -5.163509,5.55056 -0.679311,0.96952 -1.235066,1.88209 -1.235066,2.02779 0,0.14569 -0.555454,1.03809 -1.23455,1.98334 -0.679097,0.94526 -1.23455,1.91161 -1.23455,2.14715 0,0.23555 -0.487131,1.64417 -1.082105,3.13004 -0.594974,1.48588 -1.14268,3.53602 -1.21698,4.55632 -0.122119,1.67699 -0.06552,1.85518 0.586011,1.85518 0.424031,0 0.7963,-0.29027 0.904854,-0.70538 0.101479,-0.38805 0.466412,-0.7059 0.810803,-0.7059 0.383286,0 0.717182,-0.36261 0.86093,-0.93535 0.129162,-0.51462 0.669822,-1.34806 1.201477,-1.85208 0.531655,-0.50403 1.175308,-1.4289 1.430404,-2.05517 0.255095,-0.62628 1.5973,-2.13716 2.982246,-3.35742 1.384948,-1.22025 3.301402,-2.85123 4.259172,-3.62407 0.957769,-0.77284 2.407605,-1.88133 3.221509,-2.46341 0.813904,-0.58209 2.340426,-1.71457 3.392558,-2.51716 1.052133,-0.80259 2.934457,-1.9749 4.18269,-2.60501 1.248233,-0.63011 3.292875,-1.53106 4.543909,-2.00195 1.251032,-0.47089 3.078943,-1.02147 4.061767,-1.22369 0.982825,-0.20223 4.300381,-0.34336 7.372677,-0.31316 3.809446,0.0374 5.743856,-0.0756 6.081796,-0.35605 0.27255,-0.22619 0.41194,-0.54693 0.30954,-0.71262 -0.10239,-0.1657 -0.65637,-0.20741 -1.23093,-0.0925 -0.96358,0.19272 -1.04496,0.13039 -1.04696,-0.80512 -0.002,-0.7562 -0.27093,-1.16735 -1.058335,-1.61541 -0.580857,-0.33053 -1.056267,-0.76133 -1.056267,-0.95756 0,-0.19622 0.317845,-0.52664 0.7059,-0.73432 0.563138,-0.30139 0.705384,-0.26845 0.705384,0.16381 0,0.29787 0.227438,0.54157 0.505398,0.54157 0.27797,0 0.60984,-0.32875 0.73742,-0.73071 0.14562,-0.4588 0.0148,-0.97049 -0.35088,-1.37459 -0.42775,-0.47266 -0.46618,-0.68244 -0.1447,-0.78961 0.24075,-0.0803 0.34469,-0.38915 0.23048,-0.68678 -0.11421,-0.29764 -1.135228,-0.86515 -2.268596,-1.26091 -1.133367,-0.39576 -2.933637,-0.90712 -4.000789,-1.13636 -1.067152,-0.22923 -3.658892,-0.56354 -5.759338,-0.74311 -1.302913,-0.11139 -2.185135,-0.17649 -2.853056,-0.18035 z m 41.588679,3.08922 c -0.0712,0.0712 -0.0192,0.30229 0.11575,0.51314 0.13497,0.21085 0.88063,0.71355 1.65675,1.11725 0.77611,0.40369 2.20486,1.34376 3.175,2.08928 0.97013,0.74552 2.08104,1.8708 2.4691,2.5001 0.38806,0.62929 1.02702,1.65138 1.42007,2.2717 0.39304,0.62032 1.38539,1.5786 2.20503,2.12907 0.81963,0.55047 1.49035,1.21745 1.49035,1.48259 0,0.26515 -0.3027,0.5781 -0.67283,0.69557 -0.37013,0.11748 -0.75582,0.42933 -0.85679,0.69246 -0.11041,0.28773 0.5323,1.02059 1.6123,1.83865 0.98767,0.74813 2.97674,2.52615 4.4204,3.9517 1.63824,1.61766 2.50037,2.71688 2.2934,2.92385 -0.20697,0.20697 -0.68841,0.19619 -1.28054,-0.0289 -0.52181,-0.19839 -1.90821,-0.99819 -3.08095,-1.77715 -1.17275,-0.77895 -2.34614,-1.41645 -2.60759,-1.41645 -0.26146,0 -0.72662,0.0967 -1.03353,0.21445 -0.33091,0.12698 -0.55759,0.62934 -0.55759,1.23455 0,0.61116 0.18672,1.02061 0.46612,1.02061 0.25661,0 1.93453,0.71438 3.72846,1.5875 1.79393,0.87313 3.48326,1.5875 3.75429,1.5875 0.27103,0 1.05084,0.48962 1.73271,1.08831 0.68186,0.59868 1.75907,2.14492 2.39365,3.43596 1.05258,2.1416 1.14876,2.61216 1.09916,5.36815 -0.0427,2.37323 -0.25053,3.48729 -0.96997,5.19658 -0.50365,1.19664 -0.9157,2.38672 -0.9157,2.6448 0,0.25809 -0.18839,0.65763 -0.41858,0.88781 -0.32284,0.32284 -0.56479,0.28645 -1.05833,-0.1602 -0.3519,-0.31846 -0.63976,-0.94191 -0.63976,-1.38545 0,-0.44355 -0.17132,-0.9121 -0.38034,-1.04128 -0.26398,-0.16315 -0.30403,0.28837 -0.13126,1.47847 0.13681,0.94234 0.41121,2.03039 0.60927,2.41845 0.19805,0.38805 0.73329,1.15473 1.18959,1.70326 0.4563,0.54853 0.93126,1.42131 1.05575,1.93993 0.12449,0.51862 0.50246,1.49855 0.83974,2.17765 0.33727,0.6791 0.72966,1.94944 0.8723,2.82256 0.14265,0.87313 0.35902,1.74591 0.48059,1.93994 0.12156,0.19403 0.42937,0.9084 0.68368,1.5875 0.25431,0.6791 0.75891,2.10785 1.12138,3.175 0.36247,1.06715 0.78674,2.73402 0.94309,3.70416 0.1941,1.2044 0.3201,1.47857 0.3974,0.86352 0.0623,-0.49542 -0.11815,-1.92418 -0.40101,-3.175 -0.28287,-1.25083 -0.75067,-3.22678 -1.03973,-4.39095 -0.28906,-1.16417 -0.76777,-2.95932 -1.0635,-3.9889 -0.29572,-1.02959 -0.68692,-2.06129 -0.86972,-2.29289 -0.1828,-0.23159 -0.76324,-1.73024 -1.28984,-3.33003 -0.6842,-2.07848 -0.88734,-3.2361 -0.7121,-4.0566 0.13489,-0.63153 0.64507,-2.10074 1.13378,-3.26491 0.72306,-1.72241 0.89616,-2.74333 0.92966,-5.47977 0.0407,-3.32665 0.0233,-3.39835 -1.60714,-6.70244 -0.90651,-1.83698 -1.75836,-3.73689 -1.89291,-4.22196 -0.13454,-0.48507 -0.89097,-2.13545 -1.68103,-3.66748 -0.79005,-1.53203 -1.84321,-3.26637 -2.34043,-3.85403 -0.49722,-0.58765 -1.45979,-1.90042 -2.13889,-2.91713 -0.67908,-1.01672 -2.23262,-2.59419 -3.4525,-3.50573 -1.29066,-0.96442 -2.50559,-2.2211 -2.90576,-3.0055 -0.43213,-0.84705 -1.64029,-2.04635 -3.25045,-3.22771 -1.40931,-1.034 -3.09037,-2.24947 -3.73621,-2.70061 -0.64584,-0.45115 -1.23259,-0.76211 -1.30379,-0.69091 z m -5.42655,3.8132 c -0.17585,0 -0.23686,0.31784 -0.13539,0.7059 0.14159,0.54144 0.0108,0.70538 -0.56224,0.70538 -0.41069,0 -0.74672,-0.17806 -0.74672,-0.39584 0,-0.26875 -0.17486,-0.25118 -0.54415,0.0553 -0.37749,0.31329 -0.43134,0.56446 -0.17622,0.81958 0.20225,0.20225 0.36793,0.49487 0.36793,0.65009 0,0.15522 -0.30869,0.28216 -0.68574,0.28216 -0.37705,0 -0.90728,-0.3165 -1.17822,-0.70332 -0.27094,-0.38682 -0.57666,-0.61915 -0.67955,-0.51625 -0.1029,0.10289 -0.99526,-0.13164 -1.98282,-0.5209 -0.98756,-0.38895 -1.88288,-0.56636 -1.98955,-0.39377 -0.10666,0.17258 0.2259,0.64389 0.73898,1.04748 0.51309,0.40359 1.18937,0.75158 1.50275,0.77308 0.31338,0.0215 0.92393,0.0101 1.35702,-0.0248 0.43309,-0.0349 1.1435,0.18594 1.5782,0.49041 0.4347,0.30446 0.99288,0.55345 1.24075,0.55345 0.24787,0 0.45062,-0.15971 0.45062,-0.35502 0,-0.19531 0.39705,-0.70013 0.88211,-1.12189 0.48507,-0.42177 0.88212,-1.05564 0.88212,-1.4087 0,-0.35307 -0.14402,-0.64234 -0.31988,-0.64234 z m 6.62286,0.0687 c -0.49744,-9e-5 -1.07803,0.0146 -1.76527,0.0419 -2.52997,0.10042 -3.64097,0.28219 -3.86281,0.63252 -0.17128,0.27049 -0.31378,0.63338 -0.31678,0.80615 -0.003,0.17278 -0.32977,0.96636 -0.72605,1.76372 l -0.72037,1.44952 2.4939,4.93562 c 1.3718,2.71459 2.34292,4.98615 2.15801,5.04775 -0.18491,0.0616 -1.02279,-0.23643 -1.8619,-0.66249 -0.83912,-0.42606 -1.91194,-1.07638 -2.38435,-1.44539 -0.47242,-0.369 -1.15484,-1.15713 -1.51619,-1.75132 -0.36135,-0.59418 -0.74912,-2.06897 -0.86196,-3.27732 -0.18747,-2.00758 -0.29132,-2.2298 -1.20458,-2.57452 -0.78217,-0.29524 -1.0899,-0.2681 -1.4149,0.12351 -0.32117,0.38698 -0.28297,1.03617 0.16846,2.86546 0.32104,1.30094 0.95576,2.92748 1.41025,3.61425 0.45448,0.68677 1.61462,2.11938 2.57814,3.18378 0.96352,1.06439 2.41961,2.84793 3.23598,3.96359 1.4476,1.97824 1.52577,2.02834 3.14916,2.01744 1.52104,-0.0102 1.60668,-0.0546 0.99684,-0.51624 -0.36706,-0.27788 -0.84331,-0.56984 -1.05833,-0.64854 -0.27464,-0.10046 -0.25267,-0.37635 0.0734,-0.92708 0.40208,-0.67913 0.37866,-0.84697 -0.17622,-1.25677 -0.51345,-0.3792 -0.55314,-0.5618 -0.19947,-0.92036 0.35624,-0.36122 0.69573,-0.35596 1.76371,0.0284 0.72748,0.26182 1.69707,0.71993 2.1544,1.01802 0.78327,0.51056 0.79492,0.56901 0.20205,1.00252 -0.34613,0.25311 -0.54438,0.54495 -0.4408,0.64854 0.10359,0.10359 0.4491,0.0882 0.76791,-0.0341 0.31881,-0.12234 0.57929,-0.50184 0.57929,-0.84336 0,-0.34151 0.64607,-1.0485 1.43558,-1.57097 0.78952,-0.52247 1.75798,-1.49621 2.1518,-2.16369 0.39382,-0.66748 0.83481,-1.21336 0.9803,-1.21336 0.14554,0 0.12282,-0.90514 -0.0506,-2.01125 -0.17345,-1.10611 -0.57288,-2.81284 -0.88728,-3.79253 -0.3144,-0.97969 -1.02155,-2.30253 -1.57148,-2.93987 -0.54993,-0.63734 -1.02357,-1.35172 -1.05317,-1.5875 -0.0296,-0.23578 -0.0908,-0.58733 -0.13591,-0.78135 -0.0451,-0.19403 -0.10007,-0.54742 -0.12247,-0.78497 -0.0224,-0.23756 -0.52273,-0.68098 -1.11156,-0.98546 -0.6215,-0.32142 -1.36436,-0.45397 -2.85667,-0.45424 z m -0.60979,2.24999 c 0.0922,0.004 0.1873,0.0184 0.28112,0.0429 0.3753,0.0981 0.96625,0.49214 1.3131,0.8754 0.615,0.67957 0.60759,0.69062 -0.30127,0.46251 -0.79112,-0.19856 -0.94932,-0.109 -1.04852,0.59117 -0.0728,0.51411 -0.38292,0.85529 -0.82269,0.90589 -0.38805,0.0446 -1.1516,-0.16396 -1.69705,-0.46354 -0.70062,-0.38482 -0.95972,-0.77086 -0.88212,-1.31568 0.0904,-0.63491 0.30666,-0.75277 1.22422,-0.66507 0.61293,0.0585 1.20856,-0.0457 1.32343,-0.23151 0.0862,-0.13941 0.33328,-0.21457 0.60978,-0.20206 z m 3.64578,3.18224 c 0.24993,-0.0156 0.5068,0.24682 1.05006,0.89245 0.63397,0.75342 0.88554,1.37701 0.75396,1.86707 -0.10868,0.40469 -0.19905,1.74018 -0.20205,2.96777 -0.004,1.99336 -0.11517,2.34191 -1.03612,3.26285 -0.56715,0.56716 -1.26681,1.03147 -1.55442,1.03147 -0.28761,0 -1.21271,-0.57312 -2.05569,-1.27331 -0.84297,-0.70018 -1.80385,-1.77174 -2.13527,-2.38125 -0.33141,-0.6095 -0.60902,-1.3915 -0.61702,-1.73788 -0.008,-0.34637 0.24725,-1.03038 0.56793,-1.5198 0.32067,-0.48942 1.18774,-1.19822 1.92649,-1.5751 0.73874,-0.37687 1.53546,-0.68523 1.77044,-0.68523 0.23499,0 0.69769,-0.2449 1.02836,-0.54415 0.20588,-0.18633 0.35337,-0.29555 0.50333,-0.30489 z m -43.184964,1.96318 c -1.17935,0.006 -2.032228,0.28778 -4.292245,1.18701 -1.8224,0.72511 -3.948149,1.63792 -4.724259,2.0283 -0.776111,0.39038 -2.363785,1.4325 -3.52795,2.31614 -1.164165,0.88365 -2.955601,2.31403 -3.981153,3.17862 -1.025552,0.86458 -2.866287,2.85741 -4.090189,4.42867 -1.223902,1.57125 -2.427455,3.23908 -2.674772,3.70571 -0.247318,0.46663 -0.907415,2.25965 -1.466578,3.98477 -0.650664,2.00741 -1.016475,3.88527 -1.016475,5.21622 0,1.14378 0.158922,2.17762 0.35295,2.29754 0.194028,0.11991 0.352433,0.61589 0.352433,1.10225 0,0.48638 0.164498,1.19153 0.365353,1.56683 0.200853,0.3753 0.525695,0.68213 0.721919,0.68213 0.196225,0 0.627041,-0.4925 0.957565,-1.0945 0.330523,-0.602 1.691631,-2.78448 3.024621,-4.85035 1.332992,-2.06588 3.237994,-4.63946 4.233334,-5.71903 0.99534,-1.07958 3.448536,-3.73665 5.451346,-5.90455 2.00281,-2.16792 5.074773,-5.15116 6.826457,-6.62906 1.973647,-1.66515 4.277945,-3.21094 6.059579,-4.06486 1.581265,-0.75788 3.272324,-1.58084 3.757393,-1.82883 0.48507,-0.24799 0.84152,-0.60355 0.7922,-0.79014 -0.04932,-0.18659 -0.843414,-0.3836 -1.764234,-0.4377 -0.92082,-0.0541 -2.722881,-0.18999 -4.004923,-0.3023 -0.529967,-0.0464 -0.959256,-0.075 -1.352372,-0.0729 z m 42.171584,0.29714 c -0.51579,0 -0.94849,0.31667 -1.20613,0.88212 -0.22101,0.48507 -0.59128,0.8816 -0.82269,0.8816 -0.23141,0 -0.71073,0.26283 -1.06556,0.58394 -0.35483,0.32112 -0.64544,0.88477 -0.64544,1.25264 0,0.36788 0.59531,1.21584 1.32291,1.88412 0.80436,0.73877 1.6864,1.21547 2.25,1.21647 0.50982,9.3e-4 1.12781,-0.23988 1.37304,-0.53537 0.31968,-0.38519 0.37988,-1.24622 0.21291,-3.04271 -0.12808,-1.37814 -0.31891,-2.64466 -0.42375,-2.8143 -0.10485,-0.16964 -0.55281,-0.30851 -0.99529,-0.30851 z m 6.44095,7.58455 -0.62993,1.41439 c -0.34648,0.77773 -0.89927,1.63736 -1.22835,1.91047 -0.32908,0.27311 -1.17229,0.58981 -1.87379,0.70384 -0.7015,0.11402 -1.34154,0.40515 -1.42214,0.64699 -0.10009,0.30027 0.28262,0.43921 1.20613,0.43821 1.04873,-10e-4 1.64935,-0.27469 2.67529,-1.21698 1.09928,-1.00964 1.3183,-1.44169 1.2976,-2.55591 z m -38.286033,3.21686 c -0.118492,-7e-5 -0.236899,0.003 -0.353984,0.009 -0.936676,0.0485 -3.132006,0.19804 -4.878255,0.33228 -2.701434,0.20766 -3.533079,0.43419 -5.577437,1.51825 -1.321504,0.70076 -2.671053,1.43275 -2.998783,1.62677 -0.327731,0.19403 -1.132564,0.74948 -1.788522,1.23455 -0.655957,0.48506 -1.637195,1.58987 -2.180228,2.45515 -0.543034,0.86529 -0.909718,1.69871 -0.814938,1.85208 0.09478,0.15336 0.246027,0.27906 0.335897,0.27906 0.08987,0 1.418626,-0.63114 2.952791,-1.4025 1.534167,-0.77137 4.983538,-2.33525 7.665166,-3.47524 2.681627,-1.13999 5.61713,-2.25402 6.523116,-2.47582 0.905986,-0.2218 2.096608,-0.57479 2.64583,-0.78445 0.8947,-0.34156 0.93688,-0.42653 0.40825,-0.81494 -0.28394,-0.20861 -1.109459,-0.35347 -1.938903,-0.35398 z m -44.085681,5.50871 c -0.02778,-0.0104 -0.06382,0.078 -0.107487,0.27027 -0.154258,0.6791 -0.482704,2.83696 -0.729671,4.79505 -0.292061,2.31561 -0.382877,5.70685 -0.259933,9.70122 0.175425,5.69941 0.270726,6.38901 1.326017,9.58546 0.625403,1.89433 1.60628,4.09234 2.179712,4.88394 0.573433,0.7916 1.117629,1.36439 1.209229,1.27279 0.0916,-0.0916 -0.152228,-0.86086 -0.541569,-1.70894 -0.389342,-0.84808 -1.230159,-2.81186 -1.86862,-4.36407 -0.786382,-1.91185 -1.130695,-3.27741 -1.067635,-4.23334 0.0512,-0.77611 0.155747,-2.31047 0.232027,-3.40961 0.07629,-1.09914 0.236338,-2.30689 0.356051,-2.68407 0.130606,-0.41151 0.0029,-0.86423 -0.319361,-1.13172 -0.295422,-0.24518 -0.536918,-0.73442 -0.536918,-1.08727 0,-0.35285 0.172506,-0.74813 0.383439,-0.8785 0.27617,-0.17068 0.27617,-0.34446 0,-0.62063 -0.210933,-0.21093 -0.365124,-0.86755 -0.342614,-1.45934 0.02258,-0.59364 0.113045,-0.7995 0.202055,-0.45889 0.122757,0.46975 0.531688,0.61753 1.710489,0.61753 1.17212,0 1.638568,-0.16646 1.915646,-0.68419 0.201423,-0.37636 0.310372,-1.05089 0.242362,-1.49914 -0.10064,-0.66335 -0.402619,-0.85354 -1.62264,-1.02009 -1.070243,-0.14611 -1.549931,-0.0705 -1.677933,0.26303 -0.0986,0.25694 -0.320483,0.37998 -0.492994,0.27337 -0.172462,-0.10662 -0.247034,-1.8124 -0.165364,-3.79046 0.06935,-1.67975 0.05906,-2.60121 -0.02429,-2.6324 z m 70.076344,15.30552 c -0.31434,-0.007 -1.06762,0.33652 -1.81023,0.83975 -0.8487,0.57512 -1.70199,1.05185 -1.89601,1.05885 -0.19402,0.007 -1.42323,0.55548 -2.73161,1.21853 -1.30838,0.66306 -3.25324,1.88835 -4.3217,2.72283 -1.06845,0.83447 -1.94252,1.65214 -1.94252,1.81746 0,0.16533 0.47412,-0.0977 1.05317,-0.58498 0.57906,-0.48725 1.96794,-1.22829 3.08663,-1.64641 1.11869,-0.41812 2.98648,-1.20534 4.15065,-1.74976 1.16417,-0.54442 2.74105,-1.53667 3.50418,-2.20504 0.81332,-0.71232 1.23287,-1.31108 1.01389,-1.44642 -0.0257,-0.0159 -0.0615,-0.0238 -0.10645,-0.0248 z m 13.65033,8.76433 c -0.1696,-0.004 -0.37915,0.10133 -0.52813,0.28163 -0.19865,0.2404 -0.47049,1.02236 -0.6041,1.73737 -0.13366,0.71501 -0.13804,1.46873 -0.0103,1.67535 0.12769,0.20661 0.8309,0.37568 1.56321,0.37568 0.73232,0 1.43068,-0.0985 1.55133,-0.21911 0.12064,-0.12064 -0.1676,-0.98287 -0.64027,-1.91564 -0.47268,-0.93278 -1.00301,-1.78482 -1.17874,-1.89342 -0.0439,-0.0272 -0.0964,-0.0404 -0.15296,-0.0419 z m -68.210825,2.06654 c -0.08377,0.0838 0.187373,1.00529 0.602547,2.04793 0.415173,1.04265 1.193975,3.00691 1.730644,4.36511 0.536669,1.35819 1.896736,4.73614 3.022554,7.50652 1.140218,2.80582 2.216639,4.97409 2.429826,4.89479 0.210499,-0.0782 0.325885,-0.36057 0.256315,-0.62735 -0.06957,-0.26679 -0.436568,-1.59614 -0.815454,-2.95434 -0.378886,-1.35819 -1.411039,-4.05677 -2.2934,-5.99705 -0.88236,-1.94028 -2.318996,-4.84652 -3.19257,-6.458 -0.873573,-1.61149 -1.656692,-2.86141 -1.740462,-2.77761 z m 71.668495,3.34398 -2.09962,0.23719 c -1.15466,0.13056 -2.34818,0.37041 -2.65255,0.53331 -0.30438,0.1629 -1.25847,1.66714 -2.11976,3.34243 -0.97524,1.89693 -2.72667,4.40384 -4.64313,6.64559 -1.69252,1.97981 -3.92183,4.32798 -4.9537,5.21828 -1.03186,0.89029 -2.97311,2.36923 -4.31395,3.28662 -1.34085,0.9174 -3.32505,2.1155 -4.40955,2.66237 -1.08451,0.54688 -3.08288,1.33858 -4.44108,1.75907 -1.35818,0.42049 -4.05728,0.98495 -5.99756,1.25419 -1.94028,0.26924 -4.63886,0.52624 -5.99705,0.57154 -1.358199,0.0453 -4.215699,-0.18641 -6.350002,-0.5147 -2.200494,-0.33847 -4.764372,-0.98684 -5.921602,-1.49758 -1.122421,-0.49537 -2.19118,-0.84944 -2.375049,-0.78704 -0.183869,0.0624 0.584592,1.65421 1.707389,3.53726 1.122798,1.88303 2.322179,3.7341 2.665471,4.11344 0.343291,0.37933 1.00366,0.7848 1.46761,0.90124 0.46395,0.11645 1.24597,0.61448 1.737879,1.10639 0.491908,0.49191 0.894519,1.09346 0.894519,1.33687 0,0.24342 0.190397,0.63327 0.42323,0.8661 0.232833,0.23284 0.709084,0.42323 1.058333,0.42323 0.34925,0 0.635104,0.23812 0.635104,0.52916 0,0.29104 0.291271,0.52917 0.646989,0.52917 0.355716,0 0.759486,0.1125 0.897102,0.25011 0.137617,0.1376 0.838707,0.20842 1.558045,0.15762 0.719332,-0.0508 2.260432,0.13158 3.424592,0.40514 1.16417,0.27356 2.67212,0.83708 3.35122,1.25212 0.79747,0.48739 1.82091,0.75518 2.88975,0.75603 0.91018,7.3e-4 1.75283,-0.15789 1.87275,-0.35192 0.11992,-0.19402 1.28967,-0.35243 2.59933,-0.35243 1.54756,0 2.62091,-0.1817 3.06596,-0.51832 0.37664,-0.28487 0.90018,-0.52316 1.16375,-0.52916 0.33309,-0.008 0.41362,0.25162 0.26355,0.84956 -0.11876,0.47318 -0.0509,0.96205 0.1509,1.08675 0.20177,0.1247 0.95633,-0.39743 1.6769,-1.16065 0.72058,-0.76322 2.73875,-2.91108 4.48499,-4.77284 2.04282,-2.17793 3.44461,-3.39151 3.93103,-3.40341 0.41581,-0.0102 0.84744,-0.25673 0.95912,-0.54777 0.11168,-0.29104 0.44597,-0.52916 0.7431,-0.52916 0.29713,0 0.54267,-0.27799 0.54467,-0.61754 0.002,-0.33954 0.55118,-0.97166 1.21957,-1.40456 0.66839,-0.43291 1.76679,-1.64871 2.44067,-2.70216 0.67388,-1.05344 1.59373,-2.02767 2.04381,-2.16473 0.45008,-0.13706 1.15982,-0.66629 1.57716,-1.17615 0.7271,-0.88829 0.787,-0.90136 1.43867,-0.31161 0.37405,0.33851 0.91344,0.61546 1.1989,0.61546 0.28547,0 0.69616,-0.17681 0.91209,-0.39274 0.21592,-0.21597 0.56472,-0.2859 0.77566,-0.15554 0.21093,0.13036 0.38395,0.47086 0.38395,0.75654 0,0.28568 -0.23812,0.61076 -0.52916,0.72244 -0.29105,0.11169 -0.52917,0.42425 -0.52917,0.69453 0,0.27028 0.1886,0.45157 0.41961,0.40307 0.23101,-0.0485 0.48081,0.18941 0.55501,0.52865 0.0742,0.33924 -0.0751,0.83894 -0.33176,1.11001 -0.2567,0.27106 -0.86369,1.01264 -1.34876,1.64796 -0.48507,0.63533 -1.54881,1.78047 -2.3642,2.54507 -0.81539,0.7646 -2.38505,2.76168 -3.48764,4.43797 -1.10259,1.6763 -2.49063,3.56399 -3.08456,4.19458 -0.73617,0.7816 -1.40541,1.14618 -2.10272,1.14618 -0.56257,0 -1.49432,0.33581 -2.07067,0.74621 l -1.048,0.7462 0.72915,0.77618 c 0.40089,0.42672 0.72864,1.03602 0.72864,1.35393 0,0.31792 -0.18672,0.98786 -0.41496,1.4888 -0.22824,0.50093 -1.37901,1.48588 -2.55747,2.18901 -1.17846,0.70313 -2.42049,1.51574 -2.76004,1.80609 -0.33953,0.29035 -0.61753,0.72435 -0.61753,0.96428 0,0.23994 0.39997,0.53669 0.88884,0.65939 0.56028,0.14062 1.70167,-0.0887 3.08715,-0.62063 1.20888,-0.46411 2.95515,-1.11732 3.8809,-1.45159 0.92576,-0.33427 2.61589,-1.38739 3.75584,-2.33991 1.13994,-0.95251 2.21791,-1.73168 2.39572,-1.73168 0.17781,0 1.8228,-1.54781 3.65507,-3.43958 1.83228,-1.89177 4.0768,-4.4221 4.98781,-5.62291 0.91102,-1.2008 1.99642,-2.36542 2.41226,-2.58796 0.6932,-0.371 0.73483,-0.33591 0.50126,0.41961 -0.14011,0.45322 -0.5666,1.66587 -0.94775,2.69493 -0.38115,1.02906 -1.50289,3.08186 -2.49287,4.562 -0.98998,1.48013 -3.07903,3.98536 -4.64209,5.56658 -1.56305,1.58123 -3.47686,3.28696 -4.25297,3.79098 -0.77611,0.50403 -2.9524,1.41326 -4.8364,2.02004 -1.88401,0.60678 -4.58258,1.22844 -5.99705,1.38182 -1.64722,0.17862 -3.99439,0.11486 -6.52828,-0.17725 -2.17585,-0.25082 -4.29519,-0.63749 -4.70979,-0.85938 -0.4146,-0.22189 -2.12678,-0.79847 -3.80494,-1.28157 -1.67815,-0.48311 -3.84507,-1.36772 -4.81521,-1.96526 -0.97014,-0.59755 -2.87514,-1.83823 -4.233332,-2.75745 -1.358192,-0.91923 -3.482998,-2.66193 -4.721675,-3.87263 -1.949606,-1.90557 -2.297223,-2.12001 -2.590023,-1.5968 -0.218772,0.39092 -0.189407,2.18344 0.08372,5.07514 0.232245,2.4589 0.548665,5.80938 0.702799,7.44554 0.15413,1.63615 0.199893,3.18396 0.101803,3.43958 -0.143619,0.37426 1.104237,0.46457 6.409428,0.46457 h 6.58822 l -0.23254,-0.79375 c -0.12805,-0.43657 -0.53579,-1.43891 -0.90589,-2.22777 -0.3701,-0.78886 -0.67282,-1.6223 -0.67282,-1.85208 0,-0.22979 0.19827,-0.41428 0.44079,-0.40928 0.24254,0.005 1.1557,0.55958 2.02882,1.233 0.87313,0.67342 2.18858,1.62729 2.92334,2.12029 0.73476,0.49298 1.24238,1.04807 1.12809,1.23299 -0.1209,0.19562 -0.60586,0.088 -1.15962,-0.25683 -0.52344,-0.326 -1.41651,-1.04805 -1.98437,-1.60455 -0.56787,-0.5565 -1.32158,-1.16666 -1.67535,-1.35599 -0.46898,-0.25099 -0.63588,-0.22153 -0.61598,0.10904 0.015,0.24936 0.32001,1.24729 0.67799,2.21743 0.35798,0.97013 0.68237,1.52559 0.72037,1.23455 0.0378,-0.29104 0.0365,-0.76728 -0.003,-1.05833 -0.0487,-0.35802 0.17273,-0.26948 0.68471,0.27285 0.41619,0.44087 0.90585,0.70912 1.08831,0.59635 0.18246,-0.11277 0.33176,-0.0443 0.33176,0.15193 0,0.20342 0.49296,0.28111 1.1467,0.18086 0.63059,-0.0967 2.8892,-0.1765 5.01933,-0.17725 2.13013,-7.6e-4 3.68631,-0.11687 3.45819,-0.25786 -0.24392,-0.15075 -0.29563,-0.44883 -0.12557,-0.72399 0.19165,-0.3101 1.3454,-0.52123 3.42098,-0.62632 1.72248,-0.0872 3.81088,-0.33089 4.64106,-0.54157 0.83018,-0.21071 1.61258,-0.28032 1.73839,-0.15451 0.12581,0.12581 -0.21794,0.69479 -0.76378,1.26452 l -0.99218,1.03612 0.84181,0.21032 c 0.46298,0.11596 2.34976,0.16387 4.19302,0.10697 2.2584,-0.0697 3.35122,-0.23746 3.35122,-0.5147 0,-0.22628 0.36223,-0.90131 0.8046,-1.49965 0.44237,-0.59833 1.05489,-1.08779 1.36116,-1.08779 0.42838,0 0.50305,0.22365 0.32504,0.96997 -0.12726,0.53358 -0.31357,1.24796 -0.41444,1.5875 -0.17138,0.57687 0.4196,0.61753 9.01237,0.61753 7.09932,0 9.20538,-0.10036 9.23768,-0.4408 0.0228,-0.24253 0.0272,-0.52053 0.009,-0.61753 -0.018,-0.097 -0.26797,-0.81139 -0.55552,-1.5875 l -0.52297,-1.41128 -0.0155,1.12603 c -0.009,0.61914 0.14342,1.22366 0.33744,1.34358 0.19402,0.11991 0.34759,0.40712 0.34159,0.63821 -0.006,0.23108 -0.24641,0.10932 -0.53382,-0.27079 -0.28742,-0.38011 -1.22179,-2.84108 -2.07636,-5.4684 -0.85456,-2.62733 -1.97432,-6.54859 -2.48822,-8.71419 l -0.93431,-3.93775 1.91875,-3.6468 c 1.72761,-3.28366 1.9587,-3.98638 2.31458,-7.04867 0.32318,-2.78076 0.3052,-3.64972 -0.0982,-4.7625 -0.27138,-0.74863 -0.8897,-2.23445 -1.37356,-3.30161 -0.48385,-1.06715 -1.29261,-2.54298 -1.79783,-3.2799 -0.50522,-0.73691 -1.84732,-3.03896 -2.98224,-5.11545 -1.13492,-2.07648 -2.76189,-5.02161 -3.61529,-6.54482 z m -55.257094,2.33112 c -0.173843,-0.006 -0.463154,0.0276 -0.894519,0.0915 -0.743359,0.11006 -2.29033,0.49919 -3.438033,0.86455 -1.147704,0.36537 -2.368971,0.66404 -2.71353,0.66404 -0.344559,0 -0.716116,0.14552 -0.825789,0.32298 -0.109674,0.17745 1.69e-4,0.40296 0.243913,0.50126 0.243744,0.0983 0.712782,0.19089 1.042314,0.20619 0.329532,0.0153 1.858709,-0.36994 3.398242,-0.85628 1.539532,-0.48634 2.989537,-1.11358 3.222025,-1.39371 0.224851,-0.27093 0.255115,-0.39049 -0.03462,-0.4005 z m 68.595814,5.86528 c -0.0941,-0.01 -0.0819,0.66612 0.0326,1.57561 0.12212,0.97014 0.36872,3.51502 0.54828,5.65547 0.17955,2.14044 0.47788,4.29006 0.66301,4.77697 0.18512,0.4869 0.59153,1.09664 0.90279,1.35496 0.31125,0.25832 0.56585,0.68873 0.56585,0.95601 0,0.26728 -0.14953,0.48576 -0.33227,0.48576 -0.19575,0 -0.24765,1.01085 -0.1261,2.46083 0.14514,1.73123 0.0743,2.62037 -0.23977,2.99878 -0.28399,0.34221 -0.30855,0.53744 -0.0672,0.53744 0.20867,0 0.53114,-0.54993 0.71675,-1.22215 0.18562,-0.67221 0.25126,-1.86284 0.14624,-2.64583 -0.12565,-0.93681 -0.0539,-1.42369 0.20878,-1.42369 0.21958,0 0.39894,-0.201 0.39894,-0.447 0,-0.246 -0.42425,-1.0712 -0.94258,-1.83399 -0.83064,-1.22239 -1.01959,-2.07687 -1.5937,-7.20267 -0.35826,-3.19859 -0.74596,-5.90541 -0.86145,-6.01513 -0.007,-0.007 -0.0139,-0.0107 -0.0202,-0.0114 z m -48.93138,5.73143 c -0.39147,0.005 -0.80244,0.25324 -1.54358,0.85266 -0.7242,0.58571 -1.3678,1.32541 -1.4304,1.64331 -0.084,0.42676 0.0544,0.51631 0.52917,0.34313 0.35364,-0.129 1.34719,-0.71231 2.20813,-1.29604 1.49652,-1.01466 1.53115,-1.07638 0.78755,-1.40818 -0.199,-0.0888 -0.37293,-0.13699 -0.55087,-0.13488 z m -27.161651,11.0138 -0.373104,1.47485 c -0.205098,0.81111 -0.49165,1.59141 -0.63717,1.73426 -0.145521,0.14285 -0.264583,0.71389 -0.264583,1.26917 0,0.55528 0.509247,1.99732 1.13223,3.20445 0.734624,1.42346 1.167233,2.81495 1.230933,3.95894 0.05402,0.97014 0.35776,2.58936 0.674377,3.59823 0.335045,1.06768 0.476495,2.22771 0.338998,2.77554 -0.162389,0.64702 -0.05201,1.14468 0.35295,1.59215 0.323992,0.35801 0.495311,0.89494 0.380855,1.19321 -0.143791,0.37471 0.0069,0.54208 0.486792,0.54208 0.381966,0 0.689362,0.11907 0.683163,0.26459 -0.0062,0.14552 -0.24512,0.57373 -0.530717,0.95136 -0.402972,0.53282 -0.613532,0.59208 -0.941028,0.26458 -0.232107,-0.23211 -0.549128,-0.42219 -0.70435,-0.42219 -0.155222,0 -0.282153,0.23811 -0.282153,0.52916 0,0.29104 -0.206651,0.52917 -0.458887,0.52917 -0.252236,0 -0.648767,-0.1904 -0.8816,-0.42323 -0.232833,-0.23283 -0.42323,-1.00729 -0.42323,-1.72083 0,-0.72283 -0.234337,-1.49164 -0.529167,-1.73632 -0.291041,-0.24155 -0.529166,-0.63577 -0.529166,-0.87592 0,-0.24014 -0.563053,-1.03367 -1.251087,-1.7632 -0.688033,-0.72953 -1.832064,-2.22009 -2.541963,-3.31246 -0.7099,-1.09237 -1.258271,-2.10499 -1.218531,-2.25051 0.03974,-0.14552 -0.141074,-0.26458 -0.402042,-0.26458 -0.26097,0 -0.699645,0.27747 -0.975135,0.61702 -0.367817,0.45335 -0.493539,1.62524 -0.472839,4.41006 0.01551,2.0858 -0.04297,3.79202 -0.129708,3.79202 -0.08674,0 -0.732023,-0.33917 -1.434021,-0.75396 l -1.276408,-0.75396 1.376144,1.17616 c 0.756767,0.64698 1.936144,1.55681 2.621028,2.02158 0.684885,0.46478 1.573981,0.90698 1.97559,0.98288 0.401611,0.0759 1.173102,0.23395 1.714624,0.3514 0.565107,0.12256 1.204228,0.0318 1.49965,-0.21342 0.283094,-0.23499 0.534373,-0.32851 0.558623,-0.20774 0.02425,0.12077 0.06412,0.41789 0.08837,0.66043 0.02425,0.24253 0.996426,1.4082 2.160592,2.59054 2.009087,2.04043 2.206145,2.15163 3.880383,2.18643 1.700764,0.0354 1.735828,0.0171 0.970484,-0.51677 -0.436562,-0.30453 -0.79375,-0.70317 -0.79375,-0.88573 0,-0.18256 0.357188,-0.28239 0.79375,-0.22169 0.731406,0.1017 0.807432,-0.0557 0.969966,-2.00608 0.09701,-1.16417 0.474517,-2.66456 0.839226,-3.33417 0.364708,-0.66961 0.880818,-1.4353 1.1467,-1.70119 0.26588,-0.26587 0.511186,-0.82889 0.545186,-1.2516 0.03401,-0.4227 0.09207,-1.64172 0.128674,-2.70888 0.0366,-1.06715 0.171188,-2.33749 0.299207,-2.82256 0.128022,-0.48507 0.08736,-1.10167 -0.09043,-1.37046 -0.214699,-0.32462 -0.636021,-0.41043 -1.254187,-0.25528 -0.511913,0.12848 -1.248157,0.74558 -1.636076,1.37097 -0.539781,0.8702 -0.659834,1.50944 -0.511596,2.72438 0.106532,0.87312 0.04046,1.82124 -0.146762,2.10685 -0.299707,0.45718 -0.358761,0.45718 -0.492476,0 -0.08353,-0.28561 -0.664903,-2.18623 -1.291911,-4.22351 -0.627007,-2.03729 -1.33865,-4.10122 -1.581815,-4.58629 -0.243165,-0.48507 -0.546168,-1.43756 -0.673344,-2.11666 -0.127177,-0.6791 -0.655909,-2.34597 -1.175122,-3.70417 z m 76.803061,3.10885 c -0.0454,-0.0227 -0.064,0.1262 -0.0791,0.43615 -0.0193,0.39775 -0.22554,0.91387 -0.45837,1.1467 -0.23284,0.23284 -0.70528,0.42323 -1.04955,0.42323 -0.34427,0 -0.86824,0.46832 -1.16427,1.04077 -0.29602,0.57245 -0.53795,1.69932 -0.53795,2.50372 0,0.80439 0.2457,2.30817 0.54622,3.34191 0.30052,1.03376 1.01482,2.46848 1.58698,3.18844 0.57216,0.71997 1.20379,1.91592 1.40353,2.65772 0.19975,0.7418 0.51714,1.44449 0.7059,1.56114 0.18875,0.11666 0.34365,0.68684 0.34365,1.26711 0,0.58027 -0.22479,1.48888 -0.49919,2.01952 -0.27441,0.53064 -0.60842,1.54786 -0.74208,2.26032 -0.22268,1.18699 -0.12933,1.40011 1.11621,2.54403 0.85058,0.78117 1.71488,1.24906 2.30891,1.25006 0.52213,9.3e-4 1.04054,0.14977 1.15238,0.33073 0.11183,0.18095 0.65435,0.31594 1.2051,0.30024 0.55075,-0.0157 1.18257,0.084 1.40456,0.22117 0.22199,0.1372 0.40411,0.38842 0.40411,0.55811 0,0.16969 -0.4369,0.37447 -0.97048,0.45527 -0.53358,0.0808 0.10159,0.17088 1.41128,0.19998 1.69553,0.0376 2.38242,-0.0741 2.38642,-0.38809 0.004,-0.29398 0.1198,-0.26493 0.34778,0.0879 0.29038,0.4494 0.34227,0.43385 0.34727,-0.10438 0.003,-0.34858 -0.45628,-0.89856 -1.0201,-1.22215 -0.642,-0.36846 -1.16904,-1.06958 -1.41076,-1.87637 -0.21229,-0.70854 -0.38603,-2.0487 -0.38603,-2.9776 0,-1.04672 -0.32146,-2.37233 -0.84542,-3.48661 -0.55382,-1.17777 -0.84429,-2.42567 -0.84129,-3.61786 0.003,-1.32492 -0.30588,-2.47642 -1.13637,-4.23334 -0.62744,-1.32736 -1.28133,-2.78151 -1.45262,-3.23132 -0.1713,-0.44983 -0.71417,-1.34595 -1.20665,-1.99161 -0.63599,-0.83383 -1.09572,-1.1217 -1.58698,-0.99323 -0.58154,0.15207 -0.69749,-0.008 -0.72709,-1.00665 -0.0193,-0.65322 -0.16195,-1.58457 -0.31729,-2.06964 -0.12106,-0.37799 -0.19337,-0.57264 -0.23875,-0.59532 z m -69.22988,2.13424 c -0.19358,2.6e-4 -0.427944,0.0611 -0.645955,0.17777 -0.381096,0.20396 -1.247942,0.86163 -1.925981,1.46192 -0.94591,0.83745 -1.193709,1.29493 -1.065568,1.96526 0.09185,0.4805 0.49078,1.10033 0.886768,1.37769 0.395989,0.27739 0.853035,0.42232 1.015442,0.32195 0.162408,-0.10037 0.295589,-0.56468 0.295589,-1.03147 0,-0.46843 0.295775,-1.00684 0.660425,-1.20199 0.363366,-0.19412 1.0144,-0.28535 1.44694,-0.20205 0.432539,0.0833 0.988073,0.31892 1.23455,0.52348 0.246476,0.20456 0.06691,-0.38208 -0.399459,-1.30328 -0.466372,-0.92121 -0.984743,-1.81157 -1.151868,-1.97869 -0.07436,-0.0743 -0.20032,-0.11079 -0.350883,-0.11059 z m 78.82361,4.70101 c -0.14118,0.002 -0.24689,0.0329 -0.30696,0.093 -0.17629,0.1763 -0.38288,0.92697 -0.45888,1.66812 -0.076,0.74116 -0.20491,1.53578 -0.28681,1.76578 -0.0819,0.23 0.0407,0.48186 0.27234,0.55966 0.31592,0.10611 0.29731,0.3728 -0.0734,1.06867 -0.40168,0.75407 -0.41006,1.02923 -0.045,1.46916 0.24704,0.29766 0.5844,0.54105 0.74982,0.54105 0.16542,0 0.63809,-0.75424 1.05007,-1.67587 0.41198,-0.92163 1.07346,-1.9315 1.47019,-2.2443 0.51671,-0.40772 0.66111,-0.80944 0.50798,-1.41956 -0.13454,-0.53605 -0.70471,-1.07352 -1.53995,-1.4521 -0.54668,-0.2478 -1.02886,-0.37871 -1.33946,-0.37362 z m -63.72479,5.09994 c -0.6485,0.003 -1.0549,0.078 -1.14308,0.22066 -0.12394,0.20054 0.36977,0.71814 1.09709,1.15032 0.72731,0.43217 2.35462,1.10182 3.6158,1.48776 1.26119,0.38594 3.56271,0.8171 5.11493,0.95808 1.55223,0.14098 4.90617,0.28058 7.45278,0.31058 2.54661,0.03 5.1344,-0.0462 5.75107,-0.1695 0.99913,-0.19982 1.10971,-0.3413 1.01441,-1.3007 l -0.10698,-1.07693 -4.23333,0.0791 c -2.32833,0.0434 -4.77517,0.25257 -5.43739,0.46509 -0.67574,0.21691 -2.22467,0.30116 -3.53002,0.19172 -1.50707,-0.12635 -2.94658,-0.51722 -4.08916,-1.11001 -1.11133,-0.57658 -2.62531,-0.9951 -4.0938,-1.13223 -0.54706,-0.0511 -1.02322,-0.0756 -1.41232,-0.0739 z m 10.90941,6.83318 c -0.2748,10e-4 -0.56651,0.0234 -0.83974,0.0677 -1.32368,0.2148 -1.32394,0.2152 -0.56224,0.83199 0.41927,0.3395 1.0625,0.53877 1.42937,0.44287 0.36686,-0.0959 0.77346,-0.002 0.90382,0.20929 0.13036,0.21093 0.62356,0.38344 1.09554,0.38344 0.47607,0 1.05418,0.31395 1.29863,0.70538 0.24234,0.38805 0.65362,0.70539 0.91416,0.70539 v 5.1e-4 c 0.26015,0 0.38125,-0.19878 0.2682,-0.44131 -0.11306,-0.24254 -0.29987,-0.70574 -0.41548,-1.0294 -0.11562,-0.32366 -0.71132,-0.77332 -1.32343,-0.99942 -0.61211,-0.22609 -1.37614,-0.54929 -1.69809,-0.71779 -0.20123,-0.10531 -0.61273,-0.16065 -1.07074,-0.15864 z m 58.95248,0.96066 c -0.17479,-0.007 -0.42135,0.0297 -0.76378,0.1018 -0.63059,0.13287 -1.29047,0.37672 -1.46658,0.54209 -0.18972,0.17815 -0.1344,0.5253 0.13643,0.85163 0.31128,0.37501 0.3926,1.13953 0.25424,2.39623 -0.11173,1.01501 -0.31215,2.36096 -0.44545,2.99155 l -0.24236,1.1467 h 2.9838 c 1.64115,0 3.06557,-0.0818 3.1657,-0.1819 0.10012,-0.10012 -0.0169,-0.93356 -0.25994,-1.85208 -0.24304,-0.91852 -0.59907,-2.06723 -0.79116,-2.5523 -0.19209,-0.48506 -0.76288,-1.238 -1.26866,-1.67328 -0.50577,-0.43528 -0.91932,-1.04309 -0.91932,-1.35083 0,-0.27852 -0.0916,-0.40845 -0.38292,-0.41961 z m 4.64364,1.87637 c -0.1364,-0.0218 0.0249,1.09769 0.37052,2.54869 0.35763,1.50155 0.91191,2.91586 1.23558,3.15277 0.32286,0.23636 0.71166,0.35259 0.86403,0.25839 0.15233,-0.0942 0.26352,-0.64587 0.24702,-1.22629 -0.0213,-0.75056 -0.18911,-1.02918 -0.58085,-0.96428 -0.31667,0.0525 -0.60412,-0.20879 -0.67592,-0.61443 -0.0687,-0.38805 -0.35619,-1.21475 -0.63924,-1.8371 -0.28305,-0.62235 -0.64645,-1.21276 -0.80719,-1.31206 -0.005,-0.003 -0.01,-0.005 -0.0139,-0.006 z m -95.523885,3.47318 c -0.308958,-0.0123 -0.577295,0.17565 -1.054199,0.62166 -0.484579,0.45318 -1.030842,1.10172 -1.21388,1.44126 -0.308931,0.57309 -0.02184,0.61553 4.001307,0.59273 l 4.334102,-0.0243 -1.764233,-0.53692 c -0.970138,-0.29523 -2.001842,-0.74016 -2.292884,-0.98857 -0.29104,-0.24841 -0.901638,-0.64395 -1.356506,-0.87953 -0.268598,-0.13911 -0.468332,-0.21895 -0.653707,-0.22634 z" /></g></g></svg>
