<svg viewBox="0 0 512 512" xmlns="http://www.w3.org/2000/svg"><g fill="#D32F2F" transform="matrix(1.3003 0 0 1.3003 -76.875 -83.452)"><path d="m359.57 268.08c-1.1857-0.05376-2.375-0.08074-3.5674-0.08074-9.4285 0-18.665 1.6868-27.449 4.964-4.5812 1.7091-8.4821 4.642-11.365 8.3649-1.7274 2.2308-3.0893 4.7452-4.0128 7.4497-2.802-0.5503-5.6586-0.62642-8.4526-0.24446-4.6643 0.63764-9.1547 2.552-12.926 5.6696-7.225 5.9733-13.301 13.133-18.013 21.303-4.7116 8.1679-7.8686 17.012-9.4242 26.26-0.81076 4.8196-0.22336 9.6611 1.5542 14.016 1.0689 2.6186 2.5681 5.0612 4.4522 7.2175-1.8841 2.1563-3.3833 4.5988-4.4522 7.2175-1.7776 4.3548-2.365 9.1963-1.5542 14.016 1.5556 9.2474 4.7126 18.092 9.4242 26.26 3.8124 6.6092 8.5171 12.558 14.001 17.752l-22.813 25.665c-4.403 4.9534-11.988 5.3996-16.941 0.99655-0.35141-0.31237-0.68417-0.64513-0.99654-0.99655l-112.02-126.02c-4.2545-4.7863-5.2453-11.648-2.5186-17.443l112.65-239.37c2.8219-5.9966 9.9708-8.5702 15.967-5.7483 2.5265 1.1889 4.5593 3.2217 5.7483 5.7483z"/><path d="m401.45 308.8c1.9986-0.89072 4.3288-0.57217 6.0155 0.82236 5.3869 4.4536 9.9189 9.7906 13.433 15.882 3.5138 6.0914 5.8656 12.688 7.0257 19.584 0.36325 2.1593-0.52621 4.3384-2.2962 5.6254-4.2026 3.0559-8.2334 5.9574-12.092 8.7046 0.073 1.1902 0.1097 2.3858 0.1097 3.5856s-0.0367 2.3954-0.1097 3.5856c3.859 2.7472 7.8897 5.6487 12.092 8.7046 1.77 1.287 2.6595 3.4661 2.2962 5.6254-1.1601 6.8962-3.5119 13.493-7.0257 19.584-3.5138 6.0914-8.0458 11.428-13.433 15.882-1.6868 1.3945-4.0169 1.7131-6.0155 0.82236-4.7439-2.1142-9.2684-4.1566-13.574-6.1274-1.9929 1.3259-4.0668 2.5269-6.2102 3.5951-0.44728 4.7152-0.94209 9.6559-1.4844 14.822-0.22861 2.1778-1.6693 4.0382-3.7193 4.8031-6.547 2.4425-13.431 3.7024-20.458 3.7024s-13.911-1.2598-20.458-3.7024c-2.05-0.76481-3.4907-2.6253-3.7193-4.8031-0.54236-5.1666-1.0372-10.107-1.4844-14.822-2.1434-1.0682-4.2173-2.2692-6.2102-3.5951-4.3053 1.9707-8.8298 4.0132-13.574 6.1274-1.9986 0.89072-4.3288 0.57217-6.0155-0.82236-5.3869-4.4536-9.9189-9.7906-13.433-15.882-3.5138-6.0914-5.8656-12.688-7.0257-19.584-0.36325-2.1593 0.52621-4.3384 2.2962-5.6254 4.2026-3.0559 8.2334-5.9574 12.092-8.7046-0.073-1.1902-0.1097-2.3858-0.1097-3.5856s0.0367-2.3954 0.1097-3.5856c-3.859-2.7472-7.8897-5.6487-12.092-8.7046-1.77-1.287-2.6595-3.4661-2.2962-5.6254 1.1601-6.8962 3.5119-13.493 7.0257-19.584 3.5138-6.0914 8.0458-11.428 13.433-15.882 1.6868-1.3945 4.0169-1.7131 6.0155-0.82236 4.7439 2.1142 9.2684 4.1566 13.574 6.1274 1.9929-1.3259 4.0668-2.5269 6.2102-3.5951 0.44728-4.7152 0.94209-9.6559 1.4844-14.822 0.22861-2.1778 1.6693-4.0382 3.7193-4.8031 6.547-2.4425 13.431-3.7024 20.458-3.7024s13.911 1.2598 20.458 3.7024c2.05 0.76481 3.4907 2.6253 3.7193 4.8031 0.54236 5.1666 1.0372 10.107 1.4844 14.822 2.1434 1.0682 4.2173 2.2692 6.2102 3.5951 4.3053-1.9707 8.8298-4.0132 13.574-6.1274zm-45.946 89.204c19.054 0 34.5-15.446 34.5-34.5s-15.446-34.5-34.5-34.5-34.5 15.446-34.5 34.5 15.446 34.5 34.5 34.5z"/></g></svg>
