<svg viewBox="0 0 512 512" xmlns="http://www.w3.org/2000/svg"><path fill="#FBC02D" d="m256.63 0.01175c-6.0759-0.24132-11.994 3.1032-14.746 8.9512l-146.47 311.26c-3.5455 7.5343-2.2566 16.456 3.2754 22.68l145.65 163.86c0.40617 0.45695 0.83799 0.88874 1.2949 1.2949 6.4409 5.7252 16.304 5.1459 22.029-1.2949l145.65-163.86c5.532-6.2235 6.8209-15.145 3.2754-22.68l-146.47-311.26c-1.546-3.2852-4.1894-5.9286-7.4746-7.4746-1.9493-0.91733-3.9923-1.3961-6.0176-1.4766zm-0.625 146.78c16.65 0 30.146 13.499 30.146 30.148 0 1.0542-0.0557 2.1059-0.16602 3.1543l-11.484 109.11c-0.99639 9.4656-8.9782 16.652-18.496 16.652s-17.5-7.1867-18.496-16.652l-11.486-109.11c-1.743-16.558 10.268-31.394 26.826-33.137 1.0484-0.11035 2.1021-0.16602 3.1562-0.16602zm0 184.18c13.871 0 25.115 11.244 25.115 25.115s-11.244 25.115-25.115 25.115c-13.871 0-25.115-11.244-25.115-25.115s11.244-25.115 25.115-25.115z"/></svg>
