<svg version="1.1" viewBox="0 0 128 128" xml:space="preserve" xmlns="http://www.w3.org/2000/svg"><defs><filter id="a" x="0" y="0" width="1" height="1" color-interpolation-filters="sRGB"><feComposite in2="SourceGraphic" k2="1" operator="arithmetic" result="composite1"/><feColorMatrix in="composite1" result="colormatrix1" type="saturate" values="1"/><feFlood flood-color="rgb(0,18,216)" result="flood1"/><feBlend in="flood1" in2="colormatrix1" mode="screen" result="blend1"/><feBlend in2="blend1" result="blend2"/><feColorMatrix in="blend2" result="colormatrix2" type="saturate" values="1"/><feComposite in="colormatrix2" in2="SourceGraphic" k2="1" operator="in" result="composite2"/></filter></defs>
                <g transform="matrix(.86207 0 0 .86207 -26.699 -63.883)" filter="url(#a)"><path d="m111.36 74.129c-1.6114-0.074549-3.1862-0.011501-4.1053 0.54148-1.5866 0.95463-0.96609 3.5281-1.1759 5.0387-0.52708 3.795-0.96989 7.8089-0.97875 11.641-3.6e-4 0.16552-0.00846 0.45415-0.00453 0.65476-0.09055 1.2325-0.21685 2.9233-0.25375 3.4687-0.00806 0.034013-0.02306 0.061335-0.03172 0.095157-0.12468 0.38093-0.29334 0.71642-0.53469 0.95609-0.91633 0.90997-2.6467 0.15141-3.7632 0.11781-4.0702-0.12248-7.824-1.6462-11.994-0.92211-6.053 1.0509-11.648 4.207-16.58 7.7915-2.3469 1.7059-4.1575 4.3824-6.7765 5.6799-0.23843-0.20232-1.1839-1.8301-2.286-3.9512l-2.1387-4.3659-9.8962-17.284-2.6032-4.1982c-0.80254-1.4934-1.7332-3.0172-2.0912-3.4098-0.053896-0.059109-0.087955-0.12521-0.1382-0.18805l-0.41461-0.66836c-0.042996-0.10247-0.11102-0.22456-0.11102-0.29 0-0.23003-0.14486-0.41914-0.32172-0.41914-0.10754 0-0.17405 0.10098-0.21297 0.23336l-3.702-0.23336h-8.4644-1.7627-0.047578l0.047578 2.0481v19.824c0 6.3202 0.009734 13.061 3.4981 18.669 3.6373 5.8468 8.8266 9.6562 13.512 14.355 1.4257 1.4297 5.5595 3.2659 6.1557 5.0863 0.54255 1.6564-0.59903 5.852-0.77484 7.7507-0.57014 6.1575-0.81277 12.625 0.60719 18.698 1.2891 5.5137 5.8167 10.389 9.4862 14.464 1.1608 1.2892 3.4612 2.6265 4.0849 4.2435 0.084006 0.21778 0.14326 0.44311 0.20391 0.66836 0.11258 0.78831 0.22018 1.6136 0.28547 2.3155 0.004164 0.04477 0.002772 0.01155 0.006796 0.05437 0.045515 1.5864-0.10245 3.2162-0.015859 4.7125 0.22312 3.8555 1.2627 8.5359 0.61852 12.348-0.40859 2.418-2.2563 4.5466-2.175 7.0552 0.12866 3.9702 2.7459 4.0238 4.4678 6.7901 0.54015 0.86773 0.33453 2.4252 0.60719 3.4392-1.7168 0-3.5908 3.1752-4.5856 4.5879 1.5176-0.28202 2.2242-1.4656 2.823-2.823h0.34891l1.058-1.4115-0.70461 1.4115h-0.35117l-1.7627 3.881h24.097 14.051 4.5947 23.735 11.106 9.5428 13.68 2.9838 6.9781c0-0.40198-0.03972-0.78635-0.09516-1.1623 0.00368-0.09099 0.02307-0.16401 0.02039-0.25828-0.01453-0.51186-0.10357-0.78852-0.27867-0.90172-0.72557-2.4571-2.4362-4.4737-3.625-6.8512-2.5575-5.115-5.8416-11.24-9.425-15.875-1.9703-2.5484-4.8097-4.9664-6.8331-7.6442-0.03568-0.0574-0.07108-0.10481-0.12008-0.16539-0.4925-0.66581-0.94661-1.3454-1.3073-2.0504-0.0032-0.00625-0.00815-0.01186-0.01133-0.01812-0.0021-0.00413-0.00244-0.00946-0.00453-0.01359-0.17086-0.33682-0.29694-0.71405-0.43274-1.083-0.11457-0.39515-0.22633-0.78356-0.32625-1.3662-0.11621-0.88449-0.21552-1.8999-0.29453-3.3599-0.13662-2.5245-0.37932-5.1435-0.53922-5.8204-0.06822-0.28889-0.10875-0.34063-0.13593-0.28094-0.05525-1.4057-0.1337-2.7494-0.30586-3.949-0.38477-2.681-1.3675-5.2355-2.4016-7.7643-0.16327-0.60585-0.32759-1.2554-0.45313-1.6924-0.29572-1.0296-0.68493-2.0612-0.86773-2.2928-0.1516-0.19205-0.58531-1.3174-1.0263-2.5873-0.03796-0.36831-0.18745-0.91117-0.47351-1.7377-0.30148-0.87111-0.46674-1.4534-0.51883-1.9734-5.1e-4 -0.00511-0.00168-0.01055-0.00227-0.01586-1.6e-4 -0.00149 1.4e-4 -0.00309 0-0.00453-2.9e-4 -0.00307 2.9e-4 -0.00599 0-0.00906-0.04484-0.4859 0.01544-0.93021 0.1518-1.4998 0.11896-0.42579 0.37112-1.0647 0.58227-1.6494 0.43878-0.94112 0.95567-1.8614 1.2461-2.764 0.53957-1.6769 0.47636-4.2426 0.28547-5.9971-0.23715-2.1796-1.3991-4.0513-2.3857-5.9744-0.17964-0.40342-0.3737-0.80338-0.53469-1.1872-0.37327-0.88989-0.67606-1.6799-0.82016-2.1569-0.24529-0.81185-0.42539-1.2156-0.58453-1.3141-2.8066-6.6953-6.7848-11.687-12.579-16.609-1.9044-1.6179-3.9702-3.6008-6.3302-4.5834-0.16697-0.10905-0.38756-0.21833-0.66156-0.31266-0.01647-0.00936-0.01563-0.00459-0.03172-0.01359 3.7017-5.9742 9.3562-11.669 12.683-18.028 0.1411-0.1852 0.30347-0.42419 0.42141-0.56187 0.70586-0.82399 0.93749-1.3888 0.77711-1.8941-0.01733-0.054588-0.00397-0.064555-0.01586-0.11102 0.02304-0.057294 0.05444-0.11251 0.07703-0.16992 0.02942-0.074757 0.02731-0.1459 0.04984-0.21977 0.01499 0.007421 0.02402 0.003233 0.04078 0.013594 0.21987 0.13589 0.47698-0.14958 0.60946-0.67742 0.12596-0.50204 0.13167-1.0125 0.01132-1.1328-0.02258-0.02256-0.0452-0.032519-0.0657-0.031719-0.0889 0.0035-0.15406 0.21678-0.15406 0.54148 0 0.27506-0.13777 0.5221-0.31039 0.7114 0.10685-0.91926-0.12546-1.7934 0.12234-2.7323 0.8812-3.3393 3.3308-6.2261 2.9385-9.8691-0.20749-1.9267-6.8706-1.0671-8.3964-1.0671h-21.168c-1.0626 0-2.7114-0.21318-4.3228-0.28773zm-18.961 24.983 2.823 0.35117v0.35344h-2.823v-0.70461zm-0.35344 0.35117v0.35344l-2.1161 0.70461 2.1161-1.058zm-24.147 15.295c-0.032953 0.03635-0.064651 0.07022-0.097421 0.10648 0.031562-0.03714 0.065288-0.06982 0.097421-0.10648z"/>
         </g>
            </svg>
