<?xml version="1.0" encoding="UTF-8"?>
<svg width="128" height="128" version="1.1" viewBox="0 0 128 128" xml:space="preserve" xmlns="http://www.w3.org/2000/svg">
                <g transform="matrix(.86207 0 0 .86207 -26.699 -63.883)"><path d="m31.018 74.417v21.872c0 6.3202 0.01001 13.06 3.4984 18.668 3.6373 5.8468 8.8274 9.6572 13.513 14.356 1.4257 1.4297 5.5578 3.2655 6.154 5.0859 0.54255 1.6564-0.59834 5.8526-0.77415 7.7513-0.57014 6.1575-0.8124 12.624 0.60756 18.697 1.2891 5.5137 5.8163 10.389 9.4858 14.464 1.1608 1.2892 3.4626 2.6261 4.0863 4.2431 0.92084 2.3872 0.3362 5.2635 0.48017 7.7513 0.22312 3.8555 1.2615 8.5353 0.61736 12.347-0.40859 2.418-2.2568 4.5471-2.1755 7.0556 0.12866 3.9702 2.7466 4.0247 4.4685 6.791 0.54015 0.86773 0.3349 2.4256 0.60756 3.4396-1.7168 0-3.5913 3.1734-4.5861 4.5861 1.5176-0.28202 2.2234-1.4648 2.8222-2.8222h0.35278l-1.7639 3.8806h110.77c0-3.6232-2.4369-6.089-3.9785-9.1722-2.5575-5.115-5.8436-11.24-9.427-15.875-2.5028-3.2371-6.4279-6.2592-8.2707-9.8778-2.1472-4.2163-1.3612-11.157-2.0383-15.875-0.90135-6.2805-4.9532-11.904-5.7424-17.992-0.27454-2.1179 1.3663-4.0914 1.9795-5.9972 0.53957-1.6769 0.47507-4.2427 0.28418-5.9972-0.32354-2.9737-2.3708-5.3729-3.3416-8.1139-2.8368-8.0098-7.061-13.605-13.562-19.128-2.0977-1.7821-4.3883-4.02-7.0556-4.8605 4.2224-6.8363 11.019-13.304 13.974-20.814 0.48189-1.2245-0.0143-2.3225 0.30379-3.5278 0.8812-3.3393 3.3321-6.225 2.9398-9.868-0.20749-1.9267-6.8723-1.0681-8.3981-1.0681h-21.167c-2.1253 0-6.5893-0.85118-8.4275 0.25479-1.5866 0.95463-0.96613 3.5263-1.1759 5.0369-0.52708 3.795-0.97107 7.8101-0.97993 11.642-3e-3 1.3688 0.23335 4.1249-0.82315 5.1741-0.91633 0.90997-2.6465 0.15119-3.763 0.11759-4.0702-0.12248-7.8238-1.6452-11.994-0.92114-6.053 1.0509-11.649 4.206-16.581 7.7905-2.4318 1.7676-4.2788 4.5939-7.0556 5.8306l-4.1451-8.4667-9.8974-17.286-5.5269-8.9174-4.0667-0.25479h-10.231m64.206 25.047v0.35278h-2.8222v-0.70556l2.8222 0.35278m-3.175 0v0.35278l-2.1167 0.70556 2.1167-1.0583m-2.4694 1.0583-0.35278 0.35278 0.35278-0.35278m-1.0583 4.5861-0.35278 0.35278 0.35278-0.35278m-15.875 5.6444-0.35278 0.35277 0.35278-0.35277m-1.0583 0.70555-0.70556 0.70556 0.70556-0.70556m-1.4111 1.4111-3.5278 4.5861h-0.35278c0.5842-1.8227 2.2145-3.6572 3.8806-4.5861m16.581 2.4694 2.1167 0.70555v0.35278l-5.6444 2.8222-2.1167-0.35277-0.35278 1.4111-1.0583-0.35278-0.35278 1.0583-2.4694 0.35278c-0.27311 1.3785-1.1317 1.674-2.4694 1.7639 0.0063 1.0762-0.67214 0.82178-1.0583 0l1.7639-2.8222h-0.70556l0.35278-1.4111 1.0583 0.35277c1.334-2.517 8.419-4.1427 10.583-2.4694l0.35278-1.4111m33.161 0-0.35277 0.35278 0.35277-0.35278m-34.572 1.4111 0.35278 0.35278-0.35278-0.35278m-5.2917 1.0583 0.35278 0.35278-0.35278-0.35278m-4.1157 1.6463 0.11759 0.23519-0.11759-0.23519m-3.2926 0.11759-0.35278 0.35278 0.35278-0.35278m7.6435 0.1176 0.23518 0.11758-0.23518-0.11758m-5.1741 0.23518 0.35278 0.35278-0.35278-0.35278m-5.6444 0.82315c0.27283 0 0.05651 0.17561-0.11759 0.11759l0.11759-0.11759m2.4694-0.1176-0.35278 0.35278 0.35278-0.35278m58.796 1.2935-0.11759 0.23519 0.11759-0.23519m-9.0546 0.1176 1.0583 2.1167-1.0583-2.1167m-35.983 0.35277c1.1322 4.6478-3.3567 7.4269-7.0556 9.525v-1.4111h-0.35278c0.09083 1.9654-0.07888 3.1356-2.1167 3.8806l-2.1167 3.175-2.8222-1.4111v2.4694h-0.35278l-0.70556-2.1167v-3.8806l1.0583 0.35278-0.35278-1.7639 1.4111 0.35278c0.15531-1.3232 0.35706-2.1907 1.7639-2.4694l2.7928-2.6262 8.8488-4.0765m-14.817 0.70556 0.70556 0.70555 0.70556 1.7639-1.4111 0.35278 0.35278-1.4111-1.7639 1.0583-0.35278-2.1167 1.7639-0.35278m1.4111 0.35278-0.35278 0.35277 0.35278-0.35277m11.289 0 0.35278 0.35277-0.35278-0.35277m-10.583 0.35277 0.35278 0.70556-0.35278-0.70556m11.994 0.35278 0.35278 0.35278-0.35278-0.35278m-15.169 0.70556 0.35278 0.35278-0.35278-0.35278m-2.8222 0.35278-1.0583 1.0583 0.35278-1.0583h0.70556m1.0583 0-0.35278 0.35277 0.35278-0.35277m0.94074 0.58796-0.11759 0.23519 0.11759-0.23519m-3.0574 0.82315v1.0583h-0.35278l0.35278-1.0583m4.2333 0.35277-0.35278 0.35278 0.35278-0.35278m-2.8222 0.70556-0.35278 0.35278 0.35278-0.35278m9.0546 5.762 0.23518 0.11759-0.23518-0.11759m-4.7037 1.5287 0.11759 0.23518-0.11759-0.23518m-3.2926 0.11759-0.70556 0.70556 0.70556-0.70556m2.1167 0-1.4111 1.0583 0.70556 1.7639c-1.7751-0.78793-0.70008-2.2974 0.70556-2.8222m3.175 0.35278 0.35278 0.35278-0.35278-0.35278m-1.4111 0.35278v0.35278l1.4111 0.35278v-0.35278l-1.4111-0.35278m0.70556 1.7639-1.0583 1.0583 0.35278-1.0583h0.70556m-2.4694 3.175-0.35278 0.35278 0.35278-0.35278m85.019 61.031 0.35278 0.70555h-0.70556l0.35278-0.70555m1.0583 1.4111v1.0583h-0.35277l-0.35278-1.0583h0.70555m0.70556 1.4111v1.4111l0.70556-0.70556h0.35277l-0.35277 1.4111 1.0583 2.8222h0.70555v2.4694c-1.4229-0.56765-1.4996-1.7774-1.7639-3.175l0.70555 0.35278-1.4111-1.0583-1.0583-2.1167 1.0583-1.4111m0.35278 2.4694 0.35278 0.35278-0.35278-0.35278m-86.431 10.231-0.70556 1.4111h-0.35278z" fill="#f9f9f9"/><path d="m30.971 74.417 0.08527 3.7042c0.04678 2.0373 0.19202 3.7042 0.32246 3.7042 0.13044 0 0.42074 0.35719 0.64544 0.79375 0.40476 0.78639 0.40685 0.78591 0.22841-0.08785l-0.17983-0.88212 0.43615 0.88212c0.24011 0.48507 0.61708 1.0702 0.83716 1.3007 0.22007 0.23048 0.38122 0.77911 0.35864 1.219-0.02259 0.43994 0.31636 1.1568 0.75292 1.5932s0.79375 1.0922 0.79375 1.4568c0 0.36454 0.10696 0.76945 0.23771 0.9002 0.13076 0.13076 0.28501 0.59372 0.34313 1.0289 0.05812 0.43516 0.17214 1.2866 0.25322 1.8919s0.40343 1.491 0.71624 1.9684c0.31282 0.4774 0.44903 0.99533 0.30282 1.1508-0.1462 0.1555 0.08279 0.07026 0.5085-0.18914 0.66552-0.40552 0.86699-0.38714 1.4387 0.13022 0.36568 0.33094 0.79874 0.60151 0.96222 0.60151s0.58724 0.26283 0.94206 0.58394c0.60654 0.54891 0.64544 0.53744 0.64544-0.19689 0-0.42958-0.13235-0.69938-0.29404-0.59945-0.16169 0.09993-0.29404-0.04977-0.29404-0.33228 0-0.28251 0.06108-0.51366 0.13539-0.51366 0.07431 0 0.59346 0.23726 1.1539 0.5271 0.65494 0.33868 1.0001 0.77969 0.96583 1.2346-0.02932 0.38926-0.25771 0.70797-0.50746 0.70797-0.24975 0-0.45424 0.15892-0.45424 0.35295 0 0.19403 0.12693 0.35243 0.28215 0.35243 0.15522 0 0.46634-0.18419 0.69143-0.40928 0.31048-0.31048 0.5816-0.20371 1.1224 0.44132 0.48504 0.57852 0.65147 1.1506 0.52142 1.7906-0.13712 0.6747-0.01028 1.0455 0.44804 1.3121 0.59501 0.34616 0.59666 0.37241 0.0217 0.38241-0.33955 6e-3 -0.61753 0.16978-0.61753 0.3638 0 0.19403 0.23812 0.35243 0.52917 0.35243 0.29104 0 0.52917 0.0907 0.52917 0.20154 0 0.11087-0.23813 0.44018-0.52917 0.73122-0.29104 0.29104-0.52917 0.75583-0.52917 1.033s0.16194 0.50385 0.35967 0.50385c0.21271 0 0.26332 0.38187 0.12454 0.93483-0.13132 0.52319-0.09528 0.84832 0.08165 0.73897 0.17382-0.10742 0.31626 0.51676 0.31626 1.387 0 1.0998 0.18792 1.7197 0.61702 2.0335 0.33955 0.24828 0.61753 0.53844 0.61753 0.64441 0 0.1058-0.31733 0.10923-0.70538 8e-3 -0.42167-0.11027-0.7059-0.011-0.7059 0.24701 0 0.23694 0.23297 0.34236 0.5178 0.23306 0.28483-0.1093 0.60583-0.0563 0.71314 0.11731 0.10731 0.17319 0.52324 0.25248 0.92449 0.17518 0.61395-0.11824 0.66001-0.0568 0.2899 0.38913-0.33311 0.40137-0.34085 0.62912-0.03152 0.93844 0.22461 0.22461 0.40876 0.54491 0.40876 0.71158 0 0.1667-0.15701 0.20588-0.34882 0.0873-0.19998-0.12359-0.25948 0.0178-0.13901 0.33176 0.11555 0.30112 0.4407 0.54777 0.72244 0.54777 0.28174 0 0.41447 0.15841 0.29456 0.35243-0.11992 0.19403 0.06913 0.35832 0.42013 0.36432s0.9319 0.23344 1.2909 0.5054 0.55877 0.64592 0.44442 0.83095c-0.11436 0.18503 0.05187 0.31496 0.36897 0.28836 0.36232-0.0304 0.62582 0.27929 0.70952 0.83354 0.07325 0.48507 0.14023 1.1488 0.14883 1.4754 0.0086 0.32661 0.26044 0.797 0.55914 1.0449 0.2987 0.2479 0.87069 0.6154 1.2712 0.817 0.40055 0.20161 0.80087 0.58726 0.88987 0.8568 0.10641 0.32227 0.01002 0.39606-0.28215 0.21549-0.29249-0.18077-0.38827-0.10713-0.28009 0.21549 0.09038 0.26954 0.38867 0.51134 0.66301 0.53744 0.27434 0.0261 0.64244 0.066 0.81804 0.0884 0.17559 0.0224 0.02291 0.36801-0.339 0.76791-0.56314 0.62226-0.58349 0.77379-0.14263 1.0526 0.40422 0.25564 0.3443 0.32725-0.27854 0.33125-0.43656 3e-3 -0.79375 0.0719-0.79375 0.15296 0 0.0811 0.09617 0.39899 0.21394 0.7059 0.11777 0.30691 0.3559 0.55759 0.52917 0.55759v5.2e-4c0.17327 0 0.31523-0.23812 0.31523-0.52917 0-0.29104 0.15892-0.52917 0.35295-0.52917s0.35243-0.17886 0.35243-0.39739c0-0.21854 0.48765-1.3572 1.0837-2.5301 0.596-1.1729 1.0959-2.5683 1.111-3.1011 0.01515-0.53279-0.33158-1.8944-0.77101-3.0262-0.43943-1.1318-1.0982-2.7308-1.464-3.5533-0.36575-0.82251-0.66508-1.7507-0.66508-2.0624s-0.31273-1.0061-0.69505-1.5431c-0.38232-0.53693-0.59439-1.0773-0.47077-1.201 0.12362-0.12362 0.03981-0.22479-0.18655-0.22479-0.22636 0-0.41134 0.12355-0.41134 0.2744 0 0.15086 0.21396 0.58725 0.47594 0.96997s0.57274 1.3312 0.6904 2.1074c0.173 1.1411 0.14031 1.276-0.17157 0.70539-0.21211-0.38805-0.66327-1.0232-1.0025-1.4113-0.33926-0.38805-0.73581-1.1024-0.88108-1.5875s-0.7033-1.8341-1.2402-2.9983-1.082-2.4738-1.2113-2.9104c-0.12928-0.43656-0.38335-0.79375-0.56431-0.79375s-0.32866-0.23813-0.32866-0.52917-0.1855-0.52916-0.41186-0.52916c-0.22637 0-0.31118-0.10069-0.18862-0.22325 0.12256-0.12256-0.18386-0.91613-0.68058-1.7637-0.49671-0.84758-0.78373-1.541-0.6382-1.541s0.02324-0.27798-0.27182-0.61753c-0.29505-0.33955-0.64011-1.0539-0.76688-1.5875-0.12677-0.53358-0.46082-0.96997-0.74207-0.96997-0.28125 0-0.43441-0.20034-0.34055-0.44493 0.09386-0.24459-0.30795-0.96869-0.89297-1.6092s-1.064-1.4798-1.064-1.8655-0.26608-1.2094-0.59118-1.8304c-0.32509-0.62096-0.63221-1.492-0.68265-1.9353-0.05044-0.44326-0.57416-1.5899-1.1638-2.5482-0.5896-0.95822-1.1725-2.1431-1.2955-2.6334-0.12306-0.49029-0.36547-0.89142-0.53847-0.89142-0.17299 0-0.31419-0.37834-0.31419-0.84078 0-0.53876-0.24884-0.90563-0.69246-1.0216-0.48208-0.12607-0.64854-0.4095-0.54777-0.93276 0.08002-0.41551-0.0048-0.65892-0.18965-0.54467-0.18388 0.11365-0.34551-0.0805-0.35915-0.4315-0.02351-0.60499-0.03805-0.60424-0.28112 0.01344-0.22938 0.58289-0.30426 0.59352-0.71107 0.10335-0.2501-0.30135-0.35738-0.70586-0.23823-0.89865 0.11915-0.19279-0.09469-0.51712-0.47542-0.72089-0.38073-0.20376-1.507-0.37052-2.5027-0.37052zm14.189 0c-0.17686 0-0.28705 0.23455-0.24495 0.52142s0.46466 0.9476 0.93896 1.4681c0.4743 0.52053 0.6637 0.83222 0.42116 0.69246-0.24254-0.13975-0.4408-0.17658-0.4408-0.08165 0 0.09493 0.4583 1.1757 1.0185 2.4019s1.1355 2.6264 1.2785 3.1114 0.55215 1.1613 0.9095 1.5022c0.35736 0.34094 0.56663 0.83609 0.46509 1.1007-0.10154 0.26462 0.04011 0.56745 0.31471 0.67283 0.2746 0.10538 0.59787 0.68405 0.7183 1.2862 0.12044 0.60218 0.7901 2.3227 1.4883 3.823 0.69818 1.5003 1.8924 4.0217 2.6536 5.6033 0.76119 1.5816 1.3839 3.0679 1.3839 3.3032 0 0.23525 0.29013 1.005 0.64492 1.7105 0.35479 0.70552 0.99046 1.9975 1.4123 2.8706 0.42186 0.87312 0.76638 1.7757 0.76584 2.0056-5.39e-4 0.22991 0.18922 0.86457 0.42116 1.4108 0.23194 0.54621 0.4412 1.1521 0.4656 1.3462 0.0244 0.19402 0.32158 0.9876 0.65991 1.7637 0.33833 0.77611 0.70673 1.8604 0.81856 2.4097 0.195 0.95784 0.2273 0.97246 0.7922 0.35295 0.32395-0.35526 1.7698-1.9081 3.2132-3.451 1.4434-1.5428 2.0966-2.3763 1.4511-1.8521-0.64548 0.52418-1.298 0.95292-1.4495 0.95292s-1.2783-1.9449-2.5042-4.3217c-1.2259-2.3768-3.2122-6.0678-4.4142-8.2021-1.202-2.1343-3.0791-5.3549-4.1713-7.1572-1.0922-1.8023-1.9859-3.3578-1.9859-3.4566 0-0.09879-0.54387-1.0298-1.2087-2.0691-0.66484-1.0393-1.8745-3.1354-2.6877-4.6576-0.8132-1.5222-1.7773-3.0954-2.1425-3.4959-0.36523-0.40056-0.66404-0.91667-0.66404-1.1467s-0.14457-0.41806-0.32143-0.41806zm67.088 0 0.0387 2.9104c0.0212 1.6007-0.0948 5.7679-0.25786 9.2604-0.16306 3.4925-0.26871 8.1359-0.23461 10.319 0.0411 2.6306-0.0652 3.9688-0.31626 3.9688-0.20831 0-0.37879 0.44659-0.37879 0.99219 0 0.67478 0.31212 1.2228 0.97668 1.7141 0.53733 0.39726 1.3147 0.82963 1.7276 0.96067 0.5308 0.16846 0.69765 0.44155 0.56947 0.93173-0.0997 0.3813-0.34578 0.69298-0.54725 0.69298s-0.12275 0.27798 0.17518 0.61753c0.36224 0.41283 0.44694 0.85111 0.2558 1.3229-0.15721 0.3881-0.29698 0.52901-0.31058 0.31316-0.0136-0.21582-0.42114-0.34921-0.90537-0.29611-0.48424 0.0532-0.98458-0.0717-1.1121-0.27802-0.1275-0.20629 0.0584-0.58789 0.41341-0.84749 0.35499-0.25961 0.54199-0.57526 0.41548-0.70177-0.1265-0.1265-0.52261 0.13154-0.88057 0.57361l-0.65112 0.80408-0.73381-0.93379-0.73432-0.93327 0.12195 1.3167c0.0673 0.72432 0.36917 1.4977 0.67076 1.7182 0.3016 0.22053 0.54881 0.58913 0.54881 0.81907 0 0.28672-0.38825 0.3449-1.2351 0.18604-1.1651-0.21858-1.2346-0.17728-1.2346 0.7276 0 0.70749 0.13878 0.90532 0.52917 0.75551 0.32234-0.12369 0.52917-3.6e-4 0.52917 0.31523 0 0.28495 0.15252 0.51831 0.33899 0.51831s0.66272 0.34741 1.0583 0.77205c0.39561 0.42434 0.71933 0.61504 0.71933 0.42323s-0.18794-0.53676-0.41754-0.76636c-0.22958-0.2296-0.32757-0.50701-0.21808-0.6165 0.10948-0.10949 0.46484 0.0669 0.79013 0.39222 0.32525 0.3253 0.50826 0.80936 0.40618 1.0754-0.1021 0.26602-0.12171 0.48369-0.0434 0.48369 0.0783 0 0.54927-0.15494 1.047-0.34417 0.78118-0.297 0.90537-0.2489 0.90537 0.34985 0 0.60993 0.18065 0.6708 1.4991 0.50747 0.82461-0.10215 1.936-0.37738 2.4696-0.61185 0.53358-0.23448 0.96997-0.53709 0.96997-0.67231 0-0.13521-0.14805-0.33692-0.32867-0.44855s-0.42796-0.0417-0.54983 0.15554c-0.12187 0.19719-0.67899 0.35864-1.2382 0.35864s-1.126-0.17651-1.2594-0.39223c-0.13332-0.21572-0.0717-0.49788 0.13695-0.62683 0.24399-0.15079 0.26208-0.42012 0.0506-0.75448-0.27616-0.43667-0.32883-0.42089-0.33383 0.0977-3e-3 0.33955-0.16461 0.61753-0.35863 0.61753s-0.35244-0.13422-0.35244-0.29817c0-0.16396 0.31734-0.58571 0.70539-0.93689 0.49794-0.45064 0.7059-0.50115 0.7059-0.17209 0 0.25642 0.10435 0.36177 0.23202 0.2341s0.445-0.0554 0.70539 0.16071c0.3504 0.29077 0.61087 0.27906 1.0025-0.046 0.29105-0.24154 0.52917-0.58826 0.52917-0.76998 0-0.18177-0.15893-0.23206-0.35295-0.11214s-0.35244 0.0592-0.35244-0.13487c0-0.19403 0.15842-0.45059 0.35244-0.57051 0.19402-0.11991 0.35295-0.0392 0.35295 0.17932 0 0.24308 0.28765 0.30599 0.74052 0.16226 0.62959-0.19983 0.70514-0.12437 0.50591 0.50333-0.18529 0.58378-0.1144 0.69178 0.339 0.5178 0.39087-0.14999 0.63365 0.0113 0.76326 0.50694 0.1247 0.47679 0.39094 0.66479 0.77308 0.54622 0.50779-0.15758 0.50299-0.11523-0.0351 0.32815-0.33955 0.27977-0.61702 0.61019-0.61702 0.73432s0.23813 0.22583 0.52917 0.22583 0.52917 0.20751 0.52917 0.46147-0.20942 0.74795-0.46509 1.0976c-0.43558 0.59568-0.50221 0.598-1.0583 0.0419-0.32642-0.32641-0.59324-0.83956-0.59324-1.1405 0-0.44402-0.0987-0.4651-0.524-0.11213-0.45882 0.38079-0.43702 0.54589 0.17622 1.3255 0.38527 0.48979 0.70021 1.1724 0.70021 1.5167 0 0.58769-0.0881 0.58294-1.4444-0.0724-1.3166-0.63609-1.4987-0.64868-2.0562-0.14417-0.33642 0.30445-0.77977 0.55345-0.98547 0.55345s-0.35194 0.25673-0.32504 0.57051c0.032 0.3731-0.27959 0.60844-0.90021 0.67954-0.71407 0.0818-0.8997-0.0195-0.75034-0.40876 0.10918-0.28449 0.0598-0.48473-0.10955-0.44493-0.16933 0.0398-0.74956-0.0517-1.2893-0.20309-0.9107-0.2555-0.93577-0.30988-0.35243-0.75241 0.57758-0.43819 0.55047-0.47752-0.33073-0.48782-0.7517-9e-3 -0.91037 0.11555-0.73381 0.57567 0.15147 0.39476 0.0899 0.50327-0.18758 0.33176-0.25809-0.15951-0.40798-0.0156-0.39998 0.38344 7e-3 0.351 0.20515 0.97409 0.4408 1.3849 0.23566 0.41084 0.93958 1.324 1.5642 2.0288 0.62466 0.70482 1.3113 1.2811 1.5255 1.2811 0.21416 0 0.33762 0.26324 0.27492 0.58446s-0.39167 0.62467-0.73122 0.67437-0.61753-0.10151-0.61753-0.33589c0-0.23601-0.43269-0.41489-0.96997-0.40049-0.53358 0.0143-1.0639-0.10561-1.1787-0.26666-0.11479-0.16105-0.7101-0.35596-1.3229-0.43356s-1.1142 0.01-1.1142 0.19482c0 0.18481 0.39653 0.3359 0.8816 0.3359s0.88212 0.14729 0.88212 0.32711c0 0.17981 0.50069 0.57635 1.1126 0.8816 0.61189 0.30525 1.3885 0.555 1.726 0.555 0.33749 0 0.69044 0.19932 0.78394 0.44287 0.0935 0.24356-0.0375 0.63659-0.29094 0.87333-0.36649 0.34235-0.49364 0.30585-0.62064-0.17828-0.10458-0.39871-0.17203-0.30436-0.19533 0.27337-0.0195 0.48507 0.0812 1.0582 0.22376 1.2738 0.14255 0.2156 0.97378 0.5011 1.8469 0.63407 0.87312 0.13296 1.8812 0.4616 2.2402 0.7307 0.35898 0.26911 0.56249 0.63539 0.45216 0.81391-0.11772 0.19047-0.97061 0.20629-2.064 0.0382-1.0248-0.15751-4.5388-0.34428-7.8088-0.41548-5.8952-0.12831-5.9324-0.1247-4.4096 0.46819 0.84473 0.32889 2.6467 0.71457 4.0049 0.85679s2.787 0.43492 3.175 0.65061c0.38805 0.21568 0.82496 0.41797 0.97048 0.44907s0.44263 0.076 0.66042 0.10025c0.28916 0.0322 0.28699 0.17589-9e-3 0.53227-0.33131 0.39921-0.10923 0.53186 1.2237 0.73174 0.89577 0.13433 1.5424 0.33034 1.4371 0.43563-0.1053 0.10528-1.7471 0.16758-3.6484 0.13798-2.4797-0.0386-4.7532 0.20342-8.0429 0.85731-2.5224 0.50136-5.4591 1.1621-6.5262 1.4681-1.0672 0.30604-3.5281 1.1826-5.4684 1.9477-1.9403 0.76512-5.1943 2.276-7.2316 3.3574-2.0373 1.0814-4.1012 2.269-4.5863 2.6396s-2.0722 1.4604-3.5269 2.4216c-1.4548 0.9612-2.6906 1.6102-2.7466 1.4423s0.97514-1.7284 2.2918-3.4675c1.3167-1.7391 3.5446-4.5962 4.9506-6.3495 1.406-1.7532 3.8664-4.3145 5.4679-5.6916 1.6014-1.3772 3.4674-2.96 4.1465-3.5176s1.9489-1.4856 2.822-2.0624c0.87312-0.57677 2.7432-1.4928 4.1553-2.0355 1.4121-0.54277 2.7983-1.2181 3.0804-1.5002 0.37161-0.37162 1.5107-0.53209 4.1352-0.58239 2.4007-0.046 3.7851-0.22372 4.1052-0.5271 0.26559-0.25178 0.3632-0.56911 0.21653-0.70539-0.14668-0.13628-0.33767-0.0493-0.42427 0.19327-0.0866 0.24253-0.56334 0.4408-1.0594 0.4408-0.49601 0-1.078-0.22206-1.2935-0.49351-0.21541-0.27145-0.78718-0.61195-1.2707-0.75654-0.76766-0.22955-0.82132-0.19328-0.42374 0.28577 0.27326 0.32926 0.32019 0.63219 0.1173 0.75758-0.18594 0.11495-0.56954 0.12032-0.85214 0.0119-0.28261-0.10845-1.5271 0.13446-2.7657 0.54002-1.2386 0.40555-2.5699 0.87633-2.958 1.0459-0.38806 0.16961-1.7609 0.78329-3.051 1.3637-1.2901 0.58044-3.5805 1.9842-5.0901 3.1192-1.5096 1.135-3.3116 2.5382-4.0044 3.1182-0.69281 0.57994-2.1821 2.0087-3.3094 3.175-1.1273 1.1663-2.3127 2.5572-2.6339 3.0908-0.32125 0.53358-0.74808 0.97158-0.94878 0.97358-0.2007 2e-3 -1.0318 0.91462-1.8469 2.0283-0.81512 1.1137-1.9625 2.5465-2.5497 3.1843-0.58719 0.63777-1.5473 1.857-2.1337 2.7094-0.58647 0.8524-1.0666 1.6226-1.0666 1.711s-0.63793 1.1164-1.418 2.2846c-0.78007 1.1682-1.7189 2.9723-2.0862 4.0091-0.36725 1.0368-1.0777 2.9961-1.5787 4.3542-0.50102 1.3582-0.96535 2.6285-1.032 2.8226-0.06663 0.19402-0.37892-0.14332-0.6935-0.74931-0.31458-0.60599-0.49497-1.1788-0.40101-1.2728s-0.07117-0.37159-0.3669-0.61702c-0.29573-0.24503-0.53744-0.35513-0.53744-0.24391 0 0.11123 0.17178 1.0036 0.38189 1.9833s0.53123 1.7813 0.71365 1.7813 0.06306 0.41046-0.26562 0.91209c-0.4332 0.66115-0.48567 0.98132-0.18965 1.1643 0.22459 0.13881 0.46775 0.79248 0.54002 1.4526 0.07227 0.66013 0.3133 1.2611 0.53588 1.3353 0.22258 0.0742 0.31483 0.2804 0.20516 0.45786-0.10967 0.17745-0.03081 0.32246 0.17467 0.32246 0.20548 0 0.3731 0.13321 0.3731 0.2961 0 0.16288-0.39364 0.47578-0.87488 0.69505-0.6353 0.28947-0.8099 0.57023-0.63717 1.0263 0.13084 0.34545 0.44418 0.83703 0.69608 1.0919 0.2519 0.25486 0.62185 0.36204 0.82217 0.23823 0.20032-0.12381 0.32663-0.0943 0.2806 0.0656-0.04603 0.15994 0.11538 0.65008 0.35863 1.0888 0.24325 0.43876 0.39723 0.99421 0.3421 1.2346-0.05513 0.24033 0.08244 1.0718 0.30592 1.848 0.22349 0.77611 0.60401 2.2824 0.84543 3.3471 0.24142 1.0646 0.55714 3.2078 0.70177 4.7625 0.21751 2.3382 0.24366 2.0338 0.15038-1.7596-0.06203-2.5224-0.22293-5.2209-0.3576-5.997-0.24454-1.4093-0.24386-1.41 0.4563-0.70539 0.38559 0.38806 0.6174 0.84873 0.51521 1.0242s-0.01371 0.21283 0.19689 0.0827c0.2106-0.13016 0.48274-0.0752 0.60461 0.12196 0.12187 0.19719 0.38157 0.35812 0.57723 0.35812 0.19564 0 0.25494-0.31733 0.13177-0.70539-0.12316-0.38805-0.07603-0.70538 0.10439-0.70538 0.18042 0 0.28482-0.3898 0.23254-0.8661-0.05228-0.47629 0.12853-1.0514 0.40153-1.278 0.27299-0.22657 0.49609-0.55113 0.49609-0.7214s-0.23676-0.30954-0.52658-0.30954c-0.34362 0-0.48599-0.27013-0.40876-0.77618 0.06514-0.42683-0.08433-1.4499-0.33228-2.2738-0.24795-0.82388-0.62035-1.8147-0.82734-2.2014-0.20698-0.38676-0.25073-0.7808-0.09767-0.8754 0.15306-0.0946 0.69534 0.72943 1.2056 1.8309 0.51027 1.1015 1.6365 3.6693 2.5022 5.7066 0.86571 2.0373 2.1847 5.2587 2.9316 7.1582 1.1428 2.9065 1.4708 3.4372 2.0686 3.3512 0.39067-0.0562 0.93115-0.56499 1.2015-1.1307 0.43356-0.90727 0.4237-1.0782-0.08475-1.45-0.31702-0.23181-0.57619-0.76098-0.57619-1.1762s0.15494-0.755 0.34417-0.755c0.2187 0 0.22504-0.31266 0.01757-0.85834-0.22086-0.58094-0.20086-0.90077 0.06253-0.98857 0.25653-0.0855 0.19341-0.42886-0.18552-1.0072-0.31621-0.4826-0.53898-1.3869-0.49506-2.0097 0.05634-0.79894 0.25631-1.1322 0.67954-1.1328 0.32991-3.8e-4 0.72696 0.20947 0.88212 0.46664 0.15516 0.25716 0.55962 0.56973 0.89917 0.69453s0.61753 0.38579 0.61753 0.57981-0.23812 0.26155-0.52917 0.14986c-0.29104-0.11168-0.52917-0.0447-0.52917 0.14935 0 0.19403 0.21818 0.43669 0.48472 0.53898 0.28636 0.10988 0.68308-0.19942 0.96997-0.75603 0.26703-0.51809 0.68402-1.1518 0.92656-1.4082 0.24254-0.25636 0.4408-0.36623 0.4408-0.24391s0.17593 0.11412 0.39067-0.0186c0.27229-0.16828 0.24542-0.33492-0.08837-0.54984-0.29873-0.1924-0.06636-0.22916 0.61753-0.0982 0.83589 0.16007 1.1506 0.0666 1.327-0.39325 0.1818-0.47377 0.3374-0.51454 0.7276-0.19069 0.39016 0.3238 0.57283 0.2765 0.85163-0.22169 0.19514-0.34872 0.46582-0.52276 0.60203-0.38654 0.13621 0.13621 0.8029 0.0162 1.481-0.26717 0.67815-0.28334 1.6895-0.51521 2.2479-0.51521 0.583 0 1.0105-0.18809 1.0041-0.44132-0.0062-0.24253-0.23462-0.73536-0.50746-1.0955-0.39531-0.52185-0.94838-0.65027-2.7228-0.63097-1.2247 0.0133-2.8614 0.0854-3.6375 0.1602s-2.0465 0.26053-2.8226 0.41237c-0.77611 0.15186-1.5776 0.40719-1.7813 0.56741-0.20366 0.16022-1.0235 0.39578-1.8221 0.52348-1.3249 0.21186-1.4622 0.16123-1.5699-0.57464-0.07786-0.53202-0.47848-0.92368-1.1767-1.1514-0.58208-0.18981-1.1375-0.45239-1.2346-0.58343s-0.6773-0.52962-1.2898-0.88573c-0.61254-0.35611-1.0384-0.84392-0.9462-1.0842 0.09219-0.24024-2e-3 -0.54164-0.20929-0.66973-0.20726-0.12809-0.37672-0.54117-0.37672-0.91777 0-0.37661-0.16962-0.68471-0.37672-0.68471-0.216 0-0.28091-0.30064-0.15244-0.70539 0.17464-0.55024 0.06339-0.70538-0.5054-0.70538-0.40113 0-0.72967-0.14585-0.72967-0.32401s-0.09617-0.57521-0.21394-0.88212c-0.15351-0.40003-0.0037-0.5581 0.52917-0.5581 0.40881 0 0.74311-0.15283 0.74311-0.34003s-0.31733-0.51063-0.70538-0.71831c-0.38805-0.20769-0.70538-0.5398-0.70538-0.73845 0-0.19866 0.1584-0.26306 0.35243-0.14315 0.19403 0.11992 0.35295 0.0592 0.35295-0.13487 0-0.19403-0.13439-0.4359-0.29869-0.53744-0.1643-0.10155-0.31242-0.66691-0.32918-1.2562s-0.13104-1.4283-0.25373-1.8645c-0.14052-0.49961-0.10855-0.6302 0.08578-0.35243 0.24262 0.34674 0.4547 0.32794 0.99322-0.0889 0.57085-0.44185 0.58184-0.49447 0.06718-0.31523-0.33955 0.11828-0.61671 0.0789-0.61598-0.0873 7.26e-4 -0.16628 0.29286-0.78017 0.64906-1.3643 0.3562-0.5841 1.9829-2.2564 3.6148-3.7166 1.6319-1.4602 3.5222-3.0532 4.2013-3.5398 0.6791-0.48665 2.3741-1.5523 3.7662-2.3683 1.3921-0.81607 2.6117-1.4841 2.7104-1.4841s0.94391-0.46954 1.8784-1.0434c0.93452-0.57382 3.2076-1.58 5.0509-2.236 1.8433-0.65605 4.4626-1.4506 5.8208-1.7658 1.3582-0.31519 3.79-0.8329 5.4043-1.1503 1.6143-0.31742 4.6092-0.65203 6.6549-0.74363 2.0604-0.0923 4.8032 0.0164 6.149 0.2434 1.3362 0.22537 2.4482 0.59356 2.4712 0.81856 0.0227 0.22501 0.0185 0.54027-9e-3 0.70021-0.0278 0.1599 0.11478 0.1884 0.31678 0.0636 0.20201-0.12485 0.25473-0.41424 0.1173-0.64337-0.15384-0.25647-0.0285-0.23726 0.32608 0.0501 0.31674 0.25672 0.49558 0.67708 0.39688 0.93431s-0.0104 0.57264 0.19688 0.70073c0.20726 0.12809 0.37724-5e-3 0.37724-0.29611 0-0.29105 0.11907-0.60286 0.26459-0.69246 0.14551-0.0896 0.30294 0.36245 0.34984 1.0041 0.0761 1.0404-5.7e-4 1.1483-0.7059 0.99943-0.6975-0.14718-0.71758-0.1201-0.17311 0.22789 0.33955 0.21702 0.62962 0.82327 0.64492 1.3472 0.0153 0.52394 0.10777 0.75413 0.20567 0.5116 0.0979-0.24254 0.40313-0.4408 0.678-0.4408s0.49971 0.15365 0.49971 0.34158c0 0.18794 0.2221 0.2566 0.49351 0.15245 0.27142-0.10415 0.60937-2e-3 0.75086 0.22686 0.1415 0.22895 0.093 0.51762-0.10801 0.64182-0.23537 0.14547-0.095 0.81932 0.39533 1.8934 0.41864 0.9171 0.95997 1.6708 1.2025 1.6748 0.24253 4e-3 0.4408 0.1313 0.4408 0.28216 0 0.15085-0.24075 0.61778-0.53485 1.0377-0.48468 0.69198-0.47627 0.80001 0.0884 1.157 0.44488 0.28132 0.49684 0.44694 0.18191 0.57929-0.24254 0.10192-0.4408 0.50653-0.4408 0.89917 0 0.47115-0.17029 0.64854-0.50023 0.52193-0.27514-0.10558-0.60081 0.0719-0.72451 0.39429-0.13356 0.34805 9e-3 0.75683 0.3514 1.0072 0.46017 0.33649 0.49683 0.56897 0.18294 1.1555-0.21619 0.40396-0.56297 0.73484-0.7705 0.73484s-1.1686 0.39736-2.1358 0.88315c-0.96717 0.48578-1.9028 0.79389-2.0795 0.68471s-0.32143-0.0333-0.32143 0.16847c0 0.20178-0.39653 0.46633-0.8816 0.58808-0.48507 0.12174-0.88212 0.36289-0.88212 0.53588 0 0.173-0.20954 0.31471-0.4656 0.31471-0.25605 0-0.81072 0.39653-1.2325 0.8816-0.42176 0.48507-0.95103 0.88212-1.1762 0.88212-0.22511 0-1.02 0.66127-1.7663 1.4697-0.90899 0.98461-1.3565 1.8-1.3565 2.4696 0 0.59496 0.18932 0.99942 0.46767 0.99942 0.25722 0 0.84035-0.39653 1.296-0.8816s1.1977-0.88211 1.649-0.88211 0.82063-0.16291 0.82063-0.36174 0.35719-0.49703 0.79375-0.66301c0.43656-0.16599 0.93807-0.30664 1.1147-0.31264 0.17658-6e-3 0.46249-0.2626 0.6351-0.57102 0.20116-0.35946 0.7958-0.56121 1.6573-0.56121 1.0655 0 1.6761-0.29196 2.9471-1.4108 0.88171-0.77611 1.7419-1.4113 1.9115-1.4113s0.55914-0.27798 0.86558-0.61753 0.89924-0.895 1.3172-1.2346c0.418-0.33955 0.93413-0.61754 1.1467-0.61754s0.30124 0.22263 0.19689 0.49455c-0.11335 0.29537 0.0883 0.56741 0.50126 0.67541 0.3802 0.0994 0.66774 0.31319 0.63924 0.47542-0.0288 0.16223-0.0305 0.45399-5e-3 0.64802 0.026 0.19403 0.20104 0.11431 0.38912-0.17673 0.28788-0.4454 0.34227-0.42454 0.34727 0.12971 4e-3 0.51407 0.20208 0.62055 0.90175 0.48679 0.72468-0.13853 1.1211 0.10708 2.0733 1.2821 0.6476 0.79921 1.2896 1.8176 1.4263 2.2634 0.15141 0.49383 0.0677 1.0289-0.21446 1.3689-0.41074 0.49491-0.33409 0.53298 0.67645 0.33589 0.62678-0.12224 1.6157-0.31441 2.1978-0.42684 0.58207-0.11243 1.0583-0.41047 1.0583-0.66249 0-0.25201-0.68937-1.7076-1.5317-3.235-0.84231-1.5273-3.0724-5.7935-4.9558-9.48-1.9751-3.8662-3.0352-6.2546-2.5053-5.6441 0.50527 0.58208 1.2906 1.7727 1.7451 2.6458 0.45454 0.87313 1.3123 2.1968 1.9063 2.9414 0.594 0.74462 1.171 1.6401 1.2821 1.99 0.11677 0.36793 0.64322 0.70082 1.2485 0.78962 0.5806 0.0852 1.0464-7e-3 1.0464-0.20826 0-0.20708 0.18778-0.17498 0.43822 0.0755 0.34837 0.34885 0.34776 0.49371-3e-3 0.71055-0.32502 0.20087-0.23142 0.45147 0.35605 0.9555 0.45899 0.3938 1.1847 0.63759 1.7136 0.57619 0.66063-0.0767 1.0795 0.14076 1.4955 0.77567 0.32143 0.4906 0.47447 1.1504 0.3452 1.4872-0.15766 0.41084-0.0997 0.52344 0.18035 0.35037 0.227-0.14029 0.41289-0.0964 0.41289 0.0977 0 0.19403-0.18058 0.46425-0.40101 0.60048-0.26632 0.1646-0.11804 0.47762 0.44132 0.93327 0.46295 0.37718 0.60368 0.56676 0.31264 0.42117-0.29104-0.14558-0.0646 0.17693 0.50385 0.71675l1.0335 0.98134 3.0236-0.60565c1.6629-0.33311 3.3016-0.68001 3.6411-0.77101 0.33955-0.091 0.61702-0.0151 0.61702 0.16846s-0.4364 0.49869-0.96997 0.70073c-0.53357 0.20205-1.8819 0.63985-2.9962 0.97255-1.1143 0.33271-2.2928 0.79972-2.619 1.0382-0.53799 0.39339-0.48933 0.53498 0.52659 1.5281 0.61582 0.60198 1.1198 1.2455 1.1198 1.4299 0 0.18439 0.16749 0.39121 0.37208 0.45941 0.2046 0.0682 0.43017 0.43867 0.50177 0.8232s0.14282 0.81825 0.15762 0.96377c0.0148 0.14549 0.22514 0.22471 0.46767 0.17621 0.24855-0.0497 0.49015 0.33762 0.55345 0.8878 0.0617 0.53687 0.22612 0.90569 0.36536 0.81959 0.13925-0.0861 0.27477 0.10982 0.30127 0.43512s0.12479 0.98822 0.21859 1.4733 0.34576 1.7441 0.55966 2.7978c0.2139 1.0537 0.60808 2.1651 0.87591 2.4696s0.59352 1.0563 0.72399 1.6707c0.13046 0.61438 0.46305 1.2036 0.73897 1.3095 0.28028 0.10754 0.40982 0.43228 0.29352 0.73536-0.11451 0.29838-0.0324 0.54208 0.18242 0.54208 0.21479 0 0.39067 0.155 0.39067 0.34417s0.47625 1.3837 1.0583 2.6546c0.58208 1.2709 1.0583 2.8775 1.0583 3.5703 0 0.69281 0.22043 1.6812 0.48989 2.1962 0.26947 0.51501 0.906 2.2062 1.4149 3.7584 0.50892 1.5522 0.9234 3.3116 0.9214 3.9098-2e-3 0.59824 0.11492 1.2072 0.26044 1.3529s0.39777-0.29797 0.56069-0.98547l1e-3 5.2e-4c0.17472-0.73737 0.14902-1.9414-0.0631-2.9357-0.19774-0.92709-0.30493-1.7404-0.23823-1.8071s0.45213 0.0563 0.8568 0.27285c0.40467 0.21659 0.73587 0.24892 0.73587 0.0718 0-0.1771-0.24978-0.52958-0.555-0.7829-0.30522-0.25331-0.84081-1.0267-1.1901-1.7188-0.46042-0.91225-0.70307-2.5205-0.88315-5.8482-0.13662-2.5245-0.3796-5.1439-0.5395-5.8208-0.1885-0.79823-0.22099-0.25016-0.0925 1.5591 0.14687 2.068 0.0925 2.7243-0.21084 2.5368-0.22509-0.13912-0.40928-0.69367-0.40928-1.232 0-0.5383-0.10632-1.0851-0.23616-1.2149-0.12985-0.12985-0.29631-0.8238-0.37001-1.5425s-0.27501-1.4764-0.447-1.6836-0.36825-0.79186-0.43615-1.2991-0.33009-1.1714-0.58239-1.4754c-0.25227-0.304-0.34528-0.73593-0.20671-0.96015 0.13858-0.22422 0.0406-0.53805-0.21755-0.69763-0.2582-0.15957-0.49595-0.73732-0.52865-1.2836-0.0327-0.54634-0.0799-1.189-0.10491-1.4278-0.025-0.23884-0.42876-0.52996-0.8971-0.6475-0.76617-0.19229-0.84092-0.37509-0.74362-1.8185 0.0595-0.88235-0.11787-2.1455-0.39429-2.8071-0.27601-0.66156-0.40153-1.3659-0.27802-1.5658 0.12352-0.19985-0.1371-0.74887-0.5793-1.2196-0.44217-0.47071-0.66758-0.85576-0.50074-0.85576 0.16683 0 0.67077 0.345 1.1198 0.76688 0.44907 0.42188 0.81649 1.057 0.81649 1.4113s0.16194 0.64389 0.35966 0.64389c0.21315 0 0.26506-0.39469 0.12764-0.96997-0.12747-0.53357-0.39821-1.1808-0.60151-1.4382-0.26176-0.33132-0.24647-0.54354 0.0522-0.72812 0.31642-0.19556 0.24085-0.78349-0.30282-2.3544-0.60697-1.7538-0.6639-2.338-0.35037-3.5967 0.20586-0.82644 0.73797-2.3344 1.1824-3.3512 0.65297-1.4941 0.80385-2.4581 0.78755-5.024-0.0191-3.0064-0.10148-3.3436-1.5555-6.35-0.84454-1.7462-1.7716-3.9554-2.0598-4.9093-0.38315-1.2681-0.60902-1.5999-0.84026-1.2346-0.26378 0.41675-0.31743 0.40687-0.32143-0.0594-3e-3 -0.30748-0.48722-0.98805-1.0759-1.5126-0.58868-0.52451-1.2273-0.85675-1.4196-0.73794-0.19224 0.1188-0.327 0.085-0.2992-0.0749 0.028-0.15994 0.0318-0.49842 9e-3 -0.75241-0.023-0.25395-0.1773-0.37792-0.34313-0.27543-0.16582 0.10248-0.65753-0.19281-1.093-0.65629-0.43542-0.46349-1.2525-1.0334-1.8154-1.2666-0.56292-0.23317-1.0232-0.63776-1.0232-0.89917 0-0.29943-0.21867-0.39183-0.59066-0.24908-0.44195 0.16959-0.53495 0.0828-0.37052-0.34572 0.14759-0.38455 0.0662-0.51396-0.24702-0.39377-0.33645 0.12909-0.41733-0.0748-0.29145-0.73329 0.0959-0.50192 0.50602-1.1453 0.91157-1.4294l0.73742-0.51625-0.81545-0.62012c-0.44845-0.34094-1.4007-1.1756-2.1167-1.8547-0.71599-0.6791-1.4963-1.6828-1.7337-2.2309s-0.35648-1.1184-0.26458-1.2671-0.36842-0.79008-1.0232-1.4247-1.3249-1.0706-1.4893-0.96893-0.61506-0.0608-1.001-0.36071c-0.56841-0.44177-0.58436-0.50464-0.0842-0.33227 0.33954 0.117 0.61754 0.15106 0.61754 0.076 0-0.0751-0.59532-0.50502-1.3229-0.9555-0.7276-0.45047-1.5094-0.77672-1.7374-0.72502-0.2279 0.0517-0.53017-0.0933-0.6718-0.32246-0.17244-0.27903-0.10514-0.3224 0.20413-0.13126 0.29384 0.18162 0.37632 0.14728 0.22685-0.0946-0.12922-0.20908-0.70946-0.4845-1.2893-0.61185-0.57986-0.12736-1.0542-0.38794-1.0542-0.5793 0-0.19137 0.1645-0.65513 0.36535-1.0304 0.29542-0.552 0.24488-0.6938-0.26458-0.7426-0.34638-0.0332-0.86807-0.0958-1.1591-0.139-0.29104-0.0432-0.72744-0.0957-0.96997-0.11628-0.24253-0.0206-0.4408-0.18452-0.4408-0.36432s0.27747-0.39964 0.61702-0.48834c0.36501-0.0954 0.20524-0.17785-0.39068-0.20205-0.74212-0.0301-0.95413-0.18034-0.8046-0.56999 0.1116-0.29104 0.11815-0.52917 0.0145-0.52917-0.10368 0-0.50877 0.17137-0.9002 0.38086-0.55797 0.2986-0.8579 0.24877-1.388-0.231-0.37192-0.33657-0.67593-0.75268-0.67593-0.92449 0-0.17182 0.33434-0.76486 0.74311-1.3178 0.49405-0.66824 0.76015-1.5905 0.79375-2.7513 0.04-1.3825 0.16338-1.7171 0.59272-1.6051 0.40983 0.10693 0.5506-0.16952 0.5762-1.1322 0.0187-0.70067 0.14062-1.3803 0.27078-1.5105 0.13017-0.13016 0.36893-0.02251 0.53072 0.23926 0.16178 0.26177 0.46404 0.37096 0.67127 0.24288 0.20728-0.12809 0.29349-0.45 0.19172-0.7152-0.10176-0.2652-8e-3 -0.59162 0.20878-0.72554 0.28499-0.17615 0.27274-0.38975-0.045-0.77256-0.36718-0.44242-0.32707-0.50976 0.24701-0.4098 0.54525 0.09494 0.68383-0.08016 0.67283-0.85059-8e-3 -0.53358 0.11434-0.96997 0.2713-0.96997 0.15695 0 0.21628-0.38099 0.13178-0.84698-0.0978-0.5392 0.11911-1.1399 0.59582-1.6516 0.50064-0.53737 0.60766-0.8513 0.32298-0.9462-0.23428-0.07809-0.42581-0.28723-0.42581-0.46509s0.23255-0.3235 0.51676-0.3235c0.28422 0 0.69951-0.34165 0.92294-0.75913 0.343-0.64091 0.31984-0.72598-0.14727-0.54674-0.47839 0.18356-0.4693 0.06271 0.0646-0.89297 0.3396-0.60788 0.80801-1.1687 1.0413-1.2464 0.271-0.09034 0.34987 0.09204 0.21859 0.5054-0.18824 0.59273-0.15834 0.58978 0.35295-0.03772 0.30688-0.37663 0.55759-0.82424 0.55759-0.99425 0-0.17002-0.35719-0.19946-0.79375-0.06563-0.43655 0.13384-0.99103 0.40115-1.2325 0.59428-0.31176 0.24938-0.64066 0.109-1.1348-0.48421-0.3827-0.45941-0.70144-0.95415-0.70744-1.0997s0.22147-0.26458 0.50642-0.26458c0.33586 0 0.4394-0.20424 0.29508-0.58033-0.1363-0.35521 0.0311-0.76559 0.43149-1.0583 0.36791-0.26902 0.46104-0.47801 0.21291-0.47801-0.24284 0-0.35333-0.14205-0.24598-0.31574 0.10735-0.1737-0.0325-0.40334-0.31057-0.51005-0.37613-0.14433-0.48137-0.73183-0.41187-2.2939l0.093-2.0996-1.2614-0.20877c-0.69379-0.11478-4.0585-0.21029-7.4776-0.21239zm-5.0266 0.35295c-0.15496 0-0.39145 0.27747-0.52555 0.61702-0.13409 0.33955-0.38661 2.0463-0.56172 3.7925-0.17511 1.7462-0.55742 6.3498-0.84956 10.23-0.29214 3.8806-0.53334 7.175-0.53434 7.3205s-0.26794 0.26458-0.59221 0.26458-0.8735 0.25691-1.2206 0.57102c-0.6033 0.54598-0.59141 0.62281 0.26304 1.743 0.5133 0.67298 1.2953 1.2332 1.8376 1.3162 0.51933 0.0794 1.1507 0.1683 1.403 0.1974 0.3473 0.04 0.45299-0.69733 0.43409-3.0339-0.0137-1.6977 0.0598-6.0239 0.16329-9.6134 0.10348-3.5895 0.2505-8.074 0.3266-9.9658s0.0113-3.4396-0.14366-3.4396zm-52.621 37.872c0.12795-0.0435 0.26211-0.0366 0.37155 0.031 0.21888 0.13528 0.31367 0.38263 0.21032 0.54984s-0.04325 0.39388 0.13384 0.50333c0.1771 0.10945 0.65587 0.83959 1.064 1.6226 0.40815 0.78305 0.74207 1.5777 0.74207 1.7658s-0.23241 0.34158-0.51676 0.34158-0.99873-0.47091-1.5875-1.0464c-0.69042-0.6749-1.0686-1.395-1.0651-2.0283 3e-3 -0.54012 0.1438-1.2007 0.31316-1.4681 0.08468-0.13371 0.2064-0.22777 0.33435-0.2713zm66.292 7.6367c0.14822 0 0.65546 0.62464 1.1276 1.3886 0.47213 0.7639 0.94643 1.335 1.0537 1.2686 0.10727-0.0663 0.18005 0.37205 0.16175 0.9741s-0.20502 1.1518-0.41445 1.2216c-0.20942 0.0698-0.78948-0.57129-1.2893-1.4242s-0.90899-1.9732-0.90899-2.4898 0.12152-0.93896 0.26975-0.93896zm10.043 0.76378c0.0605 3.2e-4 0.11314 0.0196 0.15348 0.0599 0.16138 0.16138 0.29352 1.0603 0.29352 1.9978 0 1.1747-0.11817 1.6068-0.3793 1.3901-0.25827-0.21439-0.37023 0.0767-0.35243 0.91467 0.0162 0.76413 0.17751 1.1713 0.42684 1.0764 0.24634-0.0938 0.33285 0.10892 0.22376 0.52607-0.0977 0.37354-0.21915 0.67954-0.26975 0.67954s-0.2917-0.24021-0.53537-0.53381c-0.24367-0.29361-0.61999-0.49727-0.83664-0.45217s-0.81396-0.19806-1.327-0.54054c-0.62172-0.415-0.87566-0.8418-0.76119-1.2795 0.0945-0.36123 0.51465-0.76789 0.93327-0.90382 0.41863-0.13591 0.88026-0.22977 1.0258-0.20877s0.26458-0.32872 0.26458-0.7767c0-0.44799 0.22505-1.1223 0.50023-1.4986 0.20638-0.28224 0.45883-0.4516 0.64027-0.45062zm7.1541 7.1691c0.0175-0.0298 0.0358-0.0216 0.0543 0.0305 0.074 0.20821 0.57657 0.31381 1.1162 0.23461 0.66279-0.0973 1.5472 0.20514 2.7254 0.93276 0.95933 0.59242 2.2995 1.3852 2.9786 1.7616 0.67909 0.37644 1.6535 1.1359 2.1652 1.6872 0.51177 0.55135 1.0488 1.3916 1.1932 1.8676 0.24732 0.81525 0.22755 0.8306-0.33848 0.26458-0.3305-0.3305-0.90687-0.60099-1.2811-0.60099-0.3742 0-0.68058-0.13651-0.68058-0.30386 0-0.16732-0.38991-0.26159-0.86662-0.20929s-1.5143-0.096-2.3058-0.3297c-0.79148-0.2337-1.3275-0.53646-1.1911-0.67282 0.13635-0.13635-3e-3 -0.24805-0.31058-0.24805-0.3072 0-0.61424-0.16797-0.68264-0.3731-0.0684-0.2051-0.40611-0.2649-0.75034-0.13281-0.58083 0.22287-0.58454 0.28631-0.0491 0.87798 0.31736 0.35068 0.87148 0.61518 1.2314 0.58808 0.35998-0.0271 1.5758 0.36929 2.7016 0.88056 1.1258 0.51126 2.3249 1.0156 2.6644 1.1209 0.33955 0.10525 0.61702 0.33083 0.61702 0.50126s-0.31733 0.67601-0.70538 1.1234c-0.38806 0.44739-0.70539 0.63246-0.70539 0.41135s-0.57218-0.6412-1.2712-0.93328c-0.69904-0.29209-1.7308-0.56595-2.2929-0.60875-0.56213-0.0428-1.0222-0.19173-1.0222-0.33073s-0.87049-0.43338-1.9342-0.65422c-1.0638-0.22084-2.0255-0.54973-2.1373-0.7307s-0.58908-0.32867-1.0604-0.32867c-0.67563 0-0.83938 0.16556-0.77308 0.78393 0.0462 0.43138-0.0747 0.79144-0.26872 0.79944-0.19403 8e-3 -0.55122 0.14055-0.79375 0.29455-0.28394 0.18029-0.4408 0.0844-0.4408-0.26975 0-0.30249-0.27799-0.54767-0.61754-0.54467-0.52759 5e-3 -0.54006 0.055-0.0879 0.34727 0.35479 0.2293 0.38335 0.34378 0.0868 0.34778-0.24324 3e-3 -1.0345-0.31215-1.7586-0.70021l-1.3167-0.7059 1.7586-0.0269c0.96726-0.0148 2.0369-0.0802 2.3766-0.14521 0.33965-0.065 1.1332-0.54856 1.7637-1.0749 0.63047-0.52631 1.2732-1.1753 1.4283-1.4423 0.15516-0.26694 0.63141-0.50408 1.0583-0.52658 0.56155-0.0296 0.6118-0.0843 0.18139-0.19792-0.4446-0.11734-0.58779-0.53022-0.56689-1.6345 0.0115-0.60957 0.0555-1.0403 0.108-1.1296zm0.70642 7.7597c0.11177-0.0195 0.26585-0.0145 0.43563 0.0196 0.33955 0.0682 1.451 0.30722 2.4696 0.53123 1.1586 0.25478 1.8521 0.59223 1.8521 0.90124 0 0.27169 0.35718 0.52334 0.79375 0.55914 0.43656 0.0358 1.1903 0.0835 1.6754 0.10594 0.60114 0.0277 0.94129-0.18122 1.0682-0.6563 0.10237-0.38333 0.367-0.75725 0.58808-0.83095 0.29204-0.0973 0.36017 1.1013 0.24908 4.3832-0.0841 2.4846-0.15998 4.7955-0.16898 5.1351s-0.17036 0.61753-0.35915 0.61753c-0.21109 0-0.19807 0.27158 0.0341 0.70539 0.20771 0.38805 0.29974 0.70538 0.20464 0.70538s-1.4104-1.2192-2.9228-2.7099c-1.5125-1.4907-2.7104-2.8402-2.6618-2.9988 0.0485-0.15856-0.0609-0.28835-0.2434-0.28835-0.18252 0-0.12524-0.39775 0.12713-0.88418 0.2524-0.48644 0.38582-1.2662 0.29662-1.7327-0.0991-0.51815-0.83474-1.3068-1.8903-2.0262-0.95043-0.64776-1.7282-1.2818-1.7286-1.4092-1.9e-4 -0.0637 0.0691-0.10764 0.18087-0.12713zm-0.33435 25.006c-0.50676 0.0344-1.3896 0.39094-2.8102 1.1219-2.0964 1.0787-2.5377 1.4318-2.0247 1.6216 0.36085 0.13349 0.75467 0.50032 0.8754 0.81494 0.13083 0.34094 8e-3 0.65342-0.30386 0.77308-0.28777 0.11043-0.52296 0.31718-0.52296 0.45992 0 0.14318 1.6927 0.20616 3.7615 0.14056 2.0688-0.0657 3.8393-0.19771 3.9346-0.29301s-0.31704-1.0878-0.91622-2.2061-1.3218-2.1814-1.6061-2.3621c-0.0913-0.0581-0.21865-0.0823-0.38757-0.0708zm3.8566 5.4488-2.0056 0.20154c-1.1032 0.11104-2.9376 0.46115-4.0762 0.77773-1.7382 0.48325-2.1476 0.75348-2.5513 1.6836-0.2644 0.60933-1.1515 1.9807-1.9715 3.0479s-1.5964 2.2944-1.726 2.727c-0.1296 0.43256-0.70251 1.062-1.2728 1.3989-0.57027 0.33688-1.0366 0.89556-1.0366 1.2418s-0.23813 0.62994-0.52917 0.62994-0.52917 0.21243-0.52917 0.47232c0 0.2599-0.39414 0.652-0.87539 0.87127-0.57101 0.26018-0.80287 0.58609-0.66766 0.93844 0.12452 0.32449 0.0125 0.54002-0.28112 0.54002-0.26868 0-0.73605 0.27798-1.0387 0.61753-0.30264 0.33955-0.93339 0.93871-1.4015 1.3317-0.46808 0.393-1.3816 0.93407-2.0298 1.2025-0.64825 0.26844-1.2837 0.77261-1.4123 1.1203-0.12864 0.34774-1.0776 1.262-2.1089 2.0314-1.1081 0.82674-2.623 1.5742-3.7031 1.8278-1.0052 0.23604-2.1009 0.71427-2.435 1.0625-0.5337 0.55625-1.2664 0.63167-6.0399 0.62167-3.255-7e-3 -5.7197 0.14262-6.1485 0.37207-0.56842 0.30421-0.75972 0.26726-0.93069-0.17828-0.15623-0.40715-0.55279-0.52136-1.4464-0.41703-0.67713 0.079-1.2309 0.0171-1.2309-0.13798 0-0.15507-0.16814-0.28215-0.37362-0.28215-0.20548 0-0.27546 0.15892-0.15555 0.35295 0.11992 0.19402-0.03901 0.35295-0.35295 0.35295-0.36276 0-0.47429-0.16107-0.30592-0.44132 0.21159-0.35246 0.15546-0.35287-0.27802-2e-3 -0.31601 0.25572-1.1585 0.37984-2.0169 0.29714-0.81091-0.0781-2.8384-0.8174-4.5057-1.6433l-3.0313-1.5017-1.5673 0.85163c-0.86201 0.46841-1.7801 1.0898-2.0402 1.3808-0.39945 0.44704-0.28675 1.0752 0.72709 4.0473 0.66005 1.9349 1.2004 4.0382 1.2004 4.6741 0 0.69573 0.17546 1.1522 0.4408 1.1452 0.24254-6e-3 0.73428-0.41357 1.093-0.90589s0.68088-1.0829 0.71572-1.3121c0.03484-0.22919 0.19199-0.62292 0.34933-0.87488 0.21932-0.35119 0.4014-0.36254 0.78031-0.0481 0.39341 0.3265 0.55391 0.24865 0.78755-0.38293 0.28072-0.75886 0.31957-0.73938 0.88573 0.45372 0.32558 0.6861 0.5917 1.3896 0.5917 1.5632s0.9525 1.5585 2.1167 3.0768l2.1167 2.7606 0.0016 4.8074c7.87e-4 2.6443 0.10482 6.832 0.23099 9.3059l0.22944 4.4979h7.3747v5.2e-4c4.6469 0 7.2964-0.1261 7.1639-0.34055-0.11569-0.18718-0.4266-1.0605-0.69143-1.9404-0.26482-0.87997-0.35862-1.5999-0.20825-1.5999s1.3388 0.8733 2.6407 1.9404l2.3668 1.9404h23.735l1.3172-1.4996 1.3172-1.4991-0.30954 1.1348c-0.1702 0.62427-0.41103 1.2993-0.53485 1.4996-0.1527 0.24707 2.8446 0.36432 9.3162 0.36432h9.5415l-0.66094-1.4996c-0.36346-0.82462-1.3096-3.4833-2.1022-5.9087-0.79259-2.4254-1.8518-6.1212-2.3539-8.2129l-0.9126-3.8034 1.124-2.0174c0.61812-1.1097 1.4923-2.7539 1.9425-3.6535 0.47137-0.94183 0.99096-2.9326 1.2252-4.6932 0.22384-1.6818 0.29902-3.6341 0.16692-4.3382-0.13209-0.70412-0.78118-2.3542-1.4423-3.667-0.66111-1.3128-1.8823-3.5459-2.714-4.9625-0.83171-1.4166-2.8579-5.0114-4.5026-7.9887zm-33.39 4.5026c-0.16755-0.0169-0.27092 0.12228-0.41289 0.38395-0.19325 0.3562-0.80255 1.1693-1.3539 1.8066-0.55139 0.63734-1.0025 1.5579-1.0025 2.0459 0 0.48795 0.23498 1.3411 0.52193 1.896 0.28696 0.55492 0.72336 1.0904 0.96997 1.1896 0.24662 0.0992 0.92481 0.18084 1.5069 0.18139 0.58208 5.6e-4 1.601-0.19531 2.2645-0.43512 0.66343-0.2398 1.435-0.7803 1.7146-1.2015 0.46975-0.70747 0.44079-0.79182-0.37982-1.1038-0.60239-0.22902-0.97039-0.71343-1.1436-1.5053-0.14047-0.64223-0.81611-1.6973-1.5012-2.3446-0.64708-0.61134-0.96849-0.89136-1.1839-0.91312zm-8.5137 4.8602c-0.43505-5e-3 -0.70656 0.17886-1.1746 0.61856-0.46328 0.43523-0.84233 1.1299-0.84233 1.5441s0.23344 1.0615 0.51832 1.4382c0.28487 0.37664 0.52297 0.95478 0.52917 1.2847 0.0062 0.32991 0.28884 0.76134 0.62838 0.95911 0.33955 0.19776 0.8404 0.36452 1.1131 0.37052 0.27273 6e-3 1.027-0.3944 1.6759-0.88935 0.79309-0.60492 1.1798-1.1943 1.1798-1.7978 0-0.49377-0.27476-1.3621-0.61029-1.9301-0.4056-0.68663-1.069-1.1567-1.9797-1.402-0.4567-0.12297-0.77663-0.19316-1.0377-0.19585zm4.1352 0.22841c-0.43477 0-0.45845 0.1388-0.12868 0.75499 0.22215 0.4151 0.54013 1.2288 0.70642 1.8087 0.19068 0.66481 0.16117 1.3175-0.0796 1.7673-0.20997 0.39233-1.0239 1.3247-1.8092 2.0717-0.78532 0.74705-1.561 1.3586-1.7234 1.3586s-0.29508 0.17561-0.29508 0.39067c0 0.24097 0.33819 0.30641 0.8816 0.17002 0.50858-0.12765 0.88212-0.0693 0.88212 0.13798 0 0.19772 0.12355 0.35966 0.2744 0.35966 0.15086 0 0.65509-0.26699 1.1209-0.59324 0.46576-0.32624 2.1033-1.2009 3.639-1.9436 1.5357-0.74266 3.497-1.5277 4.3584-1.7446 0.89448-0.22523 1.724-0.6886 1.9337-1.0806 0.3446-0.64389 0.27306-0.67279-1.1581-0.46302-0.83895 0.12297-2.436 0.25382-3.5491 0.29042-1.2394 0.0407-2.0902 0.23742-2.1942 0.50746-0.0934 0.24253-0.4129 0.4408-0.71003 0.4408s-0.54002-0.16368-0.54002-0.3638 0.26052-0.46388 0.57878-0.58601c0.50622-0.19426 0.51307-0.27003 0.0543-0.60617-0.28844-0.21133-0.79141-0.90006-1.1172-1.5306s-0.83211-1.1467-1.125-1.1467zm7.1179 7.0554c-1.2608 0-1.654 0.16332-2.1249 0.88212-0.31783 0.48507-0.82 0.88211-1.1162 0.88211-0.2962 0-1.0073 0.24192-1.5798 0.53795-0.57244 0.29602-1.0408 0.7408-1.0408 0.98806 0 0.24725 0.19039 0.63998 0.42323 0.87281 0.23283 0.23283 1.0663 0.42217 1.8521 0.42117 0.78581-1e-3 2.0419-0.17182 2.791-0.37983s1.9029-0.91895 2.5637-1.5797l1.2015-1.2015-0.71158-0.71159c-0.49707-0.49707-1.1774-0.71158-2.2583-0.71158zm-31.971 1.126c-0.15796-1.3e-4 -0.32865 0.0282-0.5271 0.078-0.85934 0.21568-0.94599 0.3681-0.77825 1.3715 0.1038 0.62092 0.36153 1.5757 0.57258 2.1218l0.38344 0.99322 1.4035-0.99322c0.77198-0.54617 1.4072-1.1209 1.4113-1.2769 0.0041-0.15604-0.45005-0.77315-1.0092-1.3715-0.62605-0.66984-0.98237-0.92256-1.4562-0.92294z" fill="#999"/><path d="m142.65 86.833c-0.0889 0.0035-0.15348 0.21532-0.15348 0.54002 0 0.39964-0.24955 0.82214-0.55397 0.93896-0.34312 0.13164-0.47631 0.4549-0.35088 0.85008 0.1113 0.35068-0.0447 0.94659-0.34675 1.3245-0.5299 0.66304-0.54076 0.65702-0.31109-0.16846 0.20177-0.7252 0.0596-0.65194-0.93431 0.48007-0.64478 0.73437-1.2026 1.773-1.2397 2.3084s-0.36232 1.4247-0.72295 1.9761c-0.36063 0.55142-0.45934 0.88133-0.21911 0.73329s0.86534-1.0149 1.3891-1.9265c0.52372-0.9116 1.4053-2.1864 1.9591-2.8329 0.70586-0.82399 0.93862-1.3907 0.77824-1.896-0.14941-0.47074-0.0969-0.63974 0.15142-0.48628 0.21987 0.13589 0.47678-0.14964 0.60926-0.67748 0.12596-0.50204 0.13065-1.0114 0.0103-1.1317-0.0226-0.02256-0.0446-0.03284-0.0651-0.03204zm-37.343 6.6714c-5e-3 3.42e-4 -0.0109 0.0031-0.0165 0.0088-0.0903 0.09033-0.24182 0.78825-0.33642 1.5508s-0.44929 1.5895-0.78858 1.8376c-0.41462 0.30317-1.1722 0.37727-2.3099 0.22634-1.0639-0.14114-1.6924-0.09066-1.6924 0.13591 0 0.19826 0.25554 0.45871 0.56844 0.57878 0.43454 0.16675 0.47522 0.33134 0.17208 0.6966-0.29744 0.35842-0.28029 0.57488 0.0687 0.86455 0.25611 0.21255 1.0918 0.61215 1.8567 0.88779 0.76493 0.27565 1.4552 0.51949 1.5338 0.54209s-0.12021-0.24875-0.44132-0.60357c-0.32111-0.35483-0.58343-0.92626-0.58343-1.2697 0-0.34344 0.47626-1.0696 1.0583-1.6133 0.856-0.79962 1.0583-1.2763 1.0583-2.4934 0-0.77589-0.0653-1.3544-0.1478-1.3493zm-6.5805 10.899c-0.76225 0-1.386 0.0638-1.386 0.14159 0 0.0778 0.57581 0.48088 1.2795 0.89607s1.4579 0.6941 1.6759 0.6196c0.21793-0.0745 1.031 0.26213 1.8071 0.74776s2.0192 1.5705 2.7621 2.4112c1.0344 1.1706 1.4884 1.4574 1.9399 1.2247 0.32425-0.16713 1.1794-0.41046 1.9002-0.54053 0.7208-0.13007 1.3882-0.36173 1.4831-0.51521 0.0948-0.15348-0.67866-1.1195-1.7188-2.1466l-1.8908-1.8676-2.7668-0.0408c-1.6917-0.025-2.9484-0.21387-3.2334-0.48576-0.25639-0.24459-1.0898-0.44442-1.8521-0.44442zm-12.82 1.9167c-1.1132-6e-3 -1.6308 0.15674-2.5073 0.55604-0.84783 0.38623-1.8434 0.70228-2.2123 0.70228-0.36889 0-1.1813 0.25419-1.8051 0.56534-0.62372 0.31115-2.298 0.74805-3.7207 0.97048-2.3966 0.37466-2.7256 0.53544-4.4762 2.189-1.0393 0.98167-3.0498 3.1218-4.4679 4.7558-1.4181 1.634-3.0495 3.768-3.6251 4.7418-0.57556 0.97383-1.2999 2.1276-1.6097 2.5642-0.36268 0.51103-0.41814 0.79375-0.15555 0.79375 0.22433 0 1.3948-1.0717 2.6009-2.3812 1.206-1.3096 2.9867-3.145 3.9569-4.0788 1.3939-1.3417 1.9632-1.6695 2.7151-1.5632 0.52333 0.074 0.878 0.0153 0.78806-0.13022s-0.01588-0.35526 0.16433-0.46664c0.18021-0.11137 0.28359 0.1972 0.22996 0.68574-0.06605 0.60168-1.3647 2.1099-4.0256 4.6757-2.1605 2.0833-4.4842 4.581-5.1635 5.5506s-1.2351 1.8821-1.2351 2.0278c0 0.14569-0.55545 1.0381-1.2346 1.9833-0.6791 0.94526-1.2346 1.9116-1.2346 2.1472 0 0.23555-0.48713 1.6442-1.0821 3.13-0.59497 1.4859-1.1427 3.536-1.217 4.5563-0.12212 1.677-0.06552 1.8552 0.58601 1.8552 0.42403 0 0.7963-0.29027 0.90485-0.70538 0.10148-0.38805 0.46641-0.7059 0.8108-0.7059 0.38329 0 0.71718-0.36261 0.86093-0.93535 0.12916-0.51462 0.66982-1.3481 1.2015-1.8521 0.53166-0.50403 1.1753-1.4289 1.4304-2.0552 0.2551-0.62628 1.5973-2.1372 2.9822-3.3574 1.3849-1.2202 3.3014-2.8512 4.2592-3.6241 0.95777-0.77284 2.4076-1.8813 3.2215-2.4634 0.8139-0.58209 2.3404-1.7146 3.3926-2.5172 1.0521-0.80259 2.9345-1.9749 4.1827-2.605s3.2929-1.5311 4.5439-2.002c1.251-0.47089 3.0789-1.0215 4.0618-1.2237 0.98282-0.20223 4.3004-0.34336 7.3727-0.31316 3.8094 0.0374 5.7439-0.0756 6.0818-0.35605 0.27255-0.22619 0.41194-0.54693 0.30954-0.71262-0.10239-0.1657-0.65637-0.20741-1.2309-0.0925-0.96358 0.19272-1.045 0.13039-1.047-0.80512-2e-3 -0.7562-0.27093-1.1674-1.0583-1.6154-0.58086-0.33053-1.0563-0.76133-1.0563-0.95756 0-0.19622 0.31784-0.52664 0.7059-0.73432 0.56314-0.30139 0.70538-0.26845 0.70538 0.16381 0 0.29787 0.22744 0.54157 0.5054 0.54157 0.27797 0 0.60984-0.32875 0.73742-0.73071 0.14562-0.4588 0.0148-0.97049-0.35088-1.3746-0.42775-0.47266-0.46618-0.68244-0.1447-0.78961 0.24075-0.0803 0.34469-0.38915 0.23048-0.68678-0.11421-0.29764-1.1352-0.86515-2.2686-1.2609-1.1334-0.39576-2.9336-0.90712-4.0008-1.1364-1.0672-0.22923-3.6589-0.56354-5.7593-0.74311-1.3029-0.11139-2.1851-0.17649-2.8531-0.18035zm41.589 3.0892c-0.0712 0.0712-0.0192 0.30229 0.11575 0.51314 0.13497 0.21085 0.88063 0.71355 1.6568 1.1172 0.77611 0.40369 2.2049 1.3438 3.175 2.0893 0.97013 0.74552 2.081 1.8708 2.4691 2.5001 0.38806 0.62929 1.027 1.6514 1.4201 2.2717 0.39304 0.62032 1.3854 1.5786 2.205 2.1291 0.81963 0.55047 1.4904 1.2174 1.4904 1.4826 0 0.26515-0.3027 0.5781-0.67283 0.69557-0.37013 0.11748-0.75582 0.42933-0.85679 0.69246-0.11041 0.28773 0.5323 1.0206 1.6123 1.8386 0.98767 0.74813 2.9767 2.5262 4.4204 3.9517 1.6382 1.6177 2.5004 2.7169 2.2934 2.9238s-0.68841 0.19619-1.2805-0.0289c-0.52181-0.19839-1.9082-0.99819-3.081-1.7772-1.1728-0.77895-2.3461-1.4164-2.6076-1.4164-0.26146 0-0.72662 0.0967-1.0335 0.21445-0.33091 0.12698-0.55759 0.62934-0.55759 1.2346 0 0.61116 0.18672 1.0206 0.46612 1.0206 0.25661 0 1.9345 0.71438 3.7285 1.5875 1.7939 0.87313 3.4833 1.5875 3.7543 1.5875s1.0508 0.48962 1.7327 1.0883c0.68186 0.59868 1.7591 2.1449 2.3936 3.436 1.0526 2.1416 1.1488 2.6122 1.0992 5.3682-0.0427 2.3732-0.25053 3.4873-0.96997 5.1966-0.50365 1.1966-0.9157 2.3867-0.9157 2.6448 0 0.25809-0.18839 0.65763-0.41858 0.88781-0.32284 0.32284-0.56479 0.28645-1.0583-0.1602-0.3519-0.31846-0.63976-0.94191-0.63976-1.3854 0-0.44355-0.17132-0.9121-0.38034-1.0413-0.26398-0.16315-0.30403 0.28837-0.13126 1.4785 0.13681 0.94234 0.41121 2.0304 0.60927 2.4184 0.19805 0.38805 0.73329 1.1547 1.1896 1.7033s0.93126 1.4213 1.0558 1.9399 0.50246 1.4986 0.83974 2.1776c0.33727 0.6791 0.72966 1.9494 0.8723 2.8226 0.14265 0.87313 0.35902 1.7459 0.48059 1.9399 0.12156 0.19403 0.42937 0.9084 0.68368 1.5875s0.75891 2.1078 1.1214 3.175 0.78674 2.734 0.94309 3.7042c0.1941 1.2044 0.3201 1.4786 0.3974 0.86352 0.0623-0.49542-0.11815-1.9242-0.40101-3.175-0.28287-1.2508-0.75067-3.2268-1.0397-4.391s-0.76777-2.9593-1.0635-3.9889c-0.29572-1.0296-0.68692-2.0613-0.86972-2.2929-0.1828-0.23159-0.76324-1.7302-1.2898-3.33-0.6842-2.0785-0.88734-3.2361-0.7121-4.0566 0.13489-0.63153 0.64507-2.1007 1.1338-3.2649 0.72306-1.7224 0.89616-2.7433 0.92966-5.4798 0.0407-3.3266 0.0233-3.3984-1.6071-6.7024-0.90651-1.837-1.7584-3.7369-1.8929-4.222-0.13454-0.48507-0.89097-2.1354-1.681-3.6675-0.79005-1.532-1.8432-3.2664-2.3404-3.854-0.49722-0.58765-1.4598-1.9004-2.1389-2.9171-0.67908-1.0167-2.2326-2.5942-3.4525-3.5057-1.2907-0.96442-2.5056-2.2211-2.9058-3.0055-0.43213-0.84705-1.6403-2.0464-3.2504-3.2277-1.4093-1.034-3.0904-2.2495-3.7362-2.7006-0.64584-0.45115-1.2326-0.76211-1.3038-0.69091zm-5.4266 3.8132c-0.17585 0-0.23686 0.31784-0.13539 0.7059 0.14159 0.54144 0.0108 0.70538-0.56224 0.70538-0.41069 0-0.74672-0.17806-0.74672-0.39584 0-0.26875-0.17486-0.25118-0.54415 0.0553-0.37749 0.31329-0.43134 0.56446-0.17622 0.81958 0.20225 0.20225 0.36793 0.49487 0.36793 0.65009s-0.30869 0.28216-0.68574 0.28216-0.90728-0.3165-1.1782-0.70332-0.57666-0.61915-0.67955-0.51625c-0.1029 0.10289-0.99526-0.13164-1.9828-0.5209-0.98756-0.38895-1.8829-0.56636-1.9896-0.39377-0.10666 0.17258 0.2259 0.64389 0.73898 1.0475 0.51309 0.40359 1.1894 0.75158 1.5028 0.77308s0.92393 0.0101 1.357-0.0248 1.1435 0.18594 1.5782 0.49041c0.4347 0.30446 0.99288 0.55345 1.2408 0.55345s0.45062-0.15971 0.45062-0.35502 0.39705-0.70013 0.88211-1.1219c0.48507-0.42177 0.88212-1.0556 0.88212-1.4087 0-0.35307-0.14402-0.64234-0.31988-0.64234zm6.6229 0.0687c-0.49744-9e-5 -1.078 0.0146-1.7653 0.0419-2.53 0.10042-3.641 0.28219-3.8628 0.63252-0.17128 0.27049-0.31378 0.63338-0.31678 0.80615-3e-3 0.17278-0.32977 0.96636-0.72605 1.7637l-0.72037 1.4495 2.4939 4.9356c1.3718 2.7146 2.3429 4.9862 2.158 5.0478s-1.0228-0.23643-1.8619-0.66249c-0.83912-0.42606-1.9119-1.0764-2.3844-1.4454-0.47242-0.369-1.1548-1.1571-1.5162-1.7513-0.36135-0.59418-0.74912-2.069-0.86196-3.2773-0.18747-2.0076-0.29132-2.2298-1.2046-2.5745-0.78217-0.29524-1.0899-0.2681-1.4149 0.12351-0.32117 0.38698-0.28297 1.0362 0.16846 2.8655 0.32104 1.3009 0.95576 2.9275 1.4102 3.6142 0.45448 0.68677 1.6146 2.1194 2.5781 3.1838 0.96352 1.0644 2.4196 2.8479 3.236 3.9636 1.4476 1.9782 1.5258 2.0283 3.1492 2.0174 1.521-0.0102 1.6067-0.0546 0.99684-0.51624-0.36706-0.27788-0.84331-0.56984-1.0583-0.64854-0.27464-0.10046-0.25267-0.37635 0.0734-0.92708 0.40208-0.67913 0.37866-0.84697-0.17622-1.2568-0.51345-0.3792-0.55314-0.5618-0.19947-0.92036 0.35624-0.36122 0.69573-0.35596 1.7637 0.0284 0.72748 0.26182 1.6971 0.71993 2.1544 1.018 0.78327 0.51056 0.79492 0.56901 0.20205 1.0025-0.34613 0.25311-0.54438 0.54495-0.4408 0.64854 0.10359 0.10359 0.4491 0.0882 0.76791-0.0341 0.31881-0.12234 0.57929-0.50184 0.57929-0.84336 0-0.34151 0.64607-1.0485 1.4356-1.571 0.78952-0.52247 1.758-1.4962 2.1518-2.1637s0.83481-1.2134 0.9803-1.2134c0.14554 0 0.12282-0.90514-0.0506-2.0112-0.17345-1.1061-0.57288-2.8128-0.88728-3.7925s-1.0216-2.3025-1.5715-2.9399-1.0236-1.3517-1.0532-1.5875-0.0908-0.58733-0.13591-0.78135c-0.0451-0.19403-0.10007-0.54742-0.12247-0.78497-0.0224-0.23756-0.52273-0.68098-1.1116-0.98546-0.6215-0.32142-1.3644-0.45397-2.8567-0.45424zm-0.60979 2.25c0.0922 4e-3 0.1873 0.0184 0.28112 0.0429 0.3753 0.0981 0.96625 0.49214 1.3131 0.8754 0.615 0.67957 0.60759 0.69062-0.30127 0.46251-0.79112-0.19856-0.94932-0.109-1.0485 0.59117-0.0728 0.51411-0.38292 0.85529-0.82269 0.90589-0.38805 0.0446-1.1516-0.16396-1.697-0.46354-0.70062-0.38482-0.95972-0.77086-0.88212-1.3157 0.0904-0.63491 0.30666-0.75277 1.2242-0.66507 0.61293 0.0585 1.2086-0.0457 1.3234-0.23151 0.0862-0.13941 0.33328-0.21457 0.60978-0.20206zm3.6458 3.1822c0.24993-0.0156 0.5068 0.24682 1.0501 0.89245 0.63397 0.75342 0.88554 1.377 0.75396 1.8671-0.10868 0.40469-0.19905 1.7402-0.20205 2.9678-4e-3 1.9934-0.11517 2.3419-1.0361 3.2628-0.56715 0.56716-1.2668 1.0315-1.5544 1.0315s-1.2127-0.57312-2.0557-1.2733c-0.84297-0.70018-1.8038-1.7717-2.1353-2.3812-0.33141-0.6095-0.60902-1.3915-0.61702-1.7379-8e-3 -0.34637 0.24725-1.0304 0.56793-1.5198 0.32067-0.48942 1.1877-1.1982 1.9265-1.5751 0.73874-0.37687 1.5355-0.68523 1.7704-0.68523 0.23499 0 0.69769-0.2449 1.0284-0.54415 0.20588-0.18633 0.35337-0.29555 0.50333-0.30489zm-43.185 1.9632c-1.1794 6e-3 -2.0322 0.28778-4.2922 1.187-1.8224 0.72511-3.9481 1.6379-4.7243 2.0283-0.77611 0.39038-2.3638 1.4325-3.528 2.3161-1.1642 0.88365-2.9556 2.314-3.9812 3.1786-1.0256 0.86458-2.8663 2.8574-4.0902 4.4287-1.2239 1.5712-2.4275 3.2391-2.6748 3.7057-0.24732 0.46663-0.90742 2.2596-1.4666 3.9848-0.65066 2.0074-1.0165 3.8853-1.0165 5.2162 0 1.1438 0.15892 2.1776 0.35295 2.2975 0.19403 0.11991 0.35243 0.61589 0.35243 1.1022 0 0.48638 0.1645 1.1915 0.36535 1.5668 0.20085 0.3753 0.5257 0.68213 0.72192 0.68213 0.19622 0 0.62704-0.4925 0.95756-1.0945 0.33052-0.602 1.6916-2.7845 3.0246-4.8504 1.333-2.0659 3.238-4.6395 4.2333-5.719 0.99534-1.0796 3.4485-3.7366 5.4513-5.9046 2.0028-2.1679 5.0748-5.1512 6.8265-6.6291 1.9736-1.6652 4.2779-3.2109 6.0596-4.0649 1.5813-0.75788 3.2723-1.5808 3.7574-1.8288 0.48507-0.24799 0.84152-0.60355 0.7922-0.79014s-0.84341-0.3836-1.7642-0.4377-2.7229-0.18999-4.0049-0.3023c-0.52997-0.0464-0.95926-0.075-1.3524-0.0729zm42.172 0.29714c-0.51579 0-0.94849 0.31667-1.2061 0.88212-0.22101 0.48507-0.59128 0.8816-0.82269 0.8816s-0.71073 0.26283-1.0656 0.58394c-0.35483 0.32112-0.64544 0.88477-0.64544 1.2526 0 0.36788 0.59531 1.2158 1.3229 1.8841 0.80436 0.73877 1.6864 1.2155 2.25 1.2165 0.50982 9.3e-4 1.1278-0.23988 1.373-0.53537 0.31968-0.38519 0.37988-1.2462 0.21291-3.0427-0.12808-1.3781-0.31891-2.6447-0.42375-2.8143-0.10485-0.16964-0.55281-0.30851-0.99529-0.30851zm6.441 7.5846-0.62993 1.4144c-0.34648 0.77773-0.89927 1.6374-1.2284 1.9105s-1.1723 0.58981-1.8738 0.70384c-0.7015 0.11402-1.3415 0.40515-1.4221 0.64699-0.10009 0.30027 0.28262 0.43921 1.2061 0.43821 1.0487-1e-3 1.6494-0.27469 2.6753-1.217 1.0993-1.0096 1.3183-1.4417 1.2976-2.5559zm-38.286 3.2169c-0.11849-7e-5 -0.2369 3e-3 -0.35398 9e-3 -0.93668 0.0485-3.132 0.19804-4.8783 0.33228-2.7014 0.20766-3.5331 0.43419-5.5774 1.5182-1.3215 0.70076-2.6711 1.4328-2.9988 1.6268-0.32773 0.19403-1.1326 0.74948-1.7885 1.2346-0.65596 0.48506-1.6372 1.5899-2.1802 2.4552-0.54303 0.86529-0.90972 1.6987-0.81494 1.8521 0.09478 0.15336 0.24603 0.27906 0.3359 0.27906s1.4186-0.63114 2.9528-1.4025c1.5342-0.77137 4.9835-2.3352 7.6652-3.4752 2.6816-1.14 5.6171-2.254 6.5231-2.4758s2.0966-0.57479 2.6458-0.78445c0.8947-0.34156 0.93688-0.42653 0.40825-0.81494-0.28394-0.20861-1.1095-0.35347-1.9389-0.35398zm-44.086 5.5087c-0.02778-0.0104-0.06382 0.078-0.10749 0.27027-0.15426 0.6791-0.4827 2.837-0.72967 4.795-0.29206 2.3156-0.38288 5.7068-0.25993 9.7012 0.17542 5.6994 0.27073 6.389 1.326 9.5855 0.6254 1.8943 1.6063 4.0923 2.1797 4.8839 0.57343 0.7916 1.1176 1.3644 1.2092 1.2728s-0.15223-0.86086-0.54157-1.7089c-0.38934-0.84808-1.2302-2.8119-1.8686-4.3641-0.78638-1.9118-1.1307-3.2774-1.0676-4.2333 0.0512-0.77611 0.15575-2.3105 0.23203-3.4096 0.07629-1.0991 0.23634-2.3069 0.35605-2.6841 0.13061-0.41151 0.0029-0.86423-0.31936-1.1317-0.29542-0.24518-0.53692-0.73442-0.53692-1.0873s0.17251-0.74813 0.38344-0.8785c0.27617-0.17068 0.27617-0.34446 0-0.62063-0.21093-0.21093-0.36512-0.86755-0.34261-1.4593 0.02258-0.59364 0.11304-0.7995 0.20206-0.45889 0.12276 0.46975 0.53169 0.61753 1.7105 0.61753 1.1721 0 1.6386-0.16646 1.9156-0.68419 0.20142-0.37636 0.31037-1.0509 0.24236-1.4991-0.10064-0.66335-0.40262-0.85354-1.6226-1.0201-1.0702-0.14611-1.5499-0.0705-1.6779 0.26303-0.0986 0.25694-0.32048 0.37998-0.49299 0.27337-0.17246-0.10662-0.24703-1.8124-0.16536-3.7905 0.06935-1.6798 0.05906-2.6012-0.02429-2.6324zm70.076 15.306c-0.31434-7e-3 -1.0676 0.33652-1.8102 0.83975-0.8487 0.57512-1.702 1.0518-1.896 1.0588s-1.4232 0.55548-2.7316 1.2185c-1.3084 0.66306-3.2532 1.8884-4.3217 2.7228-1.0684 0.83447-1.9425 1.6521-1.9425 1.8175 0 0.16533 0.47412-0.0977 1.0532-0.58498 0.57906-0.48725 1.9679-1.2283 3.0866-1.6464s2.9865-1.2053 4.1506-1.7498 2.741-1.5367 3.5042-2.205c0.81332-0.71232 1.2329-1.3111 1.0139-1.4464-0.0257-0.0159-0.0615-0.0238-0.10645-0.0248zm13.65 8.7643c-0.1696-4e-3 -0.37915 0.10133-0.52813 0.28163-0.19865 0.2404-0.47049 1.0224-0.6041 1.7374-0.13366 0.71501-0.13804 1.4687-0.0103 1.6754 0.12769 0.20661 0.8309 0.37568 1.5632 0.37568 0.73232 0 1.4307-0.0985 1.5513-0.21911 0.12064-0.12064-0.1676-0.98287-0.64027-1.9156-0.47268-0.93278-1.003-1.7848-1.1787-1.8934-0.0439-0.0272-0.0964-0.0404-0.15296-0.0419zm-68.211 2.0665c-0.08377 0.0838 0.18737 1.0053 0.60255 2.0479 0.41517 1.0426 1.194 3.0069 1.7306 4.3651 0.53667 1.3582 1.8967 4.7361 3.0226 7.5065 1.1402 2.8058 2.2166 4.9741 2.4298 4.8948 0.2105-0.0782 0.32588-0.36057 0.25632-0.62735-0.06957-0.26679-0.43657-1.5961-0.81545-2.9543-0.37889-1.3582-1.411-4.0568-2.2934-5.997-0.88236-1.9403-2.319-4.8465-3.1926-6.458-0.87357-1.6115-1.6567-2.8614-1.7405-2.7776zm71.668 3.344-2.0996 0.23719c-1.1547 0.13056-2.3482 0.37041-2.6526 0.53331-0.30438 0.1629-1.2585 1.6671-2.1198 3.3424-0.97524 1.8969-2.7267 4.4038-4.6431 6.6456-1.6925 1.9798-3.9218 4.328-4.9537 5.2183-1.0319 0.89029-2.9731 2.3692-4.314 3.2866-1.3408 0.9174-3.325 2.1155-4.4096 2.6624-1.0845 0.54688-3.0829 1.3386-4.4411 1.7591-1.3582 0.42049-4.0573 0.98495-5.9976 1.2542s-4.6389 0.52624-5.997 0.57154c-1.3582 0.0453-4.2157-0.18641-6.35-0.5147-2.2005-0.33847-4.7644-0.98684-5.9216-1.4976-1.1224-0.49537-2.1912-0.84944-2.375-0.78704s0.58459 1.6542 1.7074 3.5373c1.1228 1.883 2.3222 3.7341 2.6655 4.1134 0.34329 0.37933 1.0037 0.7848 1.4676 0.90124 0.46395 0.11645 1.246 0.61448 1.7379 1.1064 0.49191 0.49191 0.89452 1.0935 0.89452 1.3369 0 0.24342 0.1904 0.63327 0.42323 0.8661 0.23283 0.23284 0.70908 0.42323 1.0583 0.42323 0.34925 0 0.6351 0.23812 0.6351 0.52916s0.29127 0.52917 0.64699 0.52917c0.35572 0 0.75949 0.1125 0.8971 0.25011 0.13762 0.1376 0.83871 0.20842 1.558 0.15762 0.71933-0.0508 2.2604 0.13158 3.4246 0.40514 1.1642 0.27356 2.6721 0.83708 3.3512 1.2521 0.79747 0.48739 1.8209 0.75518 2.8898 0.75603 0.91018 7.3e-4 1.7528-0.15789 1.8728-0.35192 0.11992-0.19402 1.2897-0.35243 2.5993-0.35243 1.5476 0 2.6209-0.1817 3.066-0.51832 0.37664-0.28487 0.90018-0.52316 1.1638-0.52916 0.33309-8e-3 0.41362 0.25162 0.26355 0.84956-0.11876 0.47318-0.0509 0.96205 0.1509 1.0868 0.20177 0.1247 0.95633-0.39743 1.6769-1.1606 0.72058-0.76322 2.7388-2.9111 4.485-4.7728 2.0428-2.1779 3.4446-3.3915 3.931-3.4034 0.41581-0.0102 0.84744-0.25673 0.95912-0.54777s0.44597-0.52916 0.7431-0.52916 0.54267-0.27799 0.54467-0.61754c2e-3 -0.33954 0.55118-0.97166 1.2196-1.4046 0.66839-0.43291 1.7668-1.6487 2.4407-2.7022 0.67388-1.0534 1.5937-2.0277 2.0438-2.1647s1.1598-0.66629 1.5772-1.1762c0.7271-0.88829 0.787-0.90136 1.4387-0.31161 0.37405 0.33851 0.91344 0.61546 1.1989 0.61546 0.28547 0 0.69616-0.17681 0.91209-0.39274 0.21592-0.21597 0.56472-0.2859 0.77566-0.15554 0.21093 0.13036 0.38395 0.47086 0.38395 0.75654s-0.23812 0.61076-0.52916 0.72244c-0.29105 0.11169-0.52917 0.42425-0.52917 0.69453s0.1886 0.45157 0.41961 0.40307 0.48081 0.18941 0.55501 0.52865-0.0751 0.83894-0.33176 1.11c-0.2567 0.27106-0.86369 1.0126-1.3488 1.648-0.48507 0.63533-1.5488 1.7805-2.3642 2.5451s-2.385 2.7617-3.4876 4.438c-1.1026 1.6763-2.4906 3.564-3.0846 4.1946-0.73617 0.7816-1.4054 1.1462-2.1027 1.1462-0.56257 0-1.4943 0.33581-2.0707 0.74621l-1.048 0.7462 0.72915 0.77618c0.40089 0.42672 0.72864 1.036 0.72864 1.3539 0 0.31792-0.18672 0.98786-0.41496 1.4888-0.22824 0.50093-1.379 1.4859-2.5575 2.189s-2.4205 1.5157-2.76 1.8061c-0.33953 0.29035-0.61753 0.72435-0.61753 0.96428 0 0.23994 0.39997 0.53669 0.88884 0.65939 0.56028 0.14062 1.7017-0.0887 3.0872-0.62063 1.2089-0.46411 2.9552-1.1173 3.8809-1.4516 0.92576-0.33427 2.6159-1.3874 3.7558-2.3399 1.1399-0.95251 2.2179-1.7317 2.3957-1.7317s1.8228-1.5478 3.6551-3.4396c1.8323-1.8918 4.0768-4.4221 4.9878-5.6229 0.91102-1.2008 1.9964-2.3654 2.4123-2.588 0.6932-0.371 0.73483-0.33591 0.50126 0.41961-0.14011 0.45322-0.5666 1.6659-0.94775 2.6949s-1.5029 3.0819-2.4929 4.562c-0.98998 1.4801-3.079 3.9854-4.6421 5.5666-1.563 1.5812-3.4769 3.287-4.253 3.791-0.77611 0.50403-2.9524 1.4133-4.8364 2.02-1.884 0.60678-4.5826 1.2284-5.997 1.3818-1.6472 0.17862-3.9944 0.11486-6.5283-0.17725-2.1758-0.25082-4.2952-0.63749-4.7098-0.85938s-2.1268-0.79847-3.8049-1.2816c-1.6782-0.48311-3.8451-1.3677-4.8152-1.9653-0.97014-0.59755-2.8751-1.8382-4.2333-2.7574-1.3582-0.91923-3.483-2.6619-4.7217-3.8726-1.9496-1.9056-2.2972-2.12-2.59-1.5968-0.21877 0.39092-0.18941 2.1834 0.08372 5.0751 0.23224 2.4589 0.54866 5.8094 0.7028 7.4455 0.15413 1.6362 0.19989 3.184 0.1018 3.4396-0.14362 0.37426 1.1042 0.46457 6.4094 0.46457h6.5882l-0.23254-0.79375c-0.12805-0.43657-0.53579-1.4389-0.90589-2.2278s-0.67282-1.6223-0.67282-1.8521c0-0.22979 0.19827-0.41428 0.44079-0.40928 0.24254 5e-3 1.1557 0.55958 2.0288 1.233 0.87313 0.67342 2.1886 1.6273 2.9233 2.1203 0.73476 0.49298 1.2424 1.0481 1.1281 1.233-0.1209 0.19562-0.60586 0.088-1.1596-0.25683-0.52344-0.326-1.4165-1.048-1.9844-1.6046-0.56787-0.5565-1.3216-1.1667-1.6754-1.356-0.46898-0.25099-0.63588-0.22153-0.61598 0.10904 0.015 0.24936 0.32001 1.2473 0.67799 2.2174 0.35798 0.97013 0.68237 1.5256 0.72037 1.2346 0.0378-0.29104 0.0365-0.76728-3e-3 -1.0583-0.0487-0.35802 0.17273-0.26948 0.68471 0.27285 0.41619 0.44087 0.90585 0.70912 1.0883 0.59635s0.33176-0.0443 0.33176 0.15193c0 0.20342 0.49296 0.28111 1.1467 0.18086 0.63059-0.0967 2.8892-0.1765 5.0193-0.17725 2.1301-7.6e-4 3.6863-0.11687 3.4582-0.25786-0.24392-0.15075-0.29563-0.44883-0.12557-0.72399 0.19165-0.3101 1.3454-0.52123 3.421-0.62632 1.7225-0.0872 3.8109-0.33089 4.6411-0.54157 0.83018-0.21071 1.6126-0.28032 1.7384-0.15451s-0.21794 0.69479-0.76378 1.2645l-0.99218 1.0361 0.84181 0.21032c0.46298 0.11596 2.3498 0.16387 4.193 0.10697 2.2584-0.0697 3.3512-0.23746 3.3512-0.5147 0-0.22628 0.36223-0.90131 0.8046-1.4996 0.44237-0.59833 1.0549-1.0878 1.3612-1.0878 0.42838 0 0.50305 0.22365 0.32504 0.96997-0.12726 0.53358-0.31357 1.248-0.41444 1.5875-0.17138 0.57687 0.4196 0.61753 9.0124 0.61753 7.0993 0 9.2054-0.10036 9.2377-0.4408 0.0228-0.24253 0.0272-0.52053 9e-3 -0.61753-0.018-0.097-0.26797-0.81139-0.55552-1.5875l-0.52297-1.4113-0.0155 1.126c-9e-3 0.61914 0.14342 1.2237 0.33744 1.3436 0.19402 0.11991 0.34759 0.40712 0.34159 0.63821-6e-3 0.23108-0.24641 0.10932-0.53382-0.27079-0.28742-0.38011-1.2218-2.8411-2.0764-5.4684-0.85456-2.6273-1.9743-6.5486-2.4882-8.7142l-0.93431-3.9378 1.9188-3.6468c1.7276-3.2837 1.9587-3.9864 2.3146-7.0487 0.32318-2.7808 0.3052-3.6497-0.0982-4.7625-0.27138-0.74863-0.8897-2.2344-1.3736-3.3016-0.48385-1.0672-1.2926-2.543-1.7978-3.2799-0.50522-0.73691-1.8473-3.039-2.9822-5.1154-1.1349-2.0765-2.7619-5.0216-3.6153-6.5448zm-55.257 2.3311c-0.17384-6e-3 -0.46315 0.0276-0.89452 0.0915-0.74336 0.11006-2.2903 0.49919-3.438 0.86455-1.1477 0.36537-2.369 0.66404-2.7135 0.66404s-0.71612 0.14552-0.82579 0.32298c-0.10967 0.17745 1.69e-4 0.40296 0.24391 0.50126s0.71278 0.19089 1.0423 0.20619 1.8587-0.36994 3.3982-0.85628c1.5395-0.48634 2.9895-1.1136 3.222-1.3937 0.22485-0.27093 0.25512-0.39049-0.03462-0.4005zm68.596 5.8653c-0.0941-0.01-0.0819 0.66612 0.0326 1.5756 0.12212 0.97014 0.36872 3.515 0.54828 5.6555 0.17955 2.1404 0.47788 4.2901 0.66301 4.777 0.18512 0.4869 0.59153 1.0966 0.90279 1.355 0.31125 0.25832 0.56585 0.68873 0.56585 0.95601s-0.14953 0.48576-0.33227 0.48576c-0.19575 0-0.24765 1.0108-0.1261 2.4608 0.14514 1.7312 0.0743 2.6204-0.23977 2.9988-0.28399 0.34221-0.30855 0.53744-0.0672 0.53744 0.20867 0 0.53114-0.54993 0.71675-1.2222 0.18562-0.67221 0.25126-1.8628 0.14624-2.6458-0.12565-0.93681-0.0539-1.4237 0.20878-1.4237 0.21958 0 0.39894-0.201 0.39894-0.447s-0.42425-1.0712-0.94258-1.834c-0.83064-1.2224-1.0196-2.0769-1.5937-7.2027-0.35826-3.1986-0.74596-5.9054-0.86145-6.0151-7e-3 -7e-3 -0.0139-0.0107-0.0202-0.0114zm-48.931 5.7314c-0.39147 5e-3 -0.80244 0.25324-1.5436 0.85266-0.7242 0.58571-1.3678 1.3254-1.4304 1.6433-0.084 0.42676 0.0544 0.51631 0.52917 0.34313 0.35364-0.129 1.3472-0.71231 2.2081-1.296 1.4965-1.0147 1.5312-1.0764 0.78755-1.4082-0.199-0.0888-0.37293-0.13699-0.55087-0.13488zm-27.162 11.014-0.3731 1.4748c-0.2051 0.81111-0.49165 1.5914-0.63717 1.7343-0.14552 0.14285-0.26458 0.71389-0.26458 1.2692s0.50925 1.9973 1.1322 3.2044c0.73462 1.4235 1.1672 2.815 1.2309 3.9589 0.05402 0.97014 0.35776 2.5894 0.67438 3.5982 0.33504 1.0677 0.4765 2.2277 0.339 2.7755-0.16239 0.64702-0.05201 1.1447 0.35295 1.5922 0.32399 0.35801 0.49531 0.89494 0.38086 1.1932-0.14379 0.37471 0.0069 0.54208 0.48679 0.54208 0.38197 0 0.68936 0.11907 0.68316 0.26459-0.0062 0.14552-0.24512 0.57373-0.53072 0.95136-0.40297 0.53282-0.61353 0.59208-0.94103 0.26458-0.23211-0.23211-0.54913-0.42219-0.70435-0.42219s-0.28215 0.23811-0.28215 0.52916c0 0.29104-0.20665 0.52917-0.45889 0.52917s-0.64877-0.1904-0.8816-0.42323-0.42323-1.0073-0.42323-1.7208c0-0.72283-0.23434-1.4916-0.52917-1.7363-0.29104-0.24155-0.52917-0.63577-0.52917-0.87592 0-0.24014-0.56305-1.0337-1.2511-1.7632-0.68803-0.72953-1.8321-2.2201-2.542-3.3125-0.7099-1.0924-1.2583-2.105-1.2185-2.2505s-0.14107-0.26458-0.40204-0.26458c-0.26097 0-0.69964 0.27747-0.97514 0.61702-0.36782 0.45335-0.49354 1.6252-0.47284 4.4101 0.01551 2.0858-0.04297 3.792-0.12971 3.792-0.08674 0-0.73202-0.33917-1.434-0.75396l-1.2764-0.75396 1.3761 1.1762c0.75677 0.64698 1.9361 1.5568 2.621 2.0216 0.68488 0.46478 1.574 0.90698 1.9756 0.98288 0.40161 0.0759 1.1731 0.23395 1.7146 0.3514 0.56511 0.12256 1.2042 0.0318 1.4996-0.21342 0.28309-0.23499 0.53437-0.32851 0.55862-0.20774s0.06412 0.41789 0.08837 0.66043c0.02425 0.24253 0.99643 1.4082 2.1606 2.5905 2.0091 2.0404 2.2061 2.1516 3.8804 2.1864 1.7008 0.0354 1.7358 0.0171 0.97048-0.51677-0.43656-0.30453-0.79375-0.70317-0.79375-0.88573s0.35719-0.28239 0.79375-0.22169c0.73141 0.1017 0.80743-0.0557 0.96997-2.0061 0.09701-1.1642 0.47452-2.6646 0.83923-3.3342 0.36471-0.66961 0.88082-1.4353 1.1467-1.7012 0.26588-0.26587 0.51119-0.82889 0.54519-1.2516 0.03401-0.4227 0.09207-1.6417 0.12867-2.7089 0.0366-1.0672 0.17119-2.3375 0.29921-2.8226 0.12802-0.48507 0.08736-1.1017-0.09043-1.3705-0.2147-0.32462-0.63602-0.41043-1.2542-0.25528-0.51191 0.12848-1.2482 0.74558-1.6361 1.371-0.53978 0.8702-0.65983 1.5094-0.5116 2.7244 0.10653 0.87312 0.04046 1.8212-0.14676 2.1068-0.29971 0.45718-0.35876 0.45718-0.49248 0-0.08353-0.28561-0.6649-2.1862-1.2919-4.2235-0.62701-2.0373-1.3386-4.1012-1.5818-4.5863s-0.54617-1.4376-0.67334-2.1167c-0.12718-0.6791-0.65591-2.346-1.1751-3.7042zm76.803 3.1088c-0.0454-0.0227-0.064 0.1262-0.0791 0.43615-0.0193 0.39775-0.22554 0.91387-0.45837 1.1467-0.23284 0.23284-0.70528 0.42323-1.0496 0.42323s-0.86824 0.46832-1.1643 1.0408c-0.29602 0.57245-0.53795 1.6993-0.53795 2.5037 0 0.80439 0.2457 2.3082 0.54622 3.3419 0.30052 1.0338 1.0148 2.4685 1.587 3.1884 0.57216 0.71997 1.2038 1.9159 1.4035 2.6577 0.19975 0.7418 0.51714 1.4445 0.7059 1.5611 0.18875 0.11666 0.34365 0.68684 0.34365 1.2671s-0.22479 1.4889-0.49919 2.0195c-0.27441 0.53064-0.60842 1.5479-0.74208 2.2603-0.22268 1.187-0.12933 1.4001 1.1162 2.544 0.85058 0.78117 1.7149 1.2491 2.3089 1.2501 0.52213 9.3e-4 1.0405 0.14977 1.1524 0.33073 0.11183 0.18095 0.65435 0.31594 1.2051 0.30024s1.1826 0.084 1.4046 0.22117c0.22199 0.1372 0.40411 0.38842 0.40411 0.55811s-0.4369 0.37447-0.97048 0.45527 0.10159 0.17088 1.4113 0.19998c1.6955 0.0376 2.3824-0.0741 2.3864-0.38809 4e-3 -0.29398 0.1198-0.26493 0.34778 0.0879 0.29038 0.4494 0.34227 0.43385 0.34727-0.10438 3e-3 -0.34858-0.45628-0.89856-1.0201-1.2222-0.642-0.36846-1.169-1.0696-1.4108-1.8764-0.21229-0.70854-0.38603-2.0487-0.38603-2.9776 0-1.0467-0.32146-2.3723-0.84542-3.4866-0.55382-1.1778-0.84429-2.4257-0.84129-3.6179 3e-3 -1.3249-0.30588-2.4764-1.1364-4.2333-0.62744-1.3274-1.2813-2.7815-1.4526-3.2313-0.1713-0.44983-0.71417-1.346-1.2066-1.9916-0.63599-0.83383-1.0957-1.1217-1.587-0.99323-0.58154 0.15207-0.69749-8e-3 -0.72709-1.0066-0.0193-0.65322-0.16195-1.5846-0.31729-2.0696-0.12106-0.37799-0.19337-0.57264-0.23875-0.59532zm-69.23 2.1342c-0.19358 2.6e-4 -0.42794 0.0611-0.64596 0.17777-0.3811 0.20396-1.2479 0.86163-1.926 1.4619-0.94591 0.83745-1.1937 1.2949-1.0656 1.9653 0.09185 0.4805 0.49078 1.1003 0.88677 1.3777 0.39599 0.27739 0.85304 0.42232 1.0154 0.32195 0.16241-0.10037 0.29559-0.56468 0.29559-1.0315 0-0.46843 0.29578-1.0068 0.66042-1.202 0.36337-0.19412 1.0144-0.28535 1.4469-0.20205 0.43254 0.0833 0.98807 0.31892 1.2346 0.52348 0.24648 0.20456 0.06691-0.38208-0.39946-1.3033-0.46637-0.92121-0.98474-1.8116-1.1519-1.9787-0.07436-0.0743-0.20032-0.11079-0.35088-0.11059zm78.824 4.701c-0.14118 2e-3 -0.24689 0.0329-0.30696 0.093-0.17629 0.1763-0.38288 0.92697-0.45888 1.6681-0.076 0.74116-0.20491 1.5358-0.28681 1.7658s0.0407 0.48186 0.27234 0.55966c0.31592 0.10611 0.29731 0.3728-0.0734 1.0687-0.40168 0.75407-0.41006 1.0292-0.045 1.4692 0.24704 0.29766 0.5844 0.54105 0.74982 0.54105s0.63809-0.75424 1.0501-1.6759 1.0735-1.9315 1.4702-2.2443c0.51671-0.40772 0.66111-0.80944 0.50798-1.4196-0.13454-0.53605-0.70471-1.0735-1.54-1.4521-0.54668-0.2478-1.0289-0.37871-1.3395-0.37362zm-63.725 5.0999c-0.6485 3e-3 -1.0549 0.078-1.1431 0.22066-0.12394 0.20054 0.36977 0.71814 1.0971 1.1503 0.72731 0.43217 2.3546 1.1018 3.6158 1.4878 1.2612 0.38594 3.5627 0.8171 5.1149 0.95808 1.5522 0.14098 4.9062 0.28058 7.4528 0.31058s5.1344-0.0462 5.7511-0.1695c0.99913-0.19982 1.1097-0.3413 1.0144-1.3007l-0.10698-1.0769-4.2333 0.0791c-2.3283 0.0434-4.7752 0.25257-5.4374 0.46509-0.67574 0.21691-2.2247 0.30116-3.53 0.19172-1.5071-0.12635-2.9466-0.51722-4.0892-1.11-1.1113-0.57658-2.6253-0.9951-4.0938-1.1322-0.54706-0.0511-1.0232-0.0756-1.4123-0.0739zm10.909 6.8332c-0.2748 1e-3 -0.56651 0.0234-0.83974 0.0677-1.3237 0.2148-1.3239 0.2152-0.56224 0.83199 0.41927 0.3395 1.0625 0.53877 1.4294 0.44287 0.36686-0.0959 0.77346-2e-3 0.90382 0.20929 0.13036 0.21093 0.62356 0.38344 1.0955 0.38344 0.47607 0 1.0542 0.31395 1.2986 0.70538 0.24234 0.38805 0.65362 0.70539 0.91416 0.70539v5.1e-4c0.26015 0 0.38125-0.19878 0.2682-0.44131-0.11306-0.24254-0.29987-0.70574-0.41548-1.0294-0.11562-0.32366-0.71132-0.77332-1.3234-0.99942-0.61211-0.22609-1.3761-0.54929-1.6981-0.71779-0.20123-0.10531-0.61273-0.16065-1.0707-0.15864zm58.952 0.96066c-0.17479-7e-3 -0.42135 0.0297-0.76378 0.1018-0.63059 0.13287-1.2905 0.37672-1.4666 0.54209-0.18972 0.17815-0.1344 0.5253 0.13643 0.85163 0.31128 0.37501 0.3926 1.1395 0.25424 2.3962-0.11173 1.015-0.31215 2.361-0.44545 2.9916l-0.24236 1.1467h2.9838c1.6412 0 3.0656-0.0818 3.1657-0.1819 0.10012-0.10012-0.0169-0.93356-0.25994-1.8521s-0.59907-2.0672-0.79116-2.5523c-0.19209-0.48506-0.76288-1.238-1.2687-1.6733-0.50577-0.43528-0.91932-1.0431-0.91932-1.3508 0-0.27852-0.0916-0.40845-0.38292-0.41961zm4.6436 1.8764c-0.1364-0.0218 0.0249 1.0977 0.37052 2.5487 0.35763 1.5016 0.91191 2.9159 1.2356 3.1528 0.32286 0.23636 0.71166 0.35259 0.86403 0.25839 0.15233-0.0942 0.26352-0.64587 0.24702-1.2263-0.0213-0.75056-0.18911-1.0292-0.58085-0.96428-0.31667 0.0525-0.60412-0.20879-0.67592-0.61443-0.0687-0.38805-0.35619-1.2148-0.63924-1.8371s-0.64645-1.2128-0.80719-1.3121c-5e-3 -3e-3 -0.01-5e-3 -0.0139-6e-3zm-95.524 3.4732c-0.30896-0.0123-0.5773 0.17565-1.0542 0.62166-0.48458 0.45318-1.0308 1.1017-1.2139 1.4413-0.30893 0.57309-0.02184 0.61553 4.0013 0.59273l4.3341-0.0243-1.7642-0.53692c-0.97014-0.29523-2.0018-0.74016-2.2929-0.98857-0.29104-0.24841-0.90164-0.64395-1.3565-0.87953-0.2686-0.13911-0.46833-0.21895-0.65371-0.22634z" fill="#1a1a1a"/>
         </g>
            </svg>
